<svg xmlns="http://www.w3.org/2000/svg" version="1.1" xmlns:xlink="http://www.w3.org/1999/xlink" xmlns:svgjs="http://svgjs.com/svgjs" width="192" height="192"><svg id="SvgjsSvg1000" data-name="aa4cf98d-cf71-4676-9094-288036181468" xmlns="http://www.w3.org/2000/svg" width="192" height="192" viewBox="0 0 192 192"><polygon points="95.536 84.086 149.407 133.511 73.852 105.501 95.536 84.086"></polygon><polygon points="152.693 44.628 162.441 39.103 160.392 135.02 125.337 102.862 152.693 44.628"></polygon><path d="M95.6666,43.2629l32.1376,39.4949-7.343,15.63L97.5879,77.4015a3.1573,3.1573,0,0,0-4.354.08L75.7507,94.7481,66.62,85.5228Z"></path><path d="M9.9618,37.2564l61.2954,61.93-3.9421,3.8917L51.9316,97.375a3.1616,3.1616,0,0,0-2.8781.3535L37.625,105.54Z"></path><polygon points="51.265 103.864 145.802 138.908 101.392 138.908 101.384 138.908 0 138.908 51.265 103.864"></polygon><polygon points="45.849 145.223 84.69 145.223 52.175 154.743 45.849 145.223"></polygon><polygon points="153.751 154.743 114.921 145.223 158.362 145.223 153.751 154.743"></polygon><polygon points="168.389 56.443 168.704 41.728 192 67.469 168.389 56.443"></polygon></svg><style>@media (prefers-color-scheme: light) { :root { filter: none; } }
@media (prefers-color-scheme: dark) { :root { filter: invert(100%); } }
</style></svg>