<svg id="Capa_1" data-name="Capa 1" xmlns="http://www.w3.org/2000/svg" xmlns:xlink="http://www.w3.org/1999/xlink" width="470.233" height="500.459" viewBox="0 0 470.233 500.459"><defs><style>.cls-1{fill:none}.cls-2{clip-path:url(#clip-path)}.cls-3{fill:#ebdcd1}.cls-4{fill:#4c4573}.cls-5,.cls-7{fill:#201b37}.cls-6{fill:#352e56}.cls-7{stroke:#352e56;stroke-miterlimit:10;stroke-width:5px}.cls-8{fill:url(#B)}.cls-9{fill:url(#C)}</style><clipPath id="clip-path"><rect class="cls-1" width="5.58" height="5.58"/></clipPath><pattern id="B" data-name="B" width="5.58" height="5.58" patternTransform="matrix(1, 0, 0, -1, 2.12, -16036.918)" patternUnits="userSpaceOnUse" viewBox="0 0 5.58 5.58"><rect class="cls-1" width="5.58" height="5.58"/><path class="cls-1" d="M0 5.58H5.58V0H0z"/><g class="cls-2"><path class="cls-3" d="M0 5.58H5.58V0H0z"/><circle class="cls-4" cx="2.79" cy="2.79" r=".88"/><circle class="cls-4" cx="5.58" cy="5.58" r=".88"/><circle class="cls-4" cy="5.58" r=".88"/><circle class="cls-4" cx="5.58" r=".88"/><circle class="cls-4" r=".88"/></g></pattern><pattern id="C" data-name="C" width="5.58" height="5.58" patternTransform="translate(348.2576 17084.2654)" patternUnits="userSpaceOnUse" viewBox="0 0 5.58 5.58"><rect class="cls-1" width="5.58" height="5.58"/><path class="cls-1" d="M0 5.58H5.58V0H0z"/><circle class="cls-5" cx="5.58" cy="5.58" r="1.106"/><circle class="cls-5" cy="5.58" r="1.106"/><circle class="cls-5" cx="5.58" r="1.106"/><path class="cls-6" d="M0 5.58H5.58V0H0z"/><circle class="cls-5" cx="2.79" cy="2.79" r="1.106"/><circle class="cls-5" r="1.106"/><circle class="cls-5" cx="5.58" cy="5.58" r="1.106"/><circle class="cls-5" cy="5.58" r="1.106"/><circle class="cls-5" cx="5.58" r="1.106"/><circle class="cls-5" r="1.106"/></pattern></defs><path class="cls-7" d="M468.43 260.851c-.582-7.281-1.813-14.521-3.041-21.732-.332-1.953-1.677-3.735-2.865-6.246-.036.205-.061.403-.09.603a25.9451 25.9451.0 00-2.553-6.474 162.0486 162.0486.0 00-8.95-14.956 40.1406 40.1406.0 00-3.375-5.235q-1.04-1.9271-2.084-3.86a7.7814 7.7814.0 00-1.06-3.26c-2.609-4.823-5.423-9.543-7.827-14.465-4.665-9.549-8.412-19.542-15.166-28-15.765-19.74-35.545-34.498-57.528-46.45-14.56-7.915-28.553-16.489-39.676-29.029a35.3919 35.3919.0 01-4.821-6.313A115.1821 115.1821.0 00296.217 45.64c-3.109-2.876-5.328-6.725-7.892-10.175-1.076-1.448-2.594-2.981-3.59-4.493q-.5539-.8959-1.101-1.796-1.2837-2.3667-2.768-4.616-.615-1.031-1.233-2.061a47.0108 47.0108.0 00-4.496-6.34h.003c-3.9921-5.883-11.4371-9.974-19.688-11.202q-.0722-.0621-.15-.117l-1.267-.058a34.99 34.99.0 00-4.127-.206 46.5577 46.5577.0 00-9.37.059l.042-.024c-2.942.304-5.757 1.108-8.622 1.647-4.538.854-9.095 1.65-13.672 2.258l-20.862 2.605-.033-.001c-1.973.0-7.092-.516-9.063-.574L153.925 9.418c-3.551-.174-7.058-1.82-10.582-1.811-5.296.013-10.139-.661-14.807-3.431a13.5153 13.5153.0 00-9.016-2.069c-15.141-2.39-22.104 2.552-22.898 9.871a7.41 7.41.0 00-3.156 4.873c-1.01 5.327-3.106 10.059-7.492 13.674-1.55 1.277-2.352 3.461-3.491 5.236l.004.002-.015.017s-.702.889-1.723 2.338c-.233.323-.474.673-.72 1.04-1.623 2.385-5.233 9.215-5.233 9.213-.646 1.449-2.016 3.098-2.551 4.623-1.223 3.484-1.462 5.882-1.002 8.118a14.0939 14.0939.0 01-.859 4.022l-.4.988c-.541 1.226-1.145 2.31-1.6 3.559l.005-.002c-.015.016-.029.029-.044.045-3.664 2.442-4.529 7.362-5.993 11.54l-.95 1.246-.007.008.001.001h0a14.54 14.54.0 00-3.248 5.58h.001a25.5256 25.5256.0 00-2.685 6.298v-.011c-1.234 1.9-.737 6.888-.774 10.042h0l-.344.614c-1.767 3.142-2.875 6.752-5.057 9.541-3.061 3.911-6.866 7.238-10.327 10.839-1.15 1.196-2.221 2.468-3.329 3.704l.18.198a19.5675 19.5675.0 00-3.818 3.715 15 15 0 00-2.897 4.056 23.3616 23.3616.0 00-1.012 19.329c1.688 4.4 3.464 9.394 8.054 11.638 9.573 4.681 19.311 9.073 30.49 7.79 4.221-.484 8.176.697 12.108 2.345a18.8164 18.8164.0 003.469 1.16 11.5525 11.5525.0 002.74 3.706l-.005.003a53.4085 53.4085.0 013.996 5.906c1.583 2.877 3.667 5.769 4.127 8.918l1.603 11.288h0l.916 48.226h0c-.113.429.069 6.104.107 9.943a23.4766 23.4766.0 00-.082 3.437c-.004.012-.006.03-.01.038L96.666 330c.091 4.744-1.451 6.534-6.115 7.447-2.771.543-5.61.809-8.332 1.526-7.218 1.902-14.325 4.262-21.596 5.916-8.229 1.8729-16.709 2.71-24.857 4.849-9.308 2.443-18.379 5.794-27.526 8.831a10.064 10.064.0 00-3.429 1.993c-2.251 2.007-1.778 3.498.994 4.495a18.6554 18.6554.0 014.614 2.569 8.4051 8.4051.0 008.623 1.0109l-.002.003a16.3494 16.3494.0 002.463-.065c4.169 1.939 6.792 2.5021 9.761.059a12.4981 12.4981.0 002.111-1.17c6.161-1.511 11.412-2.925 16.718-4.004 6.645-1.351 13.399-2.176 20.024-3.608.765-.167 1.522-.363 2.275-.572 1.229.27 1.743.526 2.064.379 7.208-3.294 14.82-4.485 22.678-5.049 4.978-.358 6.481.475 4.774 5.091-2.464 6.666-5.515 13.121-8.481 19.59a19.315 19.315.0 01-3.068 3.916c-7.267 8.682-18.21 9.535-27.943 11.864-13.363 3.198-27.261 4.112-40.389 8.694-1.991.695-4.256.602-6.393.88l-5.185.698a15.8357 15.8357.0 00-4.542 2.228H5.906L1.5 410.933v8.776c5.647 5.341 12.965 8.884 17.079 15.894a5.4578 5.4578.0 001.932 1.539c7.82 4.797 16.286 4.601 24.587 2.207a21.0292 21.0292.0 019.602-.78q.786.124 1.578.234a2.6671 2.6671.0 001.811.225c4.563.484 9.152.279 13.074-2.461 2.437-1.702 4.79-3.524 7.109-5.394a7.2512 7.2512.0 00.83-.484c6.632-4.739 13.135-9.659 19.603-14.627 3.515-2.279 7.034-4.553 10.301-7.143 5.718-4.534 11.047-9.565 16.469-14.465a18.33 18.33.0 002.541-2.755l-.045.083c3.854-2.174 10.073 1.419 11.897 1.652a68.3213 68.3213.0 009.142.273l.002-.001 10.028.138q.2671.0174.535.015l.081.002-.004-.002a2.75 2.75.0 00.818-.118l9.443.335s22.038-.176 25.915.723 4.593.993 4.593.993c1.056.094 2.139.172 3.239.237a184.8427 184.8427.0 0020.297.158l14.411 2.889c4.105.808 7.798 2.536 9.736 6.312 5.085 9.909 5.144 20.58 3.13 31.13-1.264 6.62-4.104 12.927-6.003 19.443-.634 2.175-.245 4.762-.482 7.053q-.5613 1.6221-1.186 3.221a55.3314 55.3314.0 01-2.857 6.04c-3.731 4.843-6.622 10.0061-10.292 14.896-1.468 1.956-1.819 3.91.814 5.413a6.1958 6.1958.0 011.672 1.825c3.242 4.453 5.105 4.901 10.454 3.393a8.5108 8.5108.0 015.465.4831c2.999 1.403 9.179.52 12.178-1.8071v.0011c5.885.497 8.308.0719 12.738-3.4451l-.017-.005c4.014.035 7.671-1.833 11.402-3.185 1.186-.43 2.423-2.883 2.496-4.956l-.005.0011a9.9587 9.9587.0 001.076-3.137c1.238-7.508 2.784-14.966 4.244-22.4371a7.1117 7.1117.0 01.909-2.319c2.378-3.858 2.616-8.0889 2.79-12.466a25.36 25.36.0 00.063-2.653c.036-8.66-1.543-17.348.451-25.968a.3449.3449.0 00-.0221-.187c.197-.51.4241-1.001.6441-1.496 4.809-5.351 9.591-10.734 14.658-15.833a27.4792 27.4792.0 018.139-5.568c8.8039-3.929 17.7789-7.476 26.693-11.158 10.294-4.252 20.816-8.029 30.842-12.841 15.325-7.355 29.461-16.819 43.273-26.682q2.3667-1.7031 4.613-3.565a84.4959 84.4959.0 007.647-6.343c3.318-2.979 4.19-3.5109 6.341-6.815q.8741-1.035 1.745-2.071a13.3362 13.3362.0 003.731-4.178c.258-.433.543-.851.839-1.262q1.2479-1.49 2.495-2.982c1.0339-1.118 2.105-2.215 3.092-3.362 3.148-3.657 6.542-7.138 9.3429-11.045a23.867 23.867.0 003.166-7.723c.983-3.676 1.135-7.599 2.325-11.19 2.263-6.833 2.279-13.816 1.723-20.762z"/><path class="cls-3" d="M457.081 286.113 293.559 50.47a5.2254 5.2254.0 00-.277-1.181L275.287 17.43c-2.421-2.699-2.882-3.148-4.131.14a12.148 12.148.0 00-.772 5.831l-17.479 3.73a5.5034 5.5034.0 00-2.121-2.026c-4.27-1.846-7.454-1.217-9.371 1.686l-25.646-4.522 2.758-4.765c-1.297-.37-1.823-.716-2.215-.602a14.5191 14.5191.0 01-13.129-2.185c-2.925-2.028-7.13-1.063-9.59 1.402-2.154 2.158-1.985 4.525.699 6.09l3.278 1.919-46.591 11.531-65.086-3.74-3.416 3.86S70.635 50.755 73.188 58.5c.828 2.51-.156 6.018-1.856 9.612a3.4938 3.4938.0 00-.658-.002c-2.675.294-7.74 9.243-7.035 12.176-1.485 1.954-2.536 3.194-2.536 3.194s-7.958 10.809-5.362 14.851c.57.887 2.756 6.21 5.82 13.974-2.784 1.964-5.794 3.617-8.667 5.474-4.826 3.12-9.07 7.328-14.183 9.778-9.964 4.775-14.353 18.209-9.56 28.827 1.795 3.977 4.229 8.81 7.735 10.643 8.608 4.5 17.609 8.852 27.936 8.03a29.5761 29.5761.0 0116.021 2.903 11.4 11.4.0 005.769 1.143l.544-.047 7.308 19.359 1.362 71.66 28.651 63.112L47.213 351.04l3.961-4.187c-14.256 5.187-29.999 6.839-44.099 13.917 5.414 3.161 10.44 3.56 15.362.489 2.577-1.608 5.987-3.193 8.8-2.869a15.03 15.03.0 0010.79-2.729l90.601-2.847 6.169 11.916-54.898 37.568c-2.519-.274-17.896 5.336-33.132 11.522H33.947q.7525-.5685 1.461-1.192c1.199-1.062 1.903-2.682 2.828-4.053l-.866-1.376c-1.745.372-3.725.351-5.176 1.216a19.1242 19.1242.0 00-4.745 4.449 20.1524 20.1524.0 00-2.06 4.152c1.433-.156 3.037.043 4.26-.548.304-.147.601-.315.901-.475l-5.161 8.879h0a41.8021 41.8021.0 00-6.679 3.72c2.042 3.211 4.766 2.207 7.354 1.118l.344 2.4631c.136 1.83.355 3.61 1.36 4.574 2.101 2.015 7.44 2.0939 9.764.13 5.414-4.577 11.663-5.96 18.549-5.783a26.56 26.56.0 007.294-1.038c3.827-1.005 7.502-2.934 11.365-3.361a24.2826 24.2826.0 0011.315-4.415l16.433-10.964c1.353-.935 20.611-17.845 22.084-19.451l18.556-6.326 4.842-.598 3.857 8.495 18.085.642s22.038-.176 25.915.723 4.593.993 4.593.993c17.109 1.517 40.939-.951 40.939-.951l17.872 21.787c-.975 4.06-15.412 54.753-16.474 59.174l-8.317 10.854c-1.238 4.842 3.347 9.667 7.94 8.666a84.9121 84.9121.0 019.677-1.0069c.119-.543-.03-2.314.714-2.853 3.974-2.88 8.083-5.603 12.318-8.087 3.582-2.1011 3.969-8.3711.357-10.638l-.74-.45 30.053-55.5019 18.271-19.188a22.8777 22.8777.0 016.36-4.705c6.321-2.96 12.817-5.546 19.245-8.276 17.435-7.403 35.785-12.892 51.921-23.035 14.472-9.097 49.312-34.391 50.338-38.622l14.855-27.064a9.0151 9.0151.0 003.586-6.534 2.749 2.749.0 00-2.162-3.231c-.0306-.0062-.0612-.0119-.092-.017z"/><path class="cls-8" d="M229.918 374.824c1.845.092 3.609 1.825 5.411 2.798-1.278 1.865-2.152 4.626-3.913 5.42-4.573 2.063-9.655 2.974-14.307 4.896-3.762 1.554-9.957 5.961-13.456 8.09-.058.035 19.722 1.24 27.851-.837 11.872-3.033 26.554 6.68 23.154 21.129-1.18 5.016-1.46 9.956-2.28 14.901-.324 1.95-.183 4-.678 5.893-2.555 9.759-4.464 19.79-8.138 29.12-3.037 7.713-8.256 14.56-12.395 21.855-.557.982-1.042 2.772-.549 3.439 1.392 1.921 7.157 5.106 10.265 5.605 7.83-.481 20.184-6.974 23.74-7.226 2.175-.154 4.425.83 6.649 1.264.775.151 1.573.186 2.361.274a17.8938 17.8938.0 01-1.192-2.12l-3.235-8.355c-1.815-4.707-3.125-9.695-5.553-14.061-4.716-8.478-8.317-16.325-4.996-26.861 2.816-8.935 2.652-18.859 3.406-28.377.649-8.196-1.394-17.272 1.446-24.509 10.423-26.56 5.011-50.678-7.755-74.563-3.323-6.218-8.035-13.384-2.206-20.406 3.711-4.471 8.701-8.042 13.57-11.35 7.22-4.906 15.48-8.458 22.109-14.005 6.426-5.377 11.347-12.551 16.94-18.926 5.496-6.264 11.808-11.956 13.335-20.817.881-5.114 2.959-10.444-5.689-10.433a153.4706 153.4706.0 01-17.784-.905 41.1594 41.1594.0 01-10.651-3.04c-.895-.366-1.766-3.609-1.326-3.985 4.022-3.44 8.291-6.6 12.58-9.716 2.74-1.99 5.76-3.605 8.427-5.681 4.101-3.192 2.065-5.994-.793-8.762-2.893-2.801-5.313-7.785-8.478-8.264-7.118-1.078-14.569.005-21.883.273l-33.34 1.356a33.3582 33.3582.0 00-8.302 1.459c-2.528.8-5.166 3.6-7.164 3.11-2.289-.562-5.403-3.648-5.6-5.865-1.032-11.602-1.597-23.275-1.621-34.925-.014-6.736 5.001-10.731 10.308-14.049 8.366-5.229 12.473-16.982 6.878-24.187-4.91-6.323-11.681-11.436-18.369-16.002-2.035-1.389-6.514.868-9.889 1.34a18.8833 18.8833.0 01-3.994.046c-20.207-1.512-39.161 2.034-58.785 5.419a55.7838 55.7838.0 00-5.492 1.771c-2.46.734-5.984 1.38-6.907 3.172a211.0634 211.0634.0 00-9.241 21.475c-2.034 5.324-4.661 7.955-10.637 5.058-4.475-2.169-10.636 1.793-10.278 6.622.379 5.106-1.586 6.878-6.475 6.57-1.888-.119-4.341.056-5.605 1.162s-1.625 3.524-1.773 5.415c-.032.403 2.879 1.806 3.892 1.399 7.709-3.102 15.144-6.927 22.956-9.711 4.054-1.445 8.693-1.286 13.083-1.693.509-.047 1.113.924 1.673 1.423-.357.269-.682.689-1.079.777a21.7539 21.7539.0 01-2.585.285c.849.361 1.71.698 2.545 1.087 4.855 2.264 5.125 3.307 2.135 7.89a1.2262 1.2262.0 00.017 1.046c1.755 3.224 9.172 4.583 12.532 2.792 2.167-1.155 5.064-2.429 7.19-1.892 6.104 1.541 13.159 2.627 17.581 6.482 3.609 3.147 4.749 9.939 5.32 15.293.186 1.747-4.568 4.932-7.574 5.948-11.688 3.954-22.899 8.232-32.017 17.268-3.015 2.987-8.502 4.06-13.053 4.775-6.334.995-12.85.856-19.291 1.14a7.3445 7.3445.0 01-3.398-.382 30.2213 30.2213.0 01-4.146-2.89l.791 5.895q.1269.9909.195 1.988c.344 4.902 2.319 7.766 7.806 6.286 3.744-1.01 7.445-2.253 11.246-2.961 10.416-1.941 20.608-3.913 30.051-9.532 12.21-7.265 23.798-16.005 38.441-18.53 5.899-1.017 8.605.425 8.39 6.406-.118 3.273-1.066 6.575-.753 9.778.149 1.519 2.165 3.235 3.752 4.066.742.388 2.897-.785 3.69-1.809 9.301-12.008 11.794-25.945 9.985-40.539-.786-6.337-3.499-12.506-5.899-18.528-.698-1.75-3.34-2.726-5.091-4.056a28.5119 28.5119.0 00-1.664 4.755c-1.097 6.585-4.325 11.638-10.615 14.083-1.476.574-3.656-.663-5.512-1.067a10.9892 10.9892.0 002.286-1.867 2.5669 2.5669.0 00-.067-1.916c-4.788-.894-9.6-1.665-14.407-2.46-1.847-.306-4.413.045-5.422-1.043-6.35-6.853-12.233-14.135-18.513-21.055-4.063-4.477-.472-6.712 2.557-8.252 2.488-1.265 6.065-2.061 8.594-1.266 8.02 2.521 14.513-.342 20.739-4.637 1.406-.97 2.124-2.935 3.159-4.442-1.576-.99-3.088-2.684-4.739-2.833-4.463-.402-9.015.16-13.474-.267-2.652-.254-5.265-1.501-7.745-2.632-.795-.362-1.108-1.781-1.642-2.717a17.6063 17.6063.0 012.702-.649c3.443-.288 7.049.078 10.312-.823 10.954-3.025 21.56-7.562 33.358-3.308 5.758 2.076 13.039 1.562 14.208 9.797.343 2.418-.9 5.03-.739 7.509l2.999 40.409c.509 6.387 1.575 12.751 1.726 19.141.259 10.97.079 21.953-.07 32.929-.131 9.701-.979 19.151-11.575 23.808.528 1.166.958 3.288 1.598 3.353 7.057.718 14.147 1.117 21.228 1.602l.14-1.523c13.07 1.354 26.185 2.396 39.19 4.218 5.056.708 9.77 4.073 14.813 4.618 6.698.724 5.019 5.586 3.739 7.927-5.501 10.064-14.443 16.32-25.854 17.201-7.463.576-15.147-1.982-22.65-1.584-17.191.912-34.352 2.571-51.48 4.355-6.632.691-8.607 5.481-4.392 10.148 3.681 4.075 8.133 7.457 12.278 11.106 1.436 1.265 2.974 2.416 4.465 3.619-2.041.185-4.235.945-6.095.45-6.222-1.657-12.655-3.074-18.41-5.83-15.15-7.254-26.21-18.922-33.754-33.894-3.741-7.423-11.201-8.7-17.983-11.014-4.66-1.59-4.018 5.307-14.25.822-8.159-3.577-9.945-17.185-10.075-17.082l.816 41.874c-.46 2.913-.02 5.978.118 8.972.066 1.43.348 2.849.532 4.274a28.7817 28.7817.0 011.848-3.67 26.8588 26.8588.0 012.704-2.957 24.4045 24.4045.0 01.411 3.618c-.298 9.424-.944 18.846-.932 28.268.014 11.126.836 22.253.746 33.375-.027 3.337-2.354 6.602-2.814 10.01-.265 1.9671 3.152 3.5231 3.975 5.5321a8.76 8.76.0 01.201 5.016c-3.244 9.246-5.315 19.4459-10.751 27.265-10.779 15.5-27.239 23.815-44.969 29.575-3.669 1.192-7.132 3.022-10.688 4.56l-14.281 6.104c-1.131.447-2.591.062-3.9.06a23.1477 23.1477.0 013.34-2.396c6.039-2.914 12.248-5.501 18.135-8.688 1.887-1.021 2.972-3.525 4.424-5.35-2.317-1.107-4.602-3.06-6.958-3.149-5.411-.205-10.861.443-16.282.906-.649.055-1.213 1.107-1.817 1.697 3.8 2.64.488 3.604-1.254 4.379-3.363 1.494-6.911 2.57-10.367 3.858-1.604.598-3.173 1.286-4.758 1.934 1.122 1.403 5.416 2.792 6.696 4.053 4.393 3.879 6.024 7.361 10.19 11.463 6.605 6.505 14.668 5.809 22.394 3.262 4.802-2.564 9.555-3.672 14.501.218.976.768 3.669-.06 5.266-.805 2.396-1.118 4.362-3.231 6.8-4.164 3.505-1.342 7.94-1.069 10.81-3.12 12.156-8.687 23.889-17.966 35.738-27.079.664-.511 1.552-1.655 1.378-2.194-2.807-8.678 3.407-13.409 8.117-18.742 9.65-10.926 19.402-21.694 23.188-36.433a130.0531 130.0531.0 016.844-20.359c7.098-16.002 8.537-17.918 22.9-17.068 4.176.247 8.32 1.555 12.411 2.635 11.217 2.96 22.371 6.757 33.791.703a4.5788 4.5788.0 012.791.051 24.4471 24.4471.0 0118.982 19.948c1.03 6.974 3.41 14.469-4.137 19.7a2.14 2.14.0 01-1.935-.257l-8.645-6.906c-.418-.316-1.426.147-2.16.249a10.9425 10.9425.0 00.861 1.183c.943.998 1.922 1.961 2.887 2.938-1.792.594-3.547 1.511-5.383 1.725-6.668.779-13.61.405-20.005 2.12-22.298 5.98-37.292 22.271-52.176 38.511-1.604 1.662 5.417 3.066 6.193 2.169 6.972-8.06 16.177-8.8129 25.761-11.6489 14.218-4.2081 28.46-7.852 43.416-7.11zm-92.875-30.905c-.231.596-5.573.557-6.294-.594-6.083-9.706-2.326-26.521 6.965-34.002 1.323-1.066 1.977-2.964 2.94-4.476 1.233 3.233 2.559 6.434 3.644 9.716a11.62 11.62.0 01.054 3.479l1.49.461C142.998 327.009 140.278 335.564 137.043 343.919z"/><path class="cls-8" d="M81.992 78.817l-1.775 7.511c-.118.732.433 1.572.678 2.363 4.762-2.243 10.745-3.384 13.999-6.988 4.871-5.394 4.451-11.967 2.397-19.802-2.108-8.042 1.366-17.461 1.842-26.308.188-3.489-1.126-7.058-1.757-10.591-2.733 1.184-6.401 1.627-8.028 3.685-5.639 7.129-7.544 4.866-15.681 22.351-2.768 5.948-1.29 10.729 2.113 15.819 2.64 3.946 4.43 8.459 6.211 11.959z"/><path class="cls-8" d="M12.377 367.808c1.802.617 4.881 1.295 5.689.399 4.492-4.976 9.427-7.78 16.319-6.03a5.2719 5.2719.0 003.593-.455l23.934-14.243a4.6973 4.6973.0 00.96-1.135l-.567-.173a37.9622 37.9622.0 00-5.477.65Q31.985 353.774 7.201 360.938c-1.25.364-2.173 1.853-3.248 2.82a16.95 16.95.0 013.909 1.007c1.602.842 2.86 2.477 4.515 3.043z"/><path class="cls-8" d="M135.973 53.553c5.519-.501 4.316 5.9 7.467 7.053 5.918 2.166 12.138 3.529 18.27 5.073.972.245 2.147-.314 3.227-.502-.478-1.175-.619-2.935-1.487-3.435L138.946 48.07c-5.15.926-8.277 1.221-11.204 2.149-1.151.365-1.853 2.146-2.76 3.282a13.3246 13.3246.0 013.236-.636c2.594.131 5.213.919 7.754.689z"/><path class="cls-8" d="M113.798 88.47c4.58-3.105 9.357-5.996 13.543-9.573 1.884-1.61 2.561-4.633 3.786-7.015-2.329.348-4.805.306-6.961 1.116-6.555 2.463-12.991 5.243-19.453 7.946a3.3176 3.3176.0 00-1.018 1.105l7.312 6.887c1.513-.234 2.3-.132 2.792-.466z"/><path class="cls-8" d="M92.099 165.316q4.723-2.1379 9.457-4.253.767 1.2559 1.534 2.511l9.782-8.189c.293-.261-.428-2.314-.553-2.301-4.294.439-8.836.317-12.785 1.78-4.549 1.685-8.591 4.756-12.812 7.293-1.702 1.023-3.296 2.227-4.939 3.349a43.9885 43.9885.0 006.778 1.369c1.146.064 2.348-1.021 3.537-1.559z"/><path class="cls-8" d="M155.689 69.334c.157.563.146 1.47.495 1.64l26.457 12.715 7.05-3.043c-1.217-1.15-2.25-2.931-3.68-3.346-9.482-2.753-19.048-5.218-28.592-7.758a11.978 11.978.0 00-1.73-.207z"/><path class="cls-4" d="M200.401 178.741c1.123-1.264 2.845-2.365 3.246-3.827.865-3.152 1.051-6.491 1.64-10.634-.727-3.483-1.411-7.711-2.544-11.816-.628-2.274-3.073-2.641-3.901-.645-1.834 4.422-3.042 9.099-4.711 13.596-1.562 4.206 4.094 5.705 3.42 9.726-.17 1.013 1.841 2.391 2.85 3.602zm34.556 306.171c-.849 3.235.396 7.499 2.656 7.374 2.481-.137 5.636-1.437 7.113-3.317 2.358-3.003-1.648-3.742-3.128-5.345a12.0814 12.0814.0 01-.9-1.732l9.803-5.735c-5.045-1.061-6.276-.858-9.138 1.707l-5.702 5.531q-.2389.282-.496.547l-.209.97z"/><path class="cls-4" d="M345.385 166.797c-4.668-2.52-15.122-10.38-15.601-10.51-5.24-1.417-11.132 2.435-16.464 1.649-6.521-.962-13.382-2.161-19.74-1.107-9.713 1.611-19.113 5.093-28.66 7.727-7.006 1.933-13.901 3.591-21.43 2.196-5.244-.971-10.813-.187-15.79-.187.015-.303.514-1.652.046-2.276-3.578-4.77-2.543-8.807.567-13.602 3.688-5.686 6.275-12.075 13.153-15.095l-2.257-1.919c1.998-2.717 4.139-5.058 5.596-7.767 1.53-2.845 5.204-3.916 6.51-6.896 2.074-4.732 34.234-8.546 40.298-9.66 2.633-.484 10.786-16.41 10.851-20.426C309.039 49.64 255.45 4.847 255.303 4.84c-16.796-.744-13.094-1.542-32.263 5.83a4.6987 4.6987.0 00-.514 1.142l-25.132-.691c-1.973.0-7.092-.516-9.063-.574L153.928 9.419c-3.551-.174-7.058-1.82-10.582-1.811-5.296.013-10.139-.661-14.807-3.431-5.031-2.986-10.022-3.051-15.298.508-3.457 2.332-7.941 3.089-11.835 4.842-3.391 1.526-7.084 2.829-7.937 7.325-1.01 5.327-3.106 10.059-7.492 13.674-1.55 1.277-2.352 3.461-3.491 5.236l.034.013 7.767-.981c-.12 2.401-.116 4.816-.389 7.2-.485 4.231-1.483 8.432-1.601 12.665-.079 2.861 1.115 5.736 1.498 8.637a80.6958 80.6958.0 01.859 10.176c.014 3.297-1.89 5.332-5.599 5.928-1.088-6.643-4.346-12.167-8.808-17.252a10.1361 10.1361.0 01-2.653-8.57c.309-1.521 1.205-4.871 1.205-5.207-.646 1.449-2.016 3.098-2.551 4.623-2.137 6.086-1.278 8.862 1.078 13.24.833 1.548-2.137 3.373-11.929 16.286a14.5411 14.5411.0 00-3.248 5.58c.574.075 1.53-2.174 3.476-3.295l4.787 7.909-7.167 3.628a5.44 5.44.0 01-2.642.55c-.755-.179-1.329-.605-1.138-2.505-1.234 1.9-.737 6.888-.774 10.042 6.314-2.6 22.651 59.952 22.971 61.025 1.909 4.976 11.733 8.018 16.423 5.368 4.879-2.757 10.443-4.625 14.673-8.131 6.42-5.322 13.627-7.065 21.489-7.382 6.895-.278 13.938-1.209 20.659-.178 5.582.856 10.17 7.514 9.857 7.667-8.308 4.043-10.444 7.823-18.934 11.447-4.814 2.054-9.599-.67-14.513 1.192-2.773 1.051-6.639 5.9-5.825 10.202.076.401-1.143 1.432-1.845 1.522a50.4064 50.4064.0 01-5.977.212c-3.24.03-5.809-2.178-8.992-1.745-4.89.664-10.154 2.552-14.322-.669-1.085-.839-5.239-2.248-5.412-1.889a53.3946 53.3946.0 013.996 5.906c1.583 2.877 3.667 5.769 4.127 8.918l1.603 11.288c.815.768.625-5.105 2.178-6.318 2.936-1.638 5.848-1.537 8.87-1.924 2.272-.291 4.668-1.024 6.82-.6 11.407 2.246 20.949-1.615 29.176-8.994a53.547 53.547.0 0120.628-11.367c9.217-2.804 16.426-8.025 21.215-16.655-6.009-2.127-5.806-2.304-10.441-7.637a18.7615 18.7615.0 00-7.57-5.239c-7.463-2.621-15.177-4.517-22.722-6.921-4.795-1.528-5.348-2.59-5.127-7.578s.641-9.982-2.422-14.436c-1.95-2.835-2.923-5.77 1.079-9.297l-5.509-.616a6.5536 6.5536.0 01.245-1.393c2.602-6.546 5.189-8.385 11.599-6.023a95.82 95.82.0 0011.881 3.438c4.368.993 8.639.66 12.478-2.46-7.868-1.117-16.361-.306-21.796-8.026 3.206-3.911 7.127-4.332 11.444-3.885a21.619 21.619.0 006.72-.091 82.2555 82.2555.0 0010.36-3.18c4.124-1.493 8.208-1.481 12.553-1.043 7.411.748 15.105-.174 22.284 1.405 7.1609 1.575 15.922 2.123 17.701 12.495.725 4.229-.262 10.265-4.637 12.697-4.954 2.754-6.487 7.057-6.44 12.002q.195 20.43 1.022 40.852c.21 5.257 1.481 10.472 1.689 15.729.15 3.799 2.209 5.711 5.286 6.121a6.724 6.724.0 007.307-3.813c1.487-3.204 3.522-3.292 6.868-2.678a94.1285 94.1285.0 0016.799 1.123c6.288.008 12.5739-.638 18.866-.76 2.762-.054 4.982 2.972 5.038 5.706a7.3321 7.3321.0 001.294 3.747c2.42 3.546 1.787 6.729-2.162 8.304-4.29 1.711-8.732 3.039-13.092 4.579l-26.462 9.478c-.879.325-1.408 1.597-2.262 2.626 3.483 2.498 7.058 1.207 10.401 1.429 4.94.328 10.094-.292 14.792.913a75.0115 75.0115.0 0027.158 1.884c8.224-.925 16.022-1.104 23.553 2.412.42 6.59-1.3211 12.479-5.82 17.356-2.436 2.639-5.15 5.02-7.6521 7.6-6.927 7.141-13.431 14.691-22.8009 19.009-5.524 2.546-10.623 5.999-16.0361 8.808s-10.74 5.228-17.399 4.676c-7.188-.597-14.641-2.016-22.397.944 1.508 1.108 2.724 1.901 3.826 2.829 4.248 3.58 9.068 6.396 12.205 11.365 3.143 4.978 7.108 9.447 10.826 14.048 2.6391 3.266 6.177 6.017 8.0311 9.652a43.0651 43.0651.0 014.8259 14.92c.7861 8.088.44 16.317.141 24.47-.253 6.89-1.786 13.7951-7.026 18.547-2.583 2.342-3.158 3.721-.631 6.794a48.1449 48.1449.0 01-6.373 2.141c-6.325 1.143-4.198 3.773-10.485 5.084-2.496.521-7.107 1.344-10.021 2.722l13.824 2.922c4.105.808 7.798 2.536 9.736 6.312 5.0851 9.909 5.144 20.58 3.13 31.13-1.2641 6.62-4.104 12.927-6.0031 19.443-.636 2.1831-.242 4.781-.4839 7.078l2.187-5.911c3.072 4.923-1.36 11.964 5.7989 15.912l2.524-3.912c3.092 1.658 6.389 3.25 9.4991 5.149 2.724 1.664 2.001 7.685-.757 9.329-2.805 1.673-5.368 3.75-8.053 5.627a33.0962 33.0962.0 00-3.223 2.158 31.1135 31.1135.0 00-2.735 3.164c-2.229.229-5.315.14-8.141.957-2.608.753-4.249.913-5.655-1.849-1.011-1.984-3.152-1.908-3.365-5.078-.128-2.106 1.19-3.298 2.34-4.644q.257-.265.496-.546a53.7689 53.7689.0 003.59-5.1c.9909-1.793.707-4.153 1.4839-6.064-3.7469 4.855-6.643 10.034-10.324 14.939-1.468 1.956-1.819 3.91.814 5.413a6.1958 6.1958.0 011.672 1.825c3.242 4.453 5.105 4.901 10.454 3.393a8.5114 8.5114.0 015.465.483c3.413 1.597 10.951.234 13.225-2.851 1.951-2.647 4.518-4.203 7.746-3.083 5.637 1.956 10.42-.727 15.332-2.507 1.186-.43 2.423-2.883 2.496-4.956-3.296.559-5.867 3.422-8.473 3.009-3.517-.558-5.297-6.022-3.546-10.454 1.207-3.056 1.4591-5.774-.158-8.674a13.9957 13.9957.0 01-1.147-3.273c-1.379-5.258-3.577-10.424-2.215-16.043.896-3.695 2.2811-7.306 2.817-11.045a161.0854 161.0854.0 001.43-16.655c.245-6.406-.451-12.889.254-19.227.762-6.856 3.397-13.534 3.879-20.384a82.1693 82.1693.0 014.447-20.567c2.396-7.132 7.594-13.094 8.526-20.892.618-5.176.385-10.917-3.716-14.7-2.246-2.072-4.746-2.928-6.767-5.196-3.067-3.442-6.281-6.894-8.57-10.842-1.836-3.166-3.584-7.189-3.259-10.632.655-6.937 6.545-11.262 11.958-14.756 6.061-3.928 10.173-10.25 14.012-16.368 3.469-5.37 6.575-10.994 10.318-16.161 2.318-3.2 5.408-5.886 8.356-8.578 9.094-8.303 13.525-19.005 15.93-30.723.271-1.32-.432-2.933-.957-4.305-2.009-5.25-6.531-5.782-11.317-6.068-2.487-.148 6.127-13.002 13.175-17.864a131.5851 131.5851.0 0013.967-11.079c2.871-2.622 2.114-4.839-1.175-6.615zM73.426 76.333c-2.106-.897-2.394-3.747-.925-3.203C74.041 73.783 76.533 77.311 73.426 76.333zm72.851 2.225c1.734.372-1.925 3.638-5.425 2.809-1.304-.309 1.994-3.546 5.426-2.809zM156.94 392.085a14.2869 14.2869.0 012.508-3.344c9.464-9.717 21.63-15.093 33.638-20.643 5.265-2.433 10.609-4.565 14.826-8.754a7.1909 7.1909.0 013.373-2.018c5.13-1.003 10.394-2.749 15.446-2.316 4.66.399 11.393-3.084 13.367 4.813 3.933-1.351 7.223-2.876 7.549-7.23.446-5.946 1.302-11.928 1.021-17.848-.799-16.791-13.246-28.375-28.378-30.148-9.722-1.139-19.273-2.317-28.619-5.485-5.246-1.778-11.005-2.881-16.541-.616-2.356.964-4.307 3.207-6.695 3.748-6.035 1.365-9.579 5.545-11.742 10.551a218.9369 218.9369.0 00-10.363 27.844c-3.541 12.725-9.75 23.266-20.888 31.5709-2.256-3.539-1.541-9.01-7.235-10.161l-5.969 15.592c-1.282 3.175-3.344 6.1141-4.149 9.383-1.26 5.116-4.425 8.067-9.832 10.729l5.395-4.944-.526-.974-7.173 2.9591c-.112-.245-.403-.572-.344-.814a9.34 9.34.0 01.798-2.323c5.569-10.07 7.011-21.273 8.344-32.37.993-8.266.745-16.68 1.052-25.028l1.12-26.841c.093-1.421 1.721-3.7341 2.89-3.9031 3.133-.452 4.068-2.633 4.491-4.86a107.1216 107.1216.0 001.461-12.776c.29-4.327 2.309-6.464 6.624-5.7171a96.9677 96.9677.0 0113.883 3.4111c5.01 1.657 9.687 2.626 14.125-1.5831-.801-1.58-1.294-3.2659-2.333-4.4859-5.287-6.202-11.015-12.116-18.497-15.507-9.213-4.175-14.387-1.868-24.973-.858-4.016.383-8.426-5.649-9.007-3.732-.167.635.31 12.74.015 13.418L96.667 330c.091 4.744-1.451 6.534-6.115 7.447-2.771.543-5.61.809-8.332 1.526-7.218 1.902-14.325 4.262-21.596 5.916-8.229 1.8729-16.709 2.71-24.857 4.849-9.308 2.443-18.379 5.793-27.526 8.831a10.064 10.064.0 00-3.429 1.993c-2.251 2.007-1.778 3.498.994 4.495a18.6554 18.6554.0 014.614 2.569c3.201 2.348 7.736 2.5 10.324-.275a10.0909 10.0909.0 0110.924-2.971c4.78 1.4769 8.381-.136 11.984-2.813A17.6245 17.6245.0 0147.874 359L72.2 350.399c4.998-1.608 8.003-.306 10.793 3.942l-10.898 4.874c1.454.2909 2.015.601 2.362.4429 7.208-3.294 14.82-4.484 22.678-5.049 4.978-.358 6.481.475 4.774 5.091-2.464 6.666-5.515 13.121-8.481 19.59a19.3113 19.3113.0 01-3.068 3.917c-7.267 8.681-18.21 9.535-27.943 11.864-13.363 3.198-27.261 4.112-40.389 8.694-1.991.695-4.256.602-6.393.88l-5.185.698 5.59 5.8681c-3.978 4.2919-9.815 3.527-14.539 5.4979v3c5.647 5.341 12.965 8.884 17.079 15.8941a5.4589 5.4589.0 001.932 1.539c7.82 4.797 16.286 4.601 24.587 2.207a21.0265 21.0265.0 019.602-.78c5.629.8909 11.566 1.419 16.463-2.0021 6.1-4.26 12.56-8.846 18.367-13.525-5.958 3.599-13.592 3.612-20.237 4.556a11.2975 11.2975.0 00-4.18 1.509c-3.431 2.094-7.122 2.486-11.016 2.306-6.884-.3169-13.062 1.425-18.153 6.37-2.345 2.2781-5.122 1.992-7.907.797-2.35-1.008-2.442-2.7959-1.92-4.936 8.038 2.022 13.285.583 15.984-4.032a25.7514 25.7514.0 00-2.978-4.149 3.2743 3.2743.0 00-2.871-.415c-3.686 1.47-7.251 3.241-10.912 4.779-2.191.92-4.515 2.192-7.189-.99l63.575-26.308.332.77q-1.802 2.356-3.605 4.712l.603.859 3.003-.805c1.554-.412 3.152-1.29 4.655-1.151 6.432.596 12.837 1.492 19.44 2.302l-4.633 3.781c-2.411 1.983-4.934 4.537-7.337 6.529 4.921-3.323 10.183-6.928 14.822-10.607 5.718-4.534 11.047-9.565 16.469-14.465a18.34 18.34.0 003.485-4.121c2.78-4.68 5.293-9.517 8.061-14.204 5.89-9.974 11.451-20.014 14.831-31.263a178.4245 178.4245.0 019.794-24.358c3.884-8.255 9.299-9.45 17.557-5.553 7.383 3.484 12.324 9.449 16.467 16.1 3.24 5.202 6.85 9.737 12.748 12.044a32.924 32.924.0 014.1 2.284c-5.511 1.75-10.993 2.968-16.027 5.199-10.406 4.612-20.854 9.293-28.368 18.473-4.195 5.125-8.75 9.956-12.923 15.098-2.422 2.984-4.148 5.52-6.918 9.551l11.371.157c-.007-.12-2.233-.232-2.232-.353a1.002 1.002.0 01-.537-1.311.9826.9826.0 01.054-.11zM42.018 355.781a14.358 14.358.0 01-7.868 2.464 25.2259 25.2259.0 00-13.264 3.41c-3.626 2.172-7.113 3.142-11.067.957a8.5182 8.5182.0 00-2.909-.42l-.164-1.036c13.775-6.1311 28.478-9.35 42.98-13.2-2.536 2.655-4.773 5.727-7.708 7.8241z"/><path class="cls-6" d="M5.008 408.293l7.216 2.164-.106 1.42L1.5 414.709v2c5.375-1.094 11.331-.923 15.285-6.006C11.064 403.154 9.415 404.744 5.008 408.293zM108.415 28.394c-3.12 4.719-5.354 10.083-7.509 15.357-1.176 2.878.948 7.066 3.964 9.173l27.805-16.059c.112-.521.007-1.748.508-2.091 3.316-2.269 15.804-4.09 16.588-2.575.049.094-.081.28-.159.523l-2 1.665 2.172.984-4.599 3.588 9.219 4.912a4.149 4.149.0 002.227.414 13.0832 13.0832.0 0010.712-8.233c1.624-4.211 4.702-3.937 7.377-4.332 1.506-.222 4.083 1.622 4.947 3.207 2.686 4.926 4.785 10.172 7.467 16.078H170l-1.16 2.439c2.984 2.577 5.65 6.217 10.123 2.543 1.085 3.387-1.66 8.416 5.243 8.117q-.21.615-.421 1.23l-15.777 3.845a16.055 16.055.0 002.7 1.77 41.51 41.51.0 0019.03 1.687c4.577-.637 9.194-5.211 8.363-8.437-1.209-4.69 2.057-4.544 4.488-5.213 3.236-.89 4.849 1.106 5.676 3.989.344 1.2.798 2.368 1.202 3.551l.91-.258.609-6.374 5.774.674-2.65-7.71.996-.925c3.341 2.813 7.086 5.272 9.933 8.518 4.607 5.252 5.375 11.982 5.193 18.674-.099 3.631 1.029 5.881 4.323 7.482 3.097 1.505 6.378 3.099 8.768 5.47a19.3094 19.3094.0 009.652 5.17c3.579.855 7.027 2.257 10.307 3.343-.028 4.129-3.149 5.295-5.657 5.7-4.261.688-6.287 3.434-7.916 6.681-1.15 2.292-1.485 4.978-2.483 7.363-1.772 4.231-3.769 8.357-7.44 11.386-1.684 1.389-2.187 2.757 1.037 3.979-9.636 2.553-9.399 13.194-15.948 18.204a1.471 1.471.0 00-.326 1.327c1.246 3.31-.723 7.715 3.416 9.78l-1.757 3.266c4.884-.558 8.955-2.956 13.847-1.524 7.954 2.328 16.008.96 23.84-1.112 5.68-1.503 11.282-3.363 16.813-5.359 14.789-5.336 29.415-3.526 44.069.566 3.275.914 6.702 1.271 10.009 2.085a58.2119 58.2119.0 017.028 2.324c.792.306 1.312 1.349 2.103 1.615 4.448 1.494 5.216 3.691 1.7 6.843a121.0922 121.0922.0 01-13.214 10.26c-7.305 4.915-14.984 9.293-21.829 16.727 2.969.843 5.293 1.64 7.68 2.142 2.397.504 4.88.593 7.28 1.088 2.585.533 6.449 5.287 5.774 7.561a180.5148 180.5148.0 01-6.383 18.935c-3.16 7.489-9.6 12.513-15.0791 18.239-3.9259 4.103-7.7019 8.186-10.0969 13.658a46.1074 46.1074.0 01-12.073 16.544c-2.124 1.832-4.864 2.861-6.777 4.411-3.7131 3.009-6.4671 7.378-9.0621 11.531-1.8559 2.97-1.359 6.223-.402 9.877 1.48 5.65 5.66 9.039 8.754 13.297a17.6283 17.6283.0 005.841 5.605c2.792 1.531 4.9071 5.244 6.159 8.455 3.346 8.579-1.391 15.751-4.826 23.142a68.416 68.416.0 00-4.957 13.223c-2.282 9.904-4.35 19.889-5.803 29.942-1.024 7.087-1.889 14.467-1.002 21.486a53.1306 53.1306.0 01-1.837 20.83c-1.997 7.497-3.724 14.806-.644 22.659 1.975 5.037 4.921 10.488 1.269 16.247-.447.705-.175 1.985.009 2.952.824 4.335 3.401 6.487 7.428 6.325 3.513-.141 6.233-3.3 6.86-7.097 1.238-7.508 2.784-14.966 4.244-22.437a7.1144 7.1144.0 01.909-2.319c2.472-4.01 2.633-8.421 2.811-12.982.366-9.367-1.666-18.776.493-28.105.047-.2041-.191-.474-.296-.7131l-1.238-1.153-.864 3.66-1.04-.562c.05-.974-.256-2.185.209-2.883a122.8343 122.8343.0 017.926-11.107c4.543-5.408 9.575-10.41 11.803-17.392a41.6639 41.6639.0 018.683-15.829c2.143-2.37 3.045-6.55 3.149-9.953.391-12.709-.516-25.324-4.435-37.587-2.713-8.488-.931-16.072 6.23-21.633 5.946-4.618 12.31-8.707 18.592-12.874a4.153 4.153.0 013.526-.31c3.47 1.801 5.248 7.359 4.442 11.71a5.5911 5.5911.0 001.285 3.72c5.16 6.963 12.208 8.051 19.685 5.056 7.815-3.129 15.332-7.027 22.881-10.785 6.284-3.128 12.166-7.086 19.5321-7.579 1.6659-.111 3.229-1.776 4.8389-2.725q-.1379-.868-.275-1.736l13.9061 2.729c2.389.412 5.43 1.486 7.1529.49 5.188-3 10.089-1.187 15.131-.58.106 5.75-2.225 9.337-7.052 10.599-1.461.382-3.169-.193-4.638.174-7.535 1.883-14.924 4.146-22.334-.809-3.397-2.271-6.526-1.657-8.706 1.516-3.523 5.127-6.616 10.554-9.771 15.925-.5409.922-1.061 2.643-.605 3.229 2.179 2.804-.307 3.229-1.849 4.147-.996.593-2.059 1.075-2.834 1.474 9.615 3.08 19.313 5.773 27.258-.921 2.219.936 3.32 1.656 4.508 1.858 5.742.973 10.308-.527 13.501-5.892 1.674-2.813 4.257-5.086 6.426-7.605 3.148-3.657 6.542-7.138 9.343-11.045a23.8714 23.8714.0 003.166-7.723c.983-3.676 1.135-7.599 2.325-11.19 2.263-6.833 2.279-13.817 1.724-20.762-.582-7.281-1.813-14.521-3.041-21.732-.332-1.953-1.677-3.735-2.865-6.246-.493 2.763-.193 5.168-1.245 6.221-3.262 3.265-7.323 5.49-9.383 10.226-.654 1.505-4.688 2.951-7.168 3.859-5.913 2.166-12.06 4.82-18.716 2.123-1.712-6.719.377-12.822 4.085-18.457 1.878-2.854 4.697-5.143 6.296-8.115a116.67 116.67.0 006.225-14.311c.954-2.54.629-5.667 1.916-7.945 1.463-2.59 1.083-4.557-.121-6.782-2.609-4.823-5.423-9.543-7.827-14.465-4.665-9.549-8.412-19.542-15.166-28-15.765-19.74-35.545-34.498-57.528-46.45-14.56-7.915-28.553-16.489-39.676-29.029a35.3955 35.3955.0 01-4.821-6.313 115.1885 115.1885.0 00-23.177-29.795c-3.1091-2.876-5.328-6.725-7.892-10.175-1.081-1.454-2.61-2.996-3.606-4.514-.305.191 2.421 7.448 4.056 10.77 3.111 6.321 5.315 12.519 1.868 19.589-1.044 2.14-.532 5.038-.644 6.462-6.481 6.815-13.905 6.416-21.894 5.005-8.5411-1.508-14.025-7.098-20.58-12.433 1.128-.255 1.483-.457 1.76-.379l7.953 2.341c5.68 1.71 7.884.833 11.284-3.806 3.4769-4.744 5.2109-9.95 6.433-15.715a15.63 15.63.0 00-2.249-12.566 22.0868 22.0868.0 01-2.638-5.772c-1.208-4.317 1.256-7.95 5.072-8.287-5.915-8.717-19.406-13.526-31.878-10.862 3.913 1.22 7.895 2.122 11.588 3.701 4.4769 1.914 9.1889 4.306 9.278 10.027.081 5.223 2.082 9.448 4.58 13.788 3.58 6.221.8439 12.579-6.107 14.784a65.6243 65.6243.0 01-6.635 1.4c-3.621-8.879 4.994-10.933 8.062-15.883l-1.829.67c.397-2.076 1.3559-4.063.988-5.763a72.2238 72.2238.0 00-3.857-12.648c-.896-2.139-2.681-4.755-4.656-5.433-6.042-2.073-12.16-2.208-17.904 1.708-3.924 2.676-8.201 4.834-13.122 7.689 3.918-7.847 10.549-11.008 16.932-14.725-2.942.304-5.757 1.108-8.622 1.647-4.538.854-9.095 1.65-13.672 2.258L192.2 11.801c-1.236.168-2.338 1.196-3.551 1.711a8.15 8.15.0 01-3.245 1.017c-5.483-.26-9.895 2.129-13.839 5.51-1.605 1.376-2.768 1.412-4.823.811-7.262-2.125-14.645-3.672-22.344-3.328a59.5906 59.5906.0 01-10.312-.896c-5.286-.695-9.01 1.002-11.401 5.936-.857 1.768-1.336 2.568-3.576 2.148-4.129-.775-8.446.281-10.695 3.683zM406.21 174.473c2.93 2.681 2.82 5.253.999 7.714a149.0417 149.0417.0 01-10.644 13.531c-6.584 7.025-9.631 15.808-13.315 24.348a90.4114 90.4114.0 01-6.616 12.585c-1.13 1.781-3.427 2.823-5.098 4.125-4.636-3.44-4.35-7.615-3.42-12.001 2.226-10.5 6.495-19.918 14.417-27.405l15.0329-14.09c2.9021-2.78 5.638-5.732 8.6441-8.807zM385.633 155.11l-14.791 14.411c-1.749 1.615-4.075 2.605-6.137 3.88q-.306-.6641-.612-1.327c7.312-5.501 13.279-12.737 21.54-16.963zm-88.15-57.118-9.561 10.249C288.593 101.391 289.918 99.999 297.483 97.992zM267.065 52.038c-.16 3.243-1.401 5.929-4.354 6.673a8.7891 8.7891.0 01-9.296-2.934zm-15.99-25.136a3.6018 3.6018.0 011.383 2.962 3.909 3.909.0 01-2.403 2.567c-1.719.325-3.586-.118-5.39-.261l-5.029-.441c.828-5.918 6.187-8.412 11.439-4.828zm-43.264 18.67c-2.234 2.266-4.45.749-6.179-.553a17.1442 17.1442.0 01-7.025-10.893 24.6207 24.6207.0 00-.832-2.797 8.282 8.282.0 019.062 2.504c1.466 1.572 3.081 3.005 4.558 4.567C209.437 40.56 209.621 43.737 207.811 45.572zm20.96-16.067c.626-.155 2.154 1.24 2.437 2.169.934 3.076-1.058 5.437-3.016 7.238-.704.648-3.168-.248-4.633-.889a57.669 57.669.0 01-5.954-3.483C219.954 30.65 224.635 30.53 228.771 29.505zM192.598 18.079c1.797-2.615 6.424-4.208 9.076-2.329 4.807 3.406 9.803 3.937 15.92 1.967l-5.665 9.662c-1.577 2.535-3.932 2.912-6.443 1.641-4.077-2.064-8.055-4.321-12.091-6.466-2.208-1.173-2.021-2.693-.797-4.475zM160.326 166.897c2.895-1.505 5.516-3.536 8.499-5.484-1.108-.968-1.486-1.58-1.845-1.568-5.204.16-9.531-1.896-13.716-4.792a9.3679 9.3679.0 00-5.637-1.382c-13.22.992-27.191-1.231-38.495 8.514-.443.382-1.317.215-1.886.507-3.8 1.95-7.791 3.633-11.3 6.019-4.9 3.332-10.778 3.42-15.193-.435-3.698-3.229-3.745-3.538-1.037-7.683a21.3727 21.3727.0 012.797-4.046c2.766-2.603 2.369-5.337 1.356-8.597-.862-2.776-.84-5.827-1.22-8.754-.404-3.11 1.442-4.02 4.071-4.297a38.1276 38.1276.0 006.759-1.015c1.18-.347 3.034-1.813 2.914-2.469-.253-1.383-1.504-2.658-2.545-3.795a6.9248 6.9248.0 00-2.091-1.179l14.679-6.944c1.184-.556 2.461-1.581 3.597-1.46 5.179.55 8.765-.916 9.737-6.512a1.6057 1.6057.0 01.544-.818c3.605-3.163 5.316-7.249 6.485-11.839 1.117-4.384 3.877-6.348 8.502-5.85 4.97.535 9.58.888 14.191-1.835 1.615-.954 4.43-.777 6.36-.123 5.305 1.798 10.051.289 14.776-1.704a34.3993 34.3993.0 0112.926-2.584 199.8462 199.8462.0 0020.103-1.929c3.208-.399 4.345-2.818 4.826-5.926-2.518.626-4.61 1.269-6.749 1.644-2.256.396-4.593.361-6.832.822-8.628 1.778-16.954 1.267-24.829-2.982-7.85-4.235-15.738-8.019-25.025-8.21-3.418-.07-6.609.456-8.288 2.829-3.595 5.08-8.887 7.514-13.606 11.005-5.5 4.068-10.571 7.082-17.636 6.563-5.836-.429-11.736-.035-17.606.067a9.3494 9.3494.0 00-2.854.642l-27.55 9.868c-1.359.518-2.342 2.424-3.16 3.879-1.767 3.142-2.875 6.752-5.057 9.541-3.061 3.911-6.866 7.238-10.327 10.839l-8.186 8.496 5.725-3.834c4.552-2.784 9.179-5.456 13.627-8.397 2.532-1.674 4.747-3.821 7.15-5.698q3.3909-2.649 6.881-5.171c1.844-1.335 3.6-2.973 5.667-3.782a122.9923 122.9923.0 0112.586-3.999A57.5679 57.5679.0 0192.491 101c3.251-.278 4.125 1.512 2.866 4.617-2.534 6.249-7.536 9.692-13.535 11.97-5.711 2.169-7.131 4.953-5.637 10.997.29 1.171.523 2.899-.094 3.652-2.069 2.524-1.539 4.92-.349 7.439a15.792 15.792.0 01.346 13.373c-1.016 2.403-2.654 4.537-3.783 6.901-1.83 3.833-1.327 7.433 1.843 9.73a27.4982 27.4982.0 008.28 4.111 56.1047 56.1047.0 0011.58 1.998c8.444.605 16.224-.602 22.147-7.837 3.396-4.149 7.076-8.438 13.167-8.929 1.956-.157 3.88-.72 5.835-.867 7.686-.577 15.512-1.523 20.74 5.712-4.9 4.559-10.924 5.147-17.115 4.674a22.1125 22.1125.0 00-14.554 3.742c-6.004 4.123-12.837 4.528-19.661 5.315-7.316.844-14.627.801-22.36 1.759 2.965 6.174 8.454 6.319 12.853 8.361 1.957.909 4.675.309 7.037.184 2.933-.155 6.011-1.242 8.743-.64a20.5469 20.5469.0 0012.075-.688c-1.66-3.181-1.044-4.979 3.085-6.742 4.346-1.856 8.785-3.969 13.38-4.656 7.729-1.156 14.268-4.81 20.945-8.281zm-21.457-88.95c2-1 10.685-.463 12.685.537 1 4-7.213 6.638-12.685 5.463C136.869 82.947 136.869 79.947 138.869 77.947zM179.772 359.46c10.609-5.647 21.041-12.14 33.637-12.907l.165-1.092a12.6007 12.6007.0 00-2.283-1.539c-7.186-2.848-12.038-7.79-16.018-14.562-4.157-7.072-10.079-13.028-18.294-15.996-4.453-1.609-10.604-1.208-12.387 1.783-3.346 5.614-7.16 11.2049-9.126 17.3349-5.276 16.451-11.291 32.451-21.03 46.87-2.3 3.405-3.962 8.007-6.466 12.4281 3.854-2.1741 10.072 1.419 11.897 1.652a68.3213 68.3213.0 009.142.273c.188.001.369-.502.571-.757l13.475-16.976c4.943-6.151 9.728-12.792 16.716-16.512zm-34.609 24.825a20.9941 20.9941.0 01-2.01 1.5c-.648-4.497-.902-4.654 3.508-11.787 7-11.323 11.037-23.675 14.071-36.511 1.196-5.06 2.654-10.125 6.652-14.0669 3.692-3.641 6.947-4.8941 11.195-2.316 4.925 2.989 9.479 6.6589 11.854 12.216a28.0056 28.0056.0 011.091 4.8909l-5.508.7991 6.378 3.372c3.712 1.998 4.017 3.904.421 5.921-5.854 3.2829-11.994 6.053-17.982 9.1019a18.9016 18.9016.0 00-4.484 2.78l-25.186 24.1zM71.369 350.132c-6.828 2.258-13.621 4.642-20.333 7.22a54.5446 54.5446.0 00-8.173 4.293c-3.45 2.056-6.615 3.698-11.062 2.228-5.431-1.796-9.619-.49-12.76 4.766 1.045.018 2.934.115 3.776-.504 3.788-3.27 6.026-3.249 9.407-.39 6.672-1.617 12.233-3.14 17.87-4.286 6.645-1.351 13.399-2.176 20.024-3.608a41.7493 41.7493.0 0013.735-5.707c-3.669-4.737-6.983-5.831-12.483-4.012zM70.83 91.798c2.384-1.589 3.727-3.847 5.902-5.667 3.682-3.082 3.899-7.468 2.271-11.337-1.926-4.577-4.813-8.99-7.734-13.925-.24 4.245-1.91 6.136-2.884 8.813 4.269-1.175 6.008.817 7.136 3.838 1.711 4.584 1.304 8.935-2.048 12.902-1.487 1.76-2.402 2.138-4.23.457-2.148-1.974-4.644-3.569-6.99-5.328l-.858.969C64.573 85.762 68.943 89.873 70.83 91.798zM104.737 9.209c4.745-2.038 9.348-4.406 14.94-7.079C102.842-.574 96.053 5.744 96.574 14.34c1.2-4.642 5.194-3.855 8.163-5.131zM229.701 76.46c-3.219-2.253-2.341-8.339-7.1-8.35l-5.948 5.085C221.293 78.491 225.723 79.692 229.701 76.46zm31.294 420.021c5.885.497 8.308.072 12.739-3.445C265.91 490.573 262.573 491.265 260.995 496.481z"/><path class="cls-9" d="M1.798 412.618v3c5.076-.507 10.325-.561 14.112-4.856l-6.543-4.974z"/><path class="cls-9" d="M323.25 195.932l.756 1.75 9.209.894 12.242.772c.811.074 2.266 1.122 2.197 1.496-.459 2.502 2.218 6.143-2.515 7.294-.635.154-1.411 2.005-1.226 2.88 1.202 5.683-.52 9.709-5.949 12.142-.928.416-1.5 1.687-2.169 2.611-4.505 6.216-8.776 12.618-13.56 18.61-3.128 3.918-7.722 6.775-6.775 12.894.185 1.192-.959 2.709-1.741 3.912L299.68 282.515l.92 1.074 10.27-5.697a32.6853 32.6853.0 01-1.01 5.273 39.08 39.08.0 01-3.125 6.673c-2.086 3.515-1.935 6.709-.759 10.718 1.441 4.914 1.228 10.326 1.588 15.533.062.892-.327 2.355-.951 2.667-4.42 2.213-2.565 5.689-2.215 9.043 1.13 10.825.654 21.149-7.099 30.123a38.3124 38.3124.0 00-7.043 13.151 226.334 226.334.0 00-7.21 27.858c-1.047 5.673-.275 11.682-.321 17.54-.064 8.255.9 16.687-.478 24.716-1.421 8.282-3.169 16.103-1.051 24.608 1.551 6.23 1.425 12.878 2.079 19.673 3.687.279 4.973-2.072 5.402-5.872.522-4.621 1.393-9.215 2.357-13.77 1.902-8.99 6.967-17.335 5.377-27.039-.663-4.044-1.788-8.155-1.575-12.176.854-16.141 11.327-26.054 23.881-33.802 6.4281-3.968 14.007-6.08 21.0881-8.979 12.457-5.101 25.329-9.378 37.291-15.451 13.022-6.611 25.206-14.871 37.754-22.415 8.88-5.339 17.298-11.277 24.044-19.259l21.338-25.695a15.4912 15.4912.0 003.318-6.55c2.445-13.465 6.498-26.466 3.973-40.841-2.07-11.785-5.222-22.503-11.895-32.287a53.7159 53.7159.0 01-2.78-4.736l-18.611-34.475-3.509 2.08c-1.079-2.378-2.529-4.633-3.143-7.097-2.083-8.362-7.586-14.488-12.795-20.924-7.344-9.074-18.038-12.061-28.198-15.915-3.414-1.295-7.397-1.093-11.9-1.676l3.939 6.442c-4.01 5.524-7.402 10.546-11.172 15.267a45.5087 45.5087.0 01-8.365 8.583c-9.633 7.012-19.623 13.53-29.315 20.464-2.478 1.773-4.367 4.37-6.526 6.588z"/><path class="cls-9" d="M141.768 171.221c8.192.427 15.963-3.715 22.518-8.882-3.106-1.261-6.378-2.026-8.988-3.777-4.138-2.776-8.482-4.263-13.355-3.809-4.717.439-9.476 2.177-14.075 1.767-9.974-.891-16.076 6.683-24.114 9.908-.835.335-.996 2.087-1.793 2.838-1.365 1.286-2.855 2.948-4.527 3.283a33.0923 33.0923.0 01-8.466.119 16.23 16.23.0 01-12.116-6.248c-3.074-3.754 1.862-5.06 1.833-7.773a8.3046 8.3046.0 01.103-.994c.649-5.849 1.566-11.685 1.852-17.551.185-3.791.049-12.017 4.718-16.471 7.693-7.339 18.966-8.692 29.555-9.67a1.8957 1.8957.0 001.289-.643c2.885-4.458 6.252-8.709 8.421-13.499 2.752-6.077 5.256-9.603 14.576-7.556a15.8607 15.8607.0 004.907.133c5.201-.523 10.417-1.004 15.572-1.847 4.297-.703 8.488-2.037 12.775-2.817 3.391-.617 6.865-.762 10.29-1.216l15.993-2.257-.205-1.546c-2.438.0-4.889-.168-7.31.03-9.156.749-17.486-1.586-25.505-5.939a38.2965 38.2965.0 00-12.265-4.558c-4.049-.597-9.062-.723-12.401 1.16-7.637 4.307-14.337 10.242-21.779 14.943-2.997 1.893-6.889 2.536-10.471 3.29-3.347.705-6.836.71-10.238 1.193q-5.5494.7953-11.048 1.899c-4.434.884-8.885 1.746-13.244 2.928-4.228 1.146-8.319 2.791-12.527 4.022-3.611 1.056-6.278 2.384-7.492 6.678-.937 3.311-3.649 6.289-6.059 8.977-3.999 4.46-8.811 8.239-12.486 12.928a46.02 46.02.0 00-7.419 13.328c-2.649 7.838 3.734 22.722 10.52 25.055 9.366 3.22 18.504 7.325 28.976 6.411 4.058-.354 8.458 1.29 12.455 2.716 3.761 1.342 7.176 3.641 10.781 5.44 9.435 4.709 18.096 1.871 26.498-2.876 7.593-4.289 14.302-9.635 24.254-9.115zm-4.365-90.919c1.186-2.397 12.671-4.18 12.81-4.18 6.445.0 6.984 12.697.549 12.697-.139.0-.271-.011-.405-.02-.133.009-.265.02-.404.02-.029.0-.055-.004-.083-.004a5.1023 5.1023.0 01-2.002.387c-.012.0-.023-.002-.035-.002a5.2642 5.2642.0 01-1.667.257c-.072.0-.14-.008-.211-.01a4.9152 4.9152.0 01-2.172.478 5.0309 5.0309.0 01-2.196-.472 5.0588 5.0588.0 01-2.102.43c-5.652.0-6.338-7.689-2.083-9.582z"/><path class="cls-9" d="M266.43 17.313c-1.226 5.064.892 8.709 3.08 12.369 4.756 7.952 2.018 16.736-6.567 19.98-1.623.613-3.185 1.39-4.774 2.092q.2771.644.554 1.289l12.563-4.494c-1.477 3.102-2.289 5.46-3.627 7.468-2.307 3.463-5.128 6.309-9.784 3.648-8.321-4.755-18.74-4.293-26.427-10.64-.242-.2-.856.052-1.237.088l1.632 4.031h-7.11q5.235 10.143 10.446 20.238c.3.582.468 1.542.911 1.692 4.708 1.585 9.401 3.273 14.211 4.483 8.982 2.259 18.029 4.266 27.072 6.278 2.739.609 5.609 1.446 8.315 1.168 2.997-.308 5.9209-1.656 8.793-2.767 3.3129-1.282 5.9119-.795 8.432 1.902 4.482 4.796 9.256 9.318 13.869 13.993.6539.663 1.729 1.821 1.5289 2.274-1.685 3.822 1.995 3.825 3.6051 5.1 1.75 1.387 4.268 1.963 5.7 3.564 3.632 4.063 9.16 2.976 13.33 5.427a2.519 2.519.0 002.3479-.287c3.486-3.382 9.439-5.141 7.5011-12.562-1.0481-.609-2.5311-1.369-3.908-2.287-11.706-7.808-22.247-16.634-29.769-28.952-4.99-8.171-10.426-16.61-17.508-22.825-8.8291-7.75-14.22-17.501-19.9751-27.081-5.48-9.123-12.363-15.325-24.3919-16.923 3.0249 1.653 5.4419 2.301 6.79 3.868 1.982 2.307 4.926 5.687 4.398 7.868z"/><path class="cls-9" d="M237.166 151.608l.533 1.269 18.368-2.483-6.169 11.97 2.681.221c7.909.141 15.014-2.545 22.063-5.852 8.385-3.934 17.102-7.166 25.467-11.138 4.088-1.942 7.162-4.624 7.581-10.284.587-7.918 8.769-13.567 17.763-13.699l14.493-.011c-7.417-6.319-15.717-4.483-23.138-6.413-.05-5.812 5.038-2.358 7.684-4.49a105.555 105.555.0 00-10.086-4.835 8.59 8.59.0 00-5.373.251 103.71 103.71.0 00-13.87 5.7 132.5293 132.5293.0 00-15.496 9.621c-6.497 4.691-12.445 10.153-19.014 14.731-4.929 3.435-10.576 5.822-15.687 9.022-2.83 1.772-5.214 4.255-7.8 6.418z"/><path class="cls-9" d="M205.995 345.194c-5.284-6.204-10.376-12.674-16.015-18.627a54.9418 54.9418.0 00-12.231-10.155c-5.926-3.375-10.429-2.065-13.669 3.976a111.9622 111.9622.0 00-8.15 19.721c-3.565 11.507-7.193 22.935-13.093 33.507-3.262 5.845-8.628 12.842-4.585 18.757 2.111.334 3.071.96 5.375 1.057a4.3124 4.3124.0 003.181-1.268c4.309-5.546 8.244-11.391 12.677-16.832 5.246-6.437 10.361-13.098 18.224-16.764l28.286-13.372z"/><path class="cls-9" d="M187.825 32.458c2.13-6.381 2.335-6.85 8.816-4.687 4.038 1.348 7.448 4.48 11.343 6.399 1.43.705 4.253.975 5.033.136 1.989-2.139 3.298-4.958 4.659-7.618.917-1.793 1.179-3.953 2.228-5.642 2.191-3.53 4.708-6.857 7.091-10.267l-.66-1.205c-6.656.719-13.355 2.3-19.957 1.965-11.261-.571-19.062 5.096-26.47 12.016l7.455 11.29a23.4232 23.4232.0 01.461-2.388z"/><path class="cls-9" d="M234.151 34.717a81.6928 81.6928.0 01-5.069 6.719c7.449 1.072 11.435-9.956 19.331-5.335 1.683 4.828-2.307 10.855 3.165 13.672l7.182-16.39c.387-.889.698-1.813 1.001-2.735 1.6-4.87-1.167-12.323-5.987-13.148-6.723-1.15-13.822-2.243-20.38 1.383-1.334.737-2.608 1.582-3.909 2.377l1.257 1.197 4.542.335-.423 8.009c-.104 1.329-.064 2.858-.71 3.917z"/><path class="cls-9" d="M70.477 64.906c-2.417 6.126-4.964 11.952-7.695 17.766l8.274 7.75C81.419 82.951 80.879 75.107 70.477 64.906zm1.136 7.02c6.445.0 6.435 10 0 10-6.44499999999999.0-6.434-10 0-10z"/><path class="cls-9" d="M122.843 34.199l-7.617-2.189a5.7117 5.7117.0 00-3.67.576c-6.308 3.645-7.281 9.563-6.579 16.13C111.699 47.899 122.324 38.894 122.843 34.199z"/><path class="cls-9" d="M278.88 104.652a48.9425 48.9425.0 00-18.949 16.177C271.11 119.198 279.848 111.296 278.88 104.652z"/><path class="cls-9" d="M21.233 368.483c4.442 1.41 8.641 1.868 13.113-1.737C27.133 362.643 25.258 362.958 21.233 368.483z"/><path class="cls-5" d="M1.5 410.933v4c3.584-.97 7.758-.259 11.172-3.963l-6.765-3.399zm294.7 5.036c5.342-5.919 10.606-11.922 16.223-17.574a27.48 27.48.0 018.139-5.568c8.804-3.929 17.779-7.476 26.693-11.158 10.295-4.252 20.816-8.029 30.842-12.841 15.325-7.355 29.461-16.819 43.273-26.682 5.382-3.843 10.221-8.462 15.188-12.861a9.7007 9.7007.0 003.664-6.721c-4.432 3.389-8.297 3.258-11.916.355-4.675 1.531-9.178 4.022-13.778 4.219-4.396.188-8.894-2.011-13.282-3.144a20.21 20.21.0 002.644-1.293 18.6075 18.6075.0 002.116-1.889c-1.47-7.072 7.698-21.776 14.862-23.824a8.7158 8.7158.0 012.576 1.039c4.067 3.37 8.782 3.436 13.647 2.909.989-.107 1.993-.149 2.964-.349 2.814-.58 5.615-1.745 8.419-1.74 6.381.012 10.251-4.068 9.654-11.21l-8.334-1.943c-6.133 3.601-12.998 3.066-20.007.491-1.803-.663-3.916-.518-5.894-.658a16.3473 16.3473.0 00-2.448.179l-.986 2.541a13.3034 13.3034.0 01-3.668 1.104c-5.756.052-10.525 3.046-15.43 5.316-7.039 3.256-13.588 7.581-20.651 10.775a40.8783 40.8783.0 01-13.795 3.667c-5.528.368-9.465-3.407-12.634-7.716 1.483-7.489-.112-11.259-6.697-14.969a147.0544 147.0544.0 00-21.393 14.724 17.217 17.217.0 00-6.469 11.973 29.4658 29.4658.0 001.3 10.21c3.455 11.931 4.171 24.121 4.26 36.432a15.5859 15.5859.0 01-4.554 11.731 25.517 25.517.0 00-6.205 10.634c-1.837 5.542-4.094 10.798-8.272 15.15-3.664 3.817-6.922 8.031-10.27 12.142-1.864 2.289-3.33 4.773-1.1449 8.512.765-.412.842-1.388 1.362-1.964zM156.562 163.826c-3.856-4.108-7.948-6.509-13.605-6.379-10.513.241-20.631 1.006-27.561 10.565-3.933 5.424-9.758 7.528-16.109 7.382a96.7271 96.7271.0 01-17.215-2.069c-4.457-.919-8.257-3.428-9.978-7.239-1.002-4.143.712-6.885 2.467-9.505 3.524-5.26 4.215-10.806 1.719-16.568-1.384-3.195-1.469-6.009.853-8.496-.082-.565-.099-.896-.179-1.211-2.095-8.212-1.522-9.203 6.391-12.8 6.234-2.834 11.344-6.843 13.091-14.133l-1.737-3.026a48.8067 48.8067.0 00-6.661.878q-9.579 2.646-19.045 5.687a8.6276 8.6276.0 00-4.07 2.719c-2.51 3.332-5.918 5.22-9.528 6.965a9.7673 9.7673.0 00-3.696 2.481c-2.782 3.797-6.97 5.441-10.743 7.808-4.417 2.77-9.269 4.885-11.858 10.214a23.362 23.362.0 00-1.012 19.329c1.688 4.4 3.464 9.394 8.054 11.638 9.573 4.681 19.311 9.073 30.49 7.79 4.221-.484 8.176.697 12.108 2.345a18.82 18.82.0 008.166 1.645c7.585-.501 15.153-1.416 22.688-2.455 3.744-.516 7.975-.77 10.984-2.702a35.93 35.93.0 0122.695-5.79c4.953.334 9.296-1.593 13.291-5.071zm38.739 179.979-7.696-4.605 4.471-.919c-.698-2.448-.971-4.5581-1.875-6.349-2.393-4.743-6.432-8.093-10.829-10.755-3.709-2.246-8.697-2.789-12.39 1.8989-3.56 4.5191-5.406 9.4721-6.717 14.779-2.675 10.827-5.759 21.4851-11.24 31.296-1.942 3.476-3.984 6.911-5.682 10.505-.834 1.766-.989 3.853-1.452 5.795l1.158.679a46.09 46.09.0 003.682-2.877l24.144-23.056a15.3351 15.3351.0 013.697-2.374l17.813-8.829c1.814-.917 3.443-2.131 2.915-5.189zm257.891-94.616 1.967-4.935 5.956-3.555c3.077-4.596 1.022-9.31-1.233-13.697a162.0486 162.0486.0 00-8.95-14.956c-1.649-2.503-2.669-5.668-6.298-7.476a36.6274 36.6274.0 00-1.366 5.43c-.638 7.176-4.75 13.035-8.219 18.763-3.139 5.184-6.899 10.039-9.103 15.74-1.454 3.76-.933 7.711-.18 11.481 10.805.536 10.805.536 27.426-6.795zM249.548 62.59c2.972 2.375 5.786 5.118 9.115 6.84 9.563 4.948 19.361 7.878 29.246.502a6.25 6.25.0 011.949-.715c.775-4.033 1.53-7.396 2.04-10.797.409-2.732 1.475-5.867.598-8.203-3.722-9.913-7.187-20.057-13.711-28.593-1.658-2.169-2.752-5.405-6.975-6.043l-2.765 8.058c1.21 2.41 2.625 4.834 3.665 7.411 1.033 2.559 2.535 5.33 2.354 7.904-.619 8.788-3.566 16.788-10.586 23.712-2.293-.283-5.069-.458-7.77-1.005-2.818-.57-5.563-1.498-8.34-2.269.088 1.681.476 2.635 1.179 3.198zM381.125 198.127c-7.619 7.983-11.716 17.565-13.709 28.149-.745 3.957-.492 8.027 3.879 10.463a11.6261 11.6261.0 007.418-6.187 74.6945 74.6945.0 004.919-10.322c4.11-11.345 9.708-21.697 18.343-30.32a42.6894 42.6894.0 005.869-7.992c1.703-2.773 1.047-4.939-1.637-7.075l-3.938 2.404c-1.591 1.869-2.857 3.849-4.577 5.287a201.86 201.86.0 00-16.566 15.593zM142.289 91.823l10.276-2.821c6.211 1.888 12.17 1.075 18.07-1.168 3.519-1.338 7.118-2.469 10.432-3.608l-12.6-5.217c-2.749-1.158-5.407-2.561-8.211-3.557-7.601-2.7-14.948-3.734-21.989 2.026-4.194 3.431-9.235 5.807-13.608 9.045-3.975 2.943-7.588 6.38-11.287 9.683-.455.407-.45 1.329-1.028 3.224 3.799-1.847 6.899-2.772 9.279-4.624 6.339-4.933 13.274-4.338 20.667-2.983zm.19-13.265c2.771-1.255 5.149-.953 5.915.085 2.839 3.847-7.082 6.176-9.525 4.304C136.793 80.979 140.831 79.305 142.479 78.558zm10.39 9.389c-5 1-14 3-16-3C140.869 88.947 146.869 87.947 152.869 87.947zm58.206-59.341c2.492-3.072 4.354-6.656 6.462-10.04l-.442-1.104c-5.93 2.056-10.954.641-16.066-2.385-3.628-2.147-8.257 1.079-9.759 6.515 5.013 2.739 9.823 5.615 14.881 7.958 1.283.594 4.086.086 4.923-.945zM70.907 68.572c-6.033 1.604-6.826 7.912-8.653 12.978l8.511 7.057c8.252-5.053 8.264-15.253.142-20.036zm3.252 9.667a3.981 3.981.0 01-3.83-3.021c-.192-.661-.723-2.518-.207-2.973 1.658-1.464 3.96 1.433 4.883 3.175.118.222.926 2.828-.845 2.819zM253.283 29.195c-2.994-4.111-6.353-4.856-12.364-2.761l-2.336 5.76L251.24 33zM371.953 168.93a30.392 30.392.0 012.783-3.432c3.74-3.327 7.589-6.533 11.397-9.785l-1.018-1.252c-8.056 4.85-14.488 11.646-21.093 18.308 3.545.375 5.908-1.413 7.932-3.839zM21.468 368.558c4.736 2.207 7.477 2.658 10.981-1.034-5.222-3.251-7.33-2.458-10.98 1.034z"/></svg>