<svg id="Capa_1" data-name="Capa 1" xmlns="http://www.w3.org/2000/svg" xmlns:xlink="http://www.w3.org/1999/xlink" width="442.517" height="569.265" viewBox="0 0 442.517 569.265"><defs><style>.cls-1{fill:none}.cls-2{clip-path:url(#clip-path)}.cls-3{fill:#ebdcd1}.cls-4{fill:#4c4573}.cls-5{fill:#201b37}.cls-6{fill:#352e56}.cls-7{fill:url(#B)}.cls-8{fill:url(#C)}</style><clipPath id="clip-path"><rect class="cls-1" width="5.58" height="5.58"/></clipPath><pattern id="B" data-name="B" width="5.58" height="5.58" patternTransform="translate(-933.3977 17223.6901)" patternUnits="userSpaceOnUse" viewBox="0 0 5.58 5.58"><rect class="cls-1" width="5.58" height="5.58"/><path class="cls-1" d="M0 5.58H5.58V0H0z"/><g class="cls-2"><path class="cls-3" d="M0 5.58H5.58V0H0z"/><circle class="cls-4" cx="2.79" cy="2.79" r=".88"/><circle class="cls-4" cx="5.58" cy="5.58" r=".88"/><circle class="cls-4" cy="5.58" r=".88"/><circle class="cls-4" cx="5.58" r=".88"/><circle class="cls-4" r=".88"/></g></pattern><pattern id="C" data-name="C" width="5.58" height="5.58" patternTransform="translate(-933.3977 17223.6901)" patternUnits="userSpaceOnUse" viewBox="0 0 5.58 5.58"><rect class="cls-1" width="5.58" height="5.58"/><path class="cls-1" d="M0 5.58H5.58V0H0z"/><circle class="cls-5" cx="5.58" cy="5.58" r="1.106"/><circle class="cls-5" cy="5.58" r="1.106"/><circle class="cls-5" cx="5.58" r="1.106"/><path class="cls-6" d="M0 5.58H5.58V0H0z"/><circle class="cls-5" cx="2.79" cy="2.79" r="1.106"/><circle class="cls-5" r="1.106"/><circle class="cls-5" cx="5.58" cy="5.58" r="1.106"/><circle class="cls-5" cy="5.58" r="1.106"/><circle class="cls-5" cx="5.58" r="1.106"/><circle class="cls-5" r="1.106"/></pattern></defs><path class="cls-3" d="M425.433 568.765a11.1627 11.1627.0 01-2.348-.26l-1.32-.284c-4.462-.963-9.075-1.958-13.689-2.672-6.266-.969-11.579-5.213-15.508-8.803q-3.7006-3.424-7.587-6.639l-10.305-7.789-2.533-1.931q-3.3124-2.2825-6.723-4.418c-3.751-2.309-7.367-4.953-10.8649-7.511l-4.705-3.403-3.111-2.143c-2.37-1.6111-4.821-3.277-7.065-5.153-5.246-4.3871-9.976-10.043-14.888-17.8a39.8239 39.8239.0 00-3.937-5.61c-3.126-3.432-4.0021-7.353-2.729-12.31l.103-.403 1.483-.867q.411-1.4034.74-2.829c-.3259-2.882-.433-6.5531 1.422-9.7521l1.606-2.703c2.556-4.2479 4.97-8.26 5.835-13.087a2.0074 2.0074.0 01.829-1.19c-.425-1.051-.947-2.081-1.495-3.162-1.649-3.254-3.353-6.617-2.631-11.004a7.3906 7.3906.0 01-1.443-2.6029c-.964-2.917-3.233-4.675-5.636-6.537a49.7609 49.7609.0 01-6.906-7.005q-.6769-.7821-1.357-1.5621l-.0759-.087-2.705-5.065-.03-.131-.837-3.47a18.0365 18.0365.0 01-.635-3.485l-.257-.083a19.5947 19.5947.0 00-5.818-1.283 6.9736 6.9736.0 00-4.025 1.229c-3.165 4.0281-7.623 4.844-11.935 5.633l-.479.0881a10.6959 10.6959.0 00-1.799 1.355c-2.582 4.375-7.453 7.62-10.082 9.372l-.657.44-6.624 4.843-5.699 4.157v.141l-.483.222-.181.1359h-.116c-5.255 2.3771-10.714 3.408-17.267 4.214l-4.864 1.375-9.542 3.636q-2.78 1.05-5.553 2.103a43.3038 43.3038.0 01-5.225 2.01l-1.413.641.009-.196-2.302.709c-3.694 1.614-8.072 3.483-12.58 5.133-.08.028-.155.062-.23.094l-.233.098q-2.1977 1.0466-4.346 2.192c-1.713 1.037-3.46 2.272-5.149 3.464l-3.153 2.187a14.1752 14.1752.0 01-8.246 2.304 45.03 45.03.0 01-5.605-.47l-1.81-.22a2.89 2.89.0 01-1.277-.496l-2.725-.432a16.0115 16.0115.0 01-3.218.36 11.3 11.3.0 01-5.89-1.668l-.164-.095a3.2115 3.2115.0 01-.781-.169c-5.03-1.834-8.37-4.856-9.93-8.984l-.079-.21.018-.224a15.0188 15.0188.0 011.028-4.949 5.8139 5.8139.0 01-.717-3.522l.011-.143.049-.133a13.6233 13.6233.0 011.98-3.502c.337-.467.655-.908.954-1.412.418-.705.784-1.493 1.171-2.328.882-1.901 1.793-3.868 3.446-4.951l.278-.183 3.041-1.949a9.3636 9.3636.0 011.827-1.429 23.3431 23.3431.0 016.299-2.259 24.147 24.147.0 015.952-.805 37.968 37.968.0 014.186.318c1.076.123 2.188.25 3.266.292q.2259.0091.452.009a17.69 17.69.0 003.856-.48c1.288-.481 2.306-1.367.976-6.266q-.1146-.6183-.175-1.245l-.161-.034a6.5628 6.5628.0 01-2.729-1.609 10.0146 10.0146.0 00-1.265-.952q-1.3035-.7716-2.587-1.576a42.94 42.94.0 00-7.149-3.838c-3.131-1.187-6.304-2.761-8.302-6.203a39.6442 39.6442.0 00-12.723-13.189 11.7217 11.7217.0 00-3.041-1.155 13.0743 13.0743.0 01-5.4271-2.537l-5.164-2.357a12.5235 12.5235.0 01-7.36 2.138 21.9647 21.9647.0 01-4.115-.4209 14.0554 14.0554.0 01-4.6169-1.388 9.3569 9.3569.0 00-.956-.292 18.1109 18.1109.0 00-2.464-.315c-1.891-.1571-3.847-.32-4.972-1.554a52.1416 52.1416.0 01-6.551-9.873l-.8551-1.522c-.3659-.644-.246-1.515.379-2.722a30.5211 30.5211.0 01-.112-4.76 26.5316 26.5316.0 00-1.0339-9.199c-1.3961-2.595-1.724-7.838-.045-10.873.654-1.183 1.291-2.431 1.9079-3.638 1.8271-3.578 3.7171-7.278 6.4561-10.184a143.6955 143.6955.0 0113.167-11.834l5.3969-4.522c.578-.497 1.19-.949 1.7831-1.386a18.1174 18.1174.0 002.388-1.974 20.2079 20.2079.0 016.212-4.036c.776-.374 1.578-.762 2.339-1.18 3.886-2.136 7.4-5.225 10.799-8.211l2.963-2.574c1.9969-1.697 3.875-3.641 5.69-5.52l1.291-1.331c1.069-1.095 2.129-2.249 3.155-3.365a82.2386 82.2386.0 016.212-6.29 64.92 64.92.0 0110.609-7.652c5.347-3.035 8.9149-6.67 11.2359-11.444q1.1964-2.4486 2.486-4.85a1.4245 1.4245.0 01-.247-.546c-.192-.892-.664-1.956-1.824-2.053q-.79.18-1.565.385c-.046.024-.092.049-.138.077-1.656.994-3.401 1.859-5.089 2.696-4.433 2.199-8.62 4.275-11.567 8.569-2.197 3.201-5.529 5.595-8.751 7.91l-1.899 1.377a31.3593 31.3593.0 01-4.725 2.711 39.2722 39.2722.0 00-3.533 1.913q-3.366 2.14-6.745 4.264c-8.242 5.194-16.764 10.565-24.819 16.285l-1.666 1.203a34.931 34.931.0 01-8.776 5.149 5.4434 5.4434.0 00-2.555 1.837c-4.415 5.836-10.962 8.825-16.222 11.227a22.13 22.13.0 00-5.498 4.161l-2.028 1.83c-.737.629-1.454 1.363-2.147 2.073a19.3617 19.3617.0 01-4.263 3.6c-7.058 3.928-13.119 9.611-19.651 18.428a5.2239 5.2239.0 00-1.236 4.212 1.459 1.459.0 01-1.017 1.554l-7.359 2.06 3.091 1.083a1.563 1.563.0 01.376 2.759 9.3153 9.3153.0 01-2.194 1.31 10.1484 10.1484.0 01-1.975.389c-.855.107-1.824.23-2.059.622-.097.161-.26.697.31 2.182.384 1.19-.753 1.873-1.666 2.421a6.4761 6.4761.0 00-1.079.739c-.586.587-1.243 1.15-1.879 1.695-1.448 1.241-2.946 2.525-3.37 3.926-1.334 4.405-4.333 7.077-6.979 9.435a79.6191 79.6191.0 01-10.604 8.466 22.3487 22.3487.0 01-6.679 2.376l-2.364.6a1.7038 1.7038.0 01-.471.063 3.697 3.697.0 01-1.117-.228l-.153-.05a5.8083 5.8083.0 01-3.69 1.69c-2.239.0-3.582-2.0281-4.768-3.819l-.645-.955a2.91 2.91.0 00-.241-.347c-2.79-2.886-4.001-6.209-3.429-9.301l-.16-.267c-2.648-4.397-2.413-7.997.74-11.332 2.502-2.648 4.93-5.468 7.277-8.194q1.559-1.809 3.127-3.61l.611-.697.165.124q5.9831-8.0269 12.001-16.032l4.779-6.372.596-.922a58.5758 58.5758.0 013.638-4.728l3.663-4.896q2.4431-3.2681 4.894-6.53l.035-.047.041-.042a14.4279 14.4279.0 012.637-2.174l.153-.099 9.652-11.897c3.365-4.281 6.649-8.751 9.826-13.074l6.767-9.11a89.402 89.402.0 017.081-8.369l11.543-11.615q4.4651-4.449 8.904-8.923l.593-.598c2.39-2.408 4.647-4.682 5.908-8.07 1.039-2.793 3.332-5.052 5.548-7.237l1.458-1.458a23.456 23.456.0 006.339-11.928 26.949 26.949.0 01.432-3.643 5.0694 5.0694.0 01.204-.715 9.0551 9.0551.0 00-3.519-.917l-1.486-.135a21.6459 21.6459.0 01-7.491-1.54 8.8321 8.8321.0 01-4.441-4.099l-.1-.029a5.2843 5.2843.0 01-1.5-.71l-.063-.043-.056-.053-6.76-6.525a192.4756 192.4756.0 00-15.041-13.728c-8.094-6.39-13.229-14.867-17.573-23.076a119.2613 119.2613.0 01-6.19-14.794l-1.862-5.004a6.6184 6.6184.0 01-.196-2.841c.035-.561.077-1.208.077-1.972V138.4a32.4757 32.4757.0 01-.074-4.58c-2.955-5.46-5.977-9.064-9.775-11.66a6.89 6.89.0 01-2.025-2.037l-4.82-8.284-2.066-3.588q-4.452-5.034-8.897-10.073l-1.084-1.226c-.802-.911-1.54-1.873-2.253-2.804l-.164-.214-1.351-1.713-.27-.353-1.66-1.66.405-.003A71.502 71.502.0 0111.895 74.85a9.1381 9.1381.0 01-.348-9.404 10.51 10.51.0 019.203-5.623l.452-.002c1.201.0 2.405.031 3.609.062l3.555.062a40.8947 40.8947.0 004.279-.193 29.4067 29.4067.0 013.039-.159c7.11.0 14.024 2.624 20.55 7.799 3.93 3.117 8.327 4.507 14.257 4.507 1.999.0 4.005-.149 5.704-.295a17.7116 17.7116.0 008.092-3.152 115.3189 115.3189.0 019.917-5.939c5.67-3.142 11.534-6.391 16.17-11.223a55.9045 55.9045.0 018.29-6.962c.317-.274.692-.656 1.088-1.06a9.5069 9.5069.0 012.823-2.228c6.973-3.077 8.958-9.589 10.878-15.887a33.45 33.45.0 012.208-5.453l.123-.559.9-3.858a7.1737 7.1737.0 01.533-1.168q.023-.3531.059-.705a28.4477 28.4477.0 01.815-4.011l.498-2.093.124-.627c.489-2.519 1.158-5.968 5.554-6.167q.1819-.0079.364-.008c3.874.0 4.712 2.949 5.386 5.318l.144.504c.769 2.644 1.702 5.303 2.605 7.874l1.133 3.261q.0557.1724.1.348l.014.056c3.488 1.393 4.156 4.371 4.748 7.007a11.3234 11.3234.0 001.334 3.84c3.242 4.826 6.433 8.834 12.679 9 1.052.028 1.902.13 2.651.221a16.1712 16.1712.0 001.972.16c1.272-.001 2.974-.247 6.778-2.035 1.226-.577 7.186-1.145 8.507-1.145l.121.002 9.326.184c8.861.16 17.231.311 27.096.928 3.582.224 7.528 1.572 12.421 4.243 5.862 3.201 11.631 6.776 17.21 10.234q2.793 1.731 5.594 3.452a13.63 13.63.0 013.129 2.465 13.003 13.003.0 005.96 3.741c4.137 1.272 7.756 3.951 11.255 6.541l.228.168c3.978 2.944 8.153 6.334 13.144 10.668 2.331 2.024 4.638 4.147 6.8671 6.2 3.38 3.112 6.875 6.33 10.4979 9.238a98.1969 98.1969.0 009.335 6.363l5.049 3.239a12.2147 12.2147.0 012.819 2.659q2.0571 2.6439 4.141 5.284c4.19 5.329 8.523 10.84 12.513 16.467a73.0281 73.0281.0 014.165 6.767l4.934 6.358q5.938 7.658 11.896 15.302l.573.613 1.436 1.553a28.3765 28.3765.0 002.305 2.183 24.8092 24.8092.0 013.063 3.025 18.7685 18.7685.0 011.221 1.85c1.172 1.94 1.991 3.137 3.986 3.285a2.4609 2.4609.0 011.647 1.244l.1.135 10.594 14.246a10.0869 10.0869.0 011.91 3.242l.031.1c1.535 6.183 4.803 11.695 7.962 17.025 1.331 2.245 2.705 4.563 3.944 6.918 3.776 2.545 4.607 9.049 3.994 12.064l-.024.123-.055.113a7.0383 7.0383.0 00.241 6.58 7.6133 7.6133.0 01.676 3.416 12.0714 12.0714.0 00.155 1.755c.304 1.555.674 3.134 1.032 4.66l.679 2.962q.2181.994.444 1.987c.46 2.041.937 4.152 1.277 6.264.291 1.808.51 3.652.721 5.437q.13 1.1059.267 2.209l1.623 8.612c.868 3.504 1.453 7.132 2.017 10.641l.111.688h0l1.039 5.907.438 2.101a44.1321 44.1321.0 011.284 9.195l.043 3.946.06.01.141.919-.131 2.5029.022.767a157.6815 157.6815.0 01-.277 18.427 97.1119 97.1119.0 00-.109 13.4661c.1 1.028.149 1.93.153 2.789l.001.405c.213 4.195.434 8.578.25 13.022-.232 5.6149-.108 11.354.012 16.9039l.122 13.0361c-.044 2.892-.206 5.772-.342 7.959l.063 15.651c.019 3.043.338 6.158.646 9.17l.08.788c1.734 9.229.971 16.368-2.49 23.062-.268.675-.593 1.421-.935 2.165a4.14 4.14.0 01-.62 1.313 71.16 71.16.0 01-4.116 7.173c-.847 1.432-2.007 3.349-3.287 5.184a2.0358 2.0358.0 01-.722.627l-.655.9-1.205 1.636c-3.438 4.655-6.993 9.469-9.509 14.627l-2.113 4.431c-2.59 5.339-7.144 8.228-12.391 11.191a42.87 42.87.0 00-6.607 4.192 9.32 9.32.0 00-1.824 2.652l-.584 1.051a48.05 48.05.0 004.969 5.547c2.789 2.805 5.672 5.704 7.356 9.714 3.381 4.055 7.932 6.817 12.334 9.49l4.181 2.6a52.1913 52.1913.0 009.358 4.422 59.66 59.66.0 018.889 4.085c2.86 1.718 5.122 4.375 7.309 6.945.824.969 1.676 1.97 2.536 2.889a20.8891 20.8891.0 011.757 2.26c.431.611.837 1.188 1.291 1.72a20.3157 20.3157.0 012.742 3.763l.311-.099.171 1.2249q.0119.1443.016.289l.002.063a3.9912 3.9912.0 01.006 1.346c-.142 2.307-1.142 3.662-2.816 5.216a25.1135 25.1135.0 00-4.743 5.8641c-2.198 3.866-5.302 5.916-8.969 5.916z"/><path class="cls-6" d="M144.622 1.5c3.34.0 3.822 2.534 4.569 5.102 1.096 3.771 2.484 7.457 3.751 11.178.107.313.172.822.377.893 5.121 1.793 3.68 7.235 5.936 10.593 3.44 5.122 6.859 9.266 13.483 9.442 1.979.053 3.2.381 4.649.381 1.637.0 3.565-.419 7.203-2.13.944-.444 6.598-1.05 8.082-1.05l.099.001c13.13.301 23.283.291 36.382 1.111 4.088.256 8.321 2.112 12.003 4.122 7.761 4.237 15.212 9.043 22.763 13.661a12.7133 12.7133.0 012.923 2.299 13.9908 13.9908.0 006.404 4.013c4.05 1.245 7.688 3.977 11.17 6.554 4.511 3.339 8.844 6.937 13.084 10.619 5.858 5.087 11.352 10.613 17.394 15.463 4.5 3.612 9.64 6.422 14.453 9.653a11.199 11.199.0 012.583 2.438c5.6 7.199 11.36 14.287 16.632 21.721a72.2357 72.2357.0 014.143 6.741q8.436 10.864 16.877 21.724l2.059 2.225h0c1.445 1.622 3.984 3.438 5.316 5.148 1.684 2.163 2.43 5.26 5.922 5.517.364.027.734.599 1.019.98q5.332 7.092 10.59 14.24a9.36 9.36.0 011.776 2.991c2.244 9.036 7.919 16.36 12.12 24.412l-.004-.01c3.482 2.121 4.37 8.242 3.776 11.165a8.0431 8.0431.0 00.275 7.515c.732 1.351.4 3.246.716 4.863.5 2.562 1.157 5.093 1.715 7.645.597 2.727 1.267 5.444 1.711 8.196.407 2.519.665 5.073.983 7.611l1.632 8.672c.917 3.708 1.503 7.453 2.105 11.184l.023.122-.003-.003 1.046 5.943c.742 3.696 1.7 7.296 1.703 11.1l.06 4.793.184.031-.13 2.5a163.1068 163.1068.0 01-.254 19.153 97.2694 97.2694.0 00-.112 13.606c.087.916.149 1.831.152 2.747l.001.408c.218 4.32.43 8.639.25 12.975-.4119 9.969.285 19.979.133 29.966-.04 2.639-.176 5.276-.339 7.912q.0152 7.86.0611 15.721c.022 3.353.3909 6.701.73 10.052 1.432 7.633 1.441 15.103-2.384 22.501q-.4671 1.162-.997 2.299a3.0987 3.0987.0 01-.534 1.131 70.1825 70.1825.0 01-4.091 7.138c-1.038 1.753-2.1041 3.488-3.267 5.154a1.1648 1.1648.0 01-.5581.401l-.8039 1.107c-3.8811 5.281-7.9581 10.574-10.8071 16.416l-2.1159 4.433c-2.526 5.209-7.1871 8.047-11.9831 10.756a43.7589 43.7589.0 00-6.726 4.271c-1.263 1.06-1.9289 2.831-2.933 4.444.005.073.02.146.028.219 3.936 5.671 9.897 9.105 12.567 15.616 4.57 5.549 11.039 8.627 16.835 12.4051 5.573 3.6339 12.543 5.083 18.277 8.526 3.783 2.271 6.51 6.327 9.629 9.661 1.125 1.203 1.945 2.687 3.018 3.945 1.596 1.87 2.576 3.179 2.926 4.344l.063-.0171c.012.134.01.248.017.375a2.992 2.992.0 01.007 1.12c-.107 1.9811-.907 3.117-2.501 4.597a26.1211 26.1211.0 00-4.926 6.093c-1.931 3.396-4.622 5.422-8.107 5.422a10.1315 10.1315.0 01-2.137-.237c-5.01-1.0789-9.977-2.179-15.068-2.9669-5.699-.881-10.653-4.594-14.986-8.553q-3.716-3.4461-7.622-6.669l-12.871-9.747q-3.3491-2.3081-6.799-4.469c-5.372-3.307-10.363-7.232-15.523-10.883-3.387-2.396-6.94-4.595-10.113-7.247-5.926-4.9551-10.564-11.058-14.685-17.567a40.5038 40.5038.0 00-4.016-5.718c-2.993-3.287-3.67-6.958-2.526-11.418l1.461-.855c.35-1.129.64-2.279.911-3.435-.394-3.349-.307-6.583 1.273-9.309 3.006-5.186 6.474-10.051 7.56-16.115.067-.372.607-.66.974-.98.002-.073.009-.145.01-.218-1.687-4.556-5.311-8.585-4.236-14.41l.265.075-.0409-.16a6.0954 6.0954.0 01-1.7471-2.76c-1.036-3.134-3.371-4.995-5.9729-7.012-3.0481-2.362-5.5181-5.471-8.1261-8.437l-2.587-4.843c-1.065-4.719-1.243-4.422-1.48-7.147a4.4566 4.4566.0 00-.302-.424 22.79 22.79.0 00-6.739-1.53 8.04 8.04.0 00-4.699 1.476l-.009-.002c-3.085 4.046-7.639 4.701-12.081 5.521a11.7263 11.7263.0 00-2.238 1.676c-2.674 4.64-8.215 8.061-10.512 9.616l-12.761 9.326h-.001v.001c-5.503 2.527-11.335 3.507-17.24 4.23l-4.957 1.399-15.167 5.763a43.6007 43.6007.0 01-5.176 1.993l-.032.012.001-.002-3.716 1.154c-4.144 1.812-8.313 3.574-12.575 5.1319-.165.06-.323.138-.487.202q-2.253 1.072-4.45 2.24c-2.868 1.734-5.598 3.837-8.386 5.701a13.2957 13.2957.0 01-7.69 2.134 66.283 66.283.0 01-7.303-.683 2.1053 2.1053.0 01-1.008-.457q-1.5659-.2285-3.126-.494a15.2833 15.2833.0 01-3.197.378 10.3371 10.3371.0 01-5.391-1.535l.337-.232q-.2631.0272-.528.028a2.714 2.714.0 01-.912-.133c-4.235-1.543-7.75-4.203-9.335-8.397h.001a12.2512 12.2512.0 011.2-5.115 4.4579 4.4579.0 01-.89-3.362c.81-2.1839 1.914-3.1619 2.857-4.752 1.405-2.369 2.238-5.599 4.304-6.953l3.396-2.178a8.5014 8.5014.0 011.715-1.36 22.2893 22.2893.0 015.986-2.137 23.2771 23.2771.0 015.763-.786c2.468.007 4.93.513 7.403.61q.2389.009.487.009a18.6893 18.6893.0 004.147-.52c2.514-.913 2.845-3.101 1.654-7.487a13.17 13.17.0 01-.19-1.754l.186-.022-1.088-.219c-1.343-.289-2.416-1.694-3.696-2.445-3.256-1.912-6.399-4.164-9.888-5.487-3.27-1.24-6.017-2.714-7.791-5.77a40.4579 40.4579.0 00-13.049-13.53c-2.118-1.399-6.032-1.393-8.444-3.693h.001l-5.844-2.6659a11.5038 11.5038.0 01-7.243 2.2909 21.2266 21.2266.0 01-3.996-.4169 12.9427 12.9427.0 01-4.331-1.306 9.8945 9.8945.0 00-1.134-.352c-2.349-.5491-5.62-.138-6.925-1.569-2.968-3.254-5.075-7.328-7.275-11.2131-.237-.418.112-1.273.547-2.048l-.009.009c-.647-5.172.789-7.1189-1.243-14.53h.002c-1.337-2.35-1.585-7.334-.106-10.01 2.572-4.653 4.66-9.8469 8.216-13.62 5.609-5.95 12.258-10.923 18.488-16.284 1.378-1.186 2.997-2.1229 4.242-3.427 2.36-2.471 5.455-3.461 8.31-5.03 5.102-2.8039 9.423-7.074 13.927-10.9 2.502-2.125 4.749-4.5581 7.049-6.913 3.116-3.192 5.97-6.673 9.311-9.602a63.8284 63.8284.0 0110.45-7.539c5.088-2.888 9.016-6.486 11.635-11.872q1.4343-2.9317 2.997-5.798a.4191.4191.0 01-.681-.246c-.416-1.93-1.569-2.8111-2.886-2.8481q-.929.2081-1.841.452c-.098.05-.196.1-.292.158-5.84 3.504-12.683 5.316-16.966 11.5571-2.525 3.678-6.713 6.308-10.421 9.048-2.498 1.846-5.561 2.906-8.201 4.584-10.611 6.747-21.364 13.305-31.607 20.578-3.308 2.349-6.338 4.853-10.198 6.225a6.4621 6.4621.0 00-3.013 2.17c-4.091 5.408-9.858 8.193-15.845 10.927-2.915 1.331-5.243 3.991-7.759 6.14-2.124 1.814-3.871 4.237-6.248 5.56-8.255 4.594-14.45 11.259-19.968 18.706a6.178 6.178.0 00-1.422 4.957.44.44.0 01-.313.445L52.3 351.92c-.249.062-.403.765.089 1.017l4.437 1.554a.564.564.0 01.136.995 8.5387 8.5387.0 01-2.015 1.21c-2.235.724-6.088-.275-4.266 4.47.203.633-1.721 1.295-2.52 2.096-1.946 1.95-4.785 3.682-5.498 6.037-1.213 4.008-3.885 6.481-6.687 8.977a78.4533 78.4533.0 01-10.493 8.381c-2.537 1.573-5.795 2.008-8.761 2.846a.7272.7272.0 01-.198.025c-.465.0-1.092-.33-1.455-.33a.2993.2993.0 00-.207.064 5.174 5.174.0 01-3.298 1.678c-2.034.0-3.23-2.408-4.594-4.35a3.2868 3.2868.0 00-.288-.408c-3.079-3.19-4.054-6.777-2.811-9.88-.228.148-.452.304-.693.433-2.246-3.729-2.438-6.905.61-10.129 3.609-3.818 6.964-7.878 10.429-11.832l.228.172.42-.57q8.451-11.34 16.957-22.639l.626-.965a57.2033 57.2033.0 013.576-4.645l8.587-11.464a13.4048 13.4048.0 012.453-2.022c-.046.119-.107.232-.156.35l10.208-12.569c5.708-7.263 11.017-14.838 16.603-22.199a88.0928 88.0928.0 017.007-8.282l20.438-20.527c2.638-2.674 5.281-5.142 6.725-9.022 1.187-3.189 4.274-5.76 6.786-8.346a24.5259 24.5259.0 006.616-12.494 26.2184 26.2184.0 01.418-3.573 5.0129 5.0129.0 01.463-1.256 8.17 8.17.0 00-4.658-1.572c-2.921-.293-6.09-.362-8.647-1.582-2.506-1.196-3.807-2.756-4.301-4.528a3.6637 3.6637.0 01-.389.342 4.2975 4.2975.0 01-1.217-.576c-7.262-6.806-14.084-14.165-21.866-20.309-7.863-6.208-12.834-14.302-17.308-22.759-3.298-6.232-5.463-13.071-8.003-19.689-.381-.992-.053-2.256-.053-4.454l.257.501a26.9923 26.9923.0 01-.32-6.513c-2.591-4.839-5.64-9.122-10.222-12.255a5.9565 5.9565.0 01-1.75-1.755l-6.625-11.422c.083.032.163.072.246.106q-4.751-5.37-9.494-10.746c-.017-.019-.037-.038-.053-.058l-.039-.047q-.495-.561-.991-1.122c-.839-.952-1.603-1.96-2.373-2.964q-.694-.866-1.354-1.718l-.077-.096h0l.003.001h0l-.234-.305-.017-.018v-.001l.004.002v-.001a72.1751 72.1751.0 01-9.922-16.813c-3.915-5.872 1.08-13.505 7.975-13.552l.444-.002c2.385.0 4.781.123 7.165.123a42.265 42.265.0 004.382-.198 28.3385 28.3385.0 012.936-.153c7.573.0 14.255 3.084 19.928 7.583 4.753 3.769 9.732 4.723 14.879 4.723 1.908.0 3.839-.131 5.79-.299a18.6924 18.6924.0 008.587-3.335c8.593-5.96 18.766-9.507 26.228-17.283a54.4268 54.4268.0 018.145-6.837h-.002c1.247-1.052 2.308-2.559 3.74-3.191 7.235-3.193 9.387-9.803 11.432-16.51a28.642 28.642.0 012.186-5.339l1.056-4.571a6.0338 6.0338.0 01.548-1.114l.071-.908c.204-1.981.902-4.073 1.298-6.007.553-2.704.829-5.819 4.744-5.996q.1594-.0072.319-.007m0-2h0q-.2046.0-.409.009c-5.183.234-6.002 4.454-6.491 6.975l-.122.619c-.133.651-.305 1.33-.487 2.049a29.208 29.208.0 00-.84 4.153c-.018.171-.032.343-.045.514a8.0417 8.0417.0 00-.46 1.019l-.035.093-.025.096c-.339 1.3-.629 2.623-.91 3.902l-.088.399a37.5926 37.5926.0 00-2.222 5.531c-1.855 6.082-3.773 12.371-10.326 15.264a10.4265 10.4265.0 00-3.132 2.443c-.362.369-.705.718-1.041 1.007a56.6025 56.6025.0 00-8.345 7.023c-4.532 4.723-10.07 7.791-15.933 11.04a116.189 116.189.0 00-9.992 5.985 16.7721 16.7721.0 01-7.656 2.989c-1.67.143-3.635.288-5.582.288-5.689.0-9.895-1.323-13.636-4.29-6.706-5.318-13.829-8.015-21.171-8.016a30.4111 30.4111.0 00-3.143.164 39.89 39.89.0 01-4.175.187c-1.166.0-2.367-.031-3.529-.061l-3.635-.062-.457.002a11.5091 11.5091.0 00-10.079 6.152A10.1231 10.1231.0 0011 75.313a71.4615 71.4615.0 007.963 14.193h-.234l1.653 2.027-.049.119.794.794.265.324.046.058h0q.671.8649 1.374 1.743l.138.181c.723.944 1.471 1.919 2.295 2.855l.519.587.473.535.04.047.058.064q4.42 5.013 8.826 9.992l.185.321q.948 1.6419 1.836 3.19l4.805 8.257.019.031.02.03a7.9081 7.9081.0 002.337 2.344c3.569 2.44 6.459 5.866 9.292 11.045a32.7085 32.7085.0 00.085 4.396v1.15c0 .725-.04 1.354-.075 1.909a7.4338 7.4338.0 00.261 3.262l1.859 4.994a120.0216 120.0216.0 006.244 14.914c4.395 8.306 9.597 16.888 17.837 23.394a191.6075 191.6075.0 0114.959 13.656l6.778 6.543.112.105.127.087a6.2857 6.2857.0 001.459.74 10.01 10.01.0 004.716 4.176 22.3822 22.3822.0 007.838 1.634l1.47.133a10.7526 10.7526.0 012.426.479 27.6856 27.6856.0 00-.437 3.669 22.4591 22.4591.0 01-6.051 11.351l-1.455 1.455c-2.294 2.261-4.666 4.599-5.782 7.599-1.185 3.185-3.368 5.385-5.679 7.713l-.596.601-8.887 8.906L79.305 268.545a90.4732 90.4732.0 00-7.178 8.483l-6.761 9.103-9.811 13.055L46.02 310.942l-.024.015a15.428 15.428.0 00-2.819 2.324l-.081.085-.071.094q-2.45 3.255-4.886 6.52-1.8349 2.454-3.673 4.906a58.8982 58.8982.0 00-3.668 4.772c-.13.193-.255.389-.381.585l-.222.345-4.701 6.268q-5.728 7.635-11.442 15.281l-.104-.078-1.225 1.398q-1.578 1.801-3.136 3.621c-2.339 2.717-4.757 5.526-7.243 8.156-3.448 3.648-3.743 7.732-.9 12.485-.469 3.276.833 6.738 3.742 9.785a1.2483 1.2483.0 01.078.115l.037.062.042.06c.213.303.421.618.63.933 1.259 1.901 2.825 4.267 5.601 4.267a6.3623 6.3623.0 003.907-1.575 3.9021 3.9021.0 001.053.163 2.7269 2.7269.0 00.744-.101c.747-.211 1.513-.395 2.324-.59a23.106 23.106.0 006.945-2.48l.028-.017.028-.0191A80.6609 80.6609.0 0037.34 379.75c2.605-2.32 5.837-5.2091 7.248-9.87.339-1.12 1.723-2.307 3.062-3.4541.651-.558 1.325-1.135 1.938-1.7489a6.7189 6.7189.0 01.886-.5881c.954-.573 2.731-1.639 2.123-3.532l-.017-.053-.02-.052a4.7756 4.7756.0 01-.337-1.237A9.9436 9.9436.0 0153.5 359a11.3085 11.3085.0 002.075-.398l.085-.028.082-.035a10.5447 10.5447.0 002.448-1.462 2.5641 2.5641.0 00-.691-4.4711l-.093-.0329 4.285-1.2a2.4428 2.4428.0 001.771-2.476l-.005-.099-.015-.098a4.1741 4.1741.0 01.962-3.353l.047-.055.043-.058c6.443-8.696 12.406-14.293 19.333-18.149A20.1456 20.1456.0 0088.32 323.31c.709-.7261 1.379-1.412 2.081-2.012s1.393-1.24 2.058-1.856a21.41 21.41.0 015.233-3.985c5.363-2.449 12.037-5.496 16.609-11.54a4.4382 4.4382.0 012.071-1.486 35.6932 35.6932.0 009.045-5.287l1.658-1.197c8.032-5.702 16.541-11.066 24.77-16.252q3.38-2.13 6.752-4.268a37.9156 37.9156.0 013.442-1.862 32.1467 32.1467.0 004.874-2.801l1.886-1.368c3.293-2.365 6.698-4.811 8.994-8.157 2.8-4.08 6.874-6.1 11.187-8.239 1.705-.845 3.468-1.72 5.157-2.733l1.234-.305c.24.062.6.301.803 1.247a2.401 2.401.0 00.096.328q-1.1675 2.19-2.256 4.421c-2.26 4.646-5.598 8.041-10.824 11.007a66.0112 66.0112.0 00-10.791 7.783 82.9828 82.9828.0 00-6.28 6.358l-3.134 3.343q-.6471.6628-1.2921 1.332c-1.8 1.863-3.6609 3.789-5.621 5.454l-2.974 2.584c-3.3589 2.952-6.832 6.004-10.6219 8.088-.7381.405-1.493.77-2.2921 1.156a20.9857 20.9857.0 00-6.501 4.246 17.3609 17.3609.0 01-2.257 1.859c-.608.448-1.236.911-1.843 1.433l-5.378 4.506a144.5029 144.5029.0 00-13.261 11.921c-2.837 3.009-4.759 6.773-6.618 10.414l-1.893 3.611c-1.833 3.315-1.515 8.807-.018 11.715a25.62 25.62.0 01.974 8.806 32.1024 32.1024.0 00.085 4.608 3.6563 3.6563.0 00-.223 3.401q.414.7309.825 1.469l.003.021.006-.006.02.036a52.9016 52.9016.0 006.684 10.056c1.389 1.524 3.641 1.711 5.628 1.877a17.0637 17.0637.0 012.319.292 7.7393 7.7393.0 01.842.261 14.7876 14.7876.0 004.834 1.438 22.8357 22.8357.0 004.239.427 13.8254 13.8254.0 007.446-2l4.523 2.064a14.1243 14.1243.0 005.706 2.654 11.2343 11.2343.0 012.754 1.02 38.6771 38.6771.0 0112.428 12.877c2.148 3.7 5.502 5.371 8.805 6.624a41.5167 41.5167.0 016.98 3.755l2.605 1.587a9.3958 9.3958.0 011.132.858 8.4792 8.4792.0 002.614 1.667q.0379.2709.085.54l.016.089.024.087c1.158 4.264.404 4.776-.296 5.042a16.5964 16.5964.0 01-3.575.44q-.2081.0-.409-.008c-1.04-.041-2.085-.16-3.191-.286a38.5606 38.5606.0 00-4.285-.325 25.3406 25.3406.0 00-6.226.838 24.273 24.273.0 00-6.463 2.316l-.047.024-.045.027a10.3389 10.3389.0 00-1.935 1.494q-1.49.9262-2.953 1.896l-.294.193c-1.891 1.239-2.864 3.338-3.805 5.368-.376.811-.731 1.576-1.123 2.238-.276.465-.581.887-.904 1.335a14.6583 14.6583.0 00-2.108 3.741l-.099.267-.02.284a7.055 7.055.0 00.606 3.651 17.2523 17.2523.0 00-.915 4.8129l-.036.447.157.419c1.644 4.3511 5.282 7.66 10.521 9.57a4.0751 4.0751.0 00.801.198 12.2438 12.2438.0 006.377 1.795 16.7128 16.7128.0 003.235-.344l2.355.375a3.75 3.75.0 001.519.53l1.795.218a45.7047 45.7047.0 005.731.4769 15.13 15.13.0 008.802-2.471c1.069-.715 2.138-1.469 3.172-2.2 1.661-1.173 3.379-2.386 5.093-3.426q2.1072-1.1231 4.265-2.147l.201-.085c.056-.024.111-.049.168-.07 4.51-1.649 8.887-3.517 12.585-5.133l.977-.3q.3071-.0939.614-.189l.036.1441 2.09-.8121a45.1057 45.1057.0 005.29-2.036q2.7109-1.0319 5.436-2.058l9.595-3.653 4.696-1.326c6.695-.825 12.274-1.892 17.689-4.38l.964-.443.042-.254 5.427-3.954 6.656-4.865.608-.407c2.671-1.779 7.596-5.059 10.313-9.565a9.814 9.814.0 011.377-1.046l.296-.054c4.245-.776 9.043-1.652 12.438-5.866a5.9986 5.9986.0 013.347-.979 17.581 17.581.0 015.147 1.117 18.8815 18.8815.0 00.593 2.98l.83 3.444.06.2641.1271.238 2.587 4.844.109.204.153.174q.683.777 1.358 1.563a50.5333 50.5333.0 007.045 7.135c2.279 1.766 4.431 3.434 5.299 6.059a8.6748 8.6748.0 001.34 2.58c-.588 4.496 1.202 8.03 2.792 11.1659.427.843.838 1.654 1.195 2.46a2.6022 2.6022.0 00-.622 1.265c-.832 4.645-3.2 8.58-5.707 12.7471l-1.615 2.717c-1.963 3.387-1.898 7.183-1.569 10.191q-.2642 1.1207-.577 2.229l-.779.456-.72.421-.207.808c-1.341 5.226-.374 9.554 2.956 13.23a38.6127 38.6127.0 013.793 5.407l.019.033.021.033c4.968 7.847 9.763 13.576 15.092 18.032 2.284 1.91 4.759 3.592 7.152 5.218l3.0881 2.127 4.6929 3.395c3.513 2.569 7.145 5.225 10.9361 7.5591 2.177 1.36 4.4249 2.838 6.672 4.385l2.423 1.846 10.388 7.855q3.8386 3.177 7.4979 6.562c4.044 3.6939 9.51 8.053 16.041 9.063 4.598.711 9.21 1.7069 13.67 2.669l1.2821.2769a12.19 12.19.0 002.558.282c4.048.0 7.453-2.2249 9.846-6.433a24.0636 24.0636.0 014.537-5.604c1.814-1.684 2.97-3.2509 3.142-5.8469a5.0046 5.0046.0 00-.004-1.5591v-9e-4q-.0042-.1683-.018-.336l-.212-2.4341-.7731.227a26.7964 26.7964.0 00-2.474-3.244c-.424-.497-.8169-1.055-1.234-1.646a21.4922 21.4922.0 00-1.844-2.367c-.844-.902-1.65-1.85-2.504-2.854-2.239-2.632-4.5539-5.353-7.556-7.156a60.4252 60.4252.0 00-9.034-4.156 50.6723 50.6723.0 01-9.18-4.331c-1.3851-.903-2.82-1.774-4.2081-2.617-4.488-2.725-8.7309-5.301-11.991-9.163-1.7659-4.115-4.6839-7.05-7.509-9.891a51.1574 51.1574.0 01-4.488-4.917q.139-.252.272-.499a8.8928 8.8928.0 011.594-2.368 41.8533 41.8533.0 016.38-4.047l.035-.018.034-.019c5.197-2.935 10.087-6.033 12.7991-11.625l2.125-4.453c2.4649-5.054 5.993-9.832 9.406-14.453l1.204-1.632q.27-.3671.535-.735a2.9638 2.9638.0 00.855-.812c1.29-1.847 2.455-3.771 3.329-5.248a72.0283 72.0283.0 004.122-7.18 5.1159 5.1159.0 00.698-1.476q.4845-1.0539.921-2.129c3.523-6.861 4.309-14.153 2.545-23.621l-.073-.717c-.304-2.985-.619-6.072-.639-9.063l-.061-15.648c.144-2.329.296-5.087.339-7.941.066-4.366-.029-8.791-.122-13.071-.12-5.535-.244-11.259-.013-16.843.185-4.468-.035-8.861-.249-13.11v-.364c-.004-.869-.053-1.785-.157-2.878a96.0027 96.0027.0 01.107-13.279 157.9106 157.9106.0 00.283-18.535l-.0191-.778.0451-.851q.0418-.791.082-1.579l.087-1.777-.3-.05-.029-3.097a44.94 44.94.0 00-1.305-9.402l-.437-2.09q-.036-.18-.071-.359l.081.071-1.047-5.625-.017-.09-.091-.566c-.565-3.507-1.149-7.132-2.0311-10.709l-1.6109-8.555-.2561-2.126-.729-5.495c-.3469-2.148-.828-4.28-1.293-6.342l-.439-1.963-.68-2.968-1.026-4.632a11.3087 11.3087.0 01-.137-1.606 8.51 8.51.0 00-.783-3.827l-.013-.024-.013-.023a6.0378 6.0378.0 01-.207-5.646l.109-.225.05-.245c.74-3.6349-.363-10.145-4.202-12.942-1.221-2.3029-2.559-4.561-3.856-6.7489-3.267-5.511-6.352-10.717-7.853-16.7571l-.026-.102-.036-.099a11.317 11.317.0 00-2.094-3.56L385.5 168.699l-.092-.125a3.3478 3.3478.0 00-2.38-1.648c-1.514-.112-2.107-.989-3.203-2.804a19.4588 19.4588.0 00-1.288-1.947 25.4175 25.4175.0 00-3.188-3.159 27.8341 27.8341.0 01-2.212-2.09l-1.47-1.59-.559-.602-11.817-15.202q-2.4549-3.165-4.91-6.329a73.6563 73.6563.0 00-4.185-6.792c-4.007-5.65-8.349-11.173-12.549-16.514q-2.073-2.6359-4.136-5.278a13.1626 13.1626.0 00-3.037-2.864c-1.684-1.131-3.412-2.214-5.083-3.261a97.3761 97.3761.0 01-9.243-6.298c-3.597-2.888-7.08-6.094-10.449-9.196l-6.886-6.218c-5.013-4.353-9.209-7.759-13.205-10.717l-.223-.165c-3.568-2.642-7.258-5.374-11.549-6.694a12.01 12.01.0 01-5.512-3.447 14.7658 14.7658.0 00-3.383-2.675q-2.787-1.7051-5.562-3.432c-5.592-3.466-11.375-7.05-17.262-10.264-5.025-2.743-9.104-4.129-12.836-4.363-9.885-.619-18.264-.77-27.136-.93l-9.326-.184-.144-.002c-1.233.0-7.478.557-8.932 1.24-3.626 1.705-5.196 1.94-6.352 1.94a15.3957 15.3957.0 01-1.851-.152q-1.3659-.1825-2.745-.228c-5.274-.14-8.137-2.992-11.875-8.558a10.6628 10.6628.0 01-1.188-3.501c-.56-2.494-1.311-5.844-4.893-7.518l-1.137-3.271c-.898-2.557-1.826-5.202-2.587-7.818l-.143-.499c-.684-2.407-1.718-6.044-6.347-6.045z"/><path class="cls-7" d="M125.473 220.01a21.4084 21.4084.0 00-.036-3.493c-.28-1.672-.805-3.304-1.226-4.953-.864 1.465-2.173 2.838-2.497 4.414-.657 3.196-.267 6.666-1.249 9.721-1.378 4.288-2.831 8.947-5.62 12.316-9.669 11.679-19.99 22.818-29.946 34.263L63.493 297.451q-12.8471 15.015-25.8 29.938a7.1428 7.1428.0 01-1.866 1.126 6.6171 6.6171.0 01.723-2.077l9.091-11.009a14.9008 14.9008.0 001.428-2.791 13.4122 13.4122.0 00-2.453 2.022q-14.92 19.821-29.745 39.714L3.776 369.528a7.6986 7.6986.0 00-.712 1.823 5.63 5.63.0 001.669-.158c8.788-3.71 17.576-7.621 22.341-16.544 2.491-4.665 3.126-10.505 6.182-14.647 6.673-9.043 14.348-17.348 21.643-25.93.859-1.01 1.934-1.833 2.849-2.8l36.121-38.433c6.825-7.676 12.565-16.318 18.776-24.538 6.397-8.466 12.697-16.981 12.828-28.291z"/><path class="cls-7" d="M189.167 425.722a1.0392 1.0392.0 01-.614.729l-8.77 2.454c-.041.01-.399-1.226-.608-1.881l2.688-.75-3.479-.133c-1.821-.089-3.78.21-5.439-.36-7.072-2.428-12.532 1.361-17.8 4.814-2.066 1.354-2.899 4.584-4.304 6.953-.943 1.59-2.047 2.568-2.857 4.752-.31 4.284 3.133 4.603 3.349 4.579 6.362-.728 13.226-.299 18.955-2.64 11.235-4.591 23.616-7.856 31.059-18.889.921-1.365 1.897-2.694 2.847-4.04l-3.934-1.26c-8.018-.007-10.946 1.755-11.092 5.672z"/><path class="cls-7" d="M130.154 92.226c-.23.34 1.161 2.588 1.827 2.6 7.266.14 11.381-5.088 15.802-9.71 1.324-1.384 15.351-3.251 16.774-2.093.786.64 1.503 1.364 2.251 2.05.736-1.623 1.839-3.187 2.108-4.884.287-1.809-.214-3.744-.37-5.623l1.225-.425c-1.872-2.977-3.58-6.074-5.65-8.907-4.261-5.831-7.391-5.378-11.918.467-4.714 6.085-10.157 11.601-15.168 17.462a101.5807 101.5807.0 00-6.879 9.063z"/><path class="cls-7" d="M148.83 124.093c-17.16 1.478-25.487 14.153-19.984 30.42 2.897 8.563 5.357 9.866 12.858 6.806 11.618-4.739 15.765-11.266 15.765-24.815.0-10.457-1.772-13.002-8.639-12.411zm-2.206 15.98c-6.445.0-6.435-10 0-10C153.069 130.073 153.058 140.073 146.624 140.073z"/><path class="cls-7" d="M407.627 216.645c-1.316-3.166-2.851-6.239-4.208-9.388-2.837-6.583-4.736-13.772-8.625-19.651-5.423-8.199-12.426-15.339-18.552-23.091l-28.24-36.256a13.5456 13.5456.0 00-1.847-1.651 18.6615 18.6615.0 00.907 2.354c1.353 2.49 2.029 4.277-2.1789 4.047-1.5141-.083-3.112 1.356-4.672 2.1.197.298.359.825.596.862 8.442 1.297 8.024 10.838 13.686 14.721.572.392.833 1.239 1.238 1.875a8.09 8.09.0 01-2.212.483c-4.761-.323-9.593-.341-14.244-1.261-2.928-.579-5.702-2.353-8.332-3.942-4.679-2.828-10.119-2.12-13.315 1.917-.292.369-1.232.295-1.872.303-2.499.033-5.007-.096-7.494.083a4.7374 4.7374.0 00-2.381 1.344c-2.308 2.008-4.363 5.555-6.841 5.86-5.099.628-6.457 4.253-8.326 7.626-.421.76.294 2.85 1.105 3.38.688.45 2.318-.355 3.435-.83.525-.224 1.143-1.45 1.178-1.426 1.749 1.189 4.515 2.191 4.921 3.785.969 3.81-8.28 13.425-12.438 14.304-2.586.547-4.939 2.203-7.382 3.39-.245.119-.393.438-.586.664a6.2191 6.2191.0 01-.472-1.632l-.085-33.543c.014-3.671.591-7.348.473-11.008-.157-4.867-2.789-10.707 5.583-11.337.356-.027.65-.879.974-1.345 3.675-5.279.387-12.899 5.894-17.623.327-.281.094-1.721-.3259-2.29-5.108-6.921-15.715-6.686-18.735.946-2.085 5.269-6.231 10.958-.21 17.255 2.029 2.122 2.519 8.015 1.052 10.767-5.296 9.937-3.504 20.377-4.036 30.721-.233 4.532-1.629 9.029-2.733 13.484-1.361 5.492-5.915 13.154-3.835 15.9 3.921 5.177 2.29 9.956 2.764 14.775.29 2.947-2.652 6.267-2.227 9.135 1.279 8.625-3.239 23.089-10.819 26.916-7.631 3.852-10.282 11.4669-15.43 17.0959-2.761 3.0191-2.228 8.9151-4.8 12.274a87.6983 87.6983.0 01-14.885 14.918c-7.102 5.678-14.96 10.401-22.343 15.742l-34.231 24.948c-2.382 1.647-6.18 1.245-9.325 1.788l2.143 9.433c.047.219-.444.507-.521.805-1.586 6.09-6.155 6.288-11.183 5.821-.713-.066-1.508.754-2.265 1.164.709.1871 1.414.3931 2.128.5581 1.065.245 2.136.459 3.205.687a13.5233 13.5233.0 01-3.307.403c-1.562-.187-3.067-.991-4.62-1.073a22.3967 22.3967.0 00-5.915.473 41.3075 41.3075.0 00-5.448 1.976c-.062-2.47-.693-5.103-.044-7.37.829-2.896 2.799-5.448 4.05-8.249.457-1.024.263-2.339.366-3.521a17.1965 17.1965.0 01-3.575 1.459 48.779 48.779.0 01-5.622.357c.669-1.568.938-4.046 2.076-4.546 4.952-2.177 10.142-3.824 15.278-5.567 2.267-.769 5.283-.6239 6.778-2.095 2.836-2.79 4.633-6.6 7.196-9.711 7.206-8.742 14.268-17.6329 21.959-25.937L219.1 245.855c8.863-9.209 8.79-21.982 6.388-31.659-2.677-10.784-12.072-20.043-19.157-29.507-2.254-3.011-4.607-4.577-4.125-9.38 2.105-20.988 13.797-34.537 34.328-38.455a3.0659 3.0659.0 001.52-2.549c-5.64-14.26-4.862-28.107 2.093-41.747.528-1.035.089-3.13-.673-4.164-4.528-6.151-10.082-5.732-13.91.912-1.063 1.846-1.862 3.851-3.003 5.642-.459.72-3.464-.886-1.887 1.98-6.422.319-4.89 6.407-7.167 9.74a2.4228 2.4228.0 01-2.321.475l-13.641-8.674c-1.008-.607-2.541-.341-3.832-.477l-.255 8.578.015 9.513c-.013.518-.729 1.019-1.12 1.528-.402-.439-.823-.862-1.201-1.321-.636-.774-1.245-1.57-1.865-2.357a26.0993 26.0993.0 00-1.502 4.45c-.377 2.45.422 6.516-.751 7.144-3.734 1.998-3.228 4.274-1.542 6.775 6.294 9.332 10.282 19.307 7.967 30.712-.705 3.473-2.143 7.746-4.725 9.692a92.1156 92.1156.0 01-17.928 10.091c-4.089 1.827-8.613 5.699-13.319.404-1.532-1.724-3.713-3.608-5.826-3.935-5.329-.825-6.652 3.502-8.084 7.465a44.2582 44.2582.0 01-2.562 5.056c-.838-1.7-1.388-3.646-2.582-5.042-1.788-2.091-4.026-5.361-6.077-5.364-5.616-.008-9.655-1.015-10.892-7.169a4.7493 4.7493.0 00-1.425-1.944l-14.557-15.025c-4.238-4.185-8.939-7.919-12.997-12.262a50.4655 50.4655.0 01-6.785-9.88c-.455-.81.86-2.613 1.361-3.959.657.5721 1.284 1.185 1.98 1.707.883.661 1.822 1.248 2.737 1.866.168-1.372.728-2.834.44-4.102-1.146-5.037-2.248-10.102-3.637-15.071-5.323-6.61-18.68-4.624-28.727-5.668a1.5728 1.5728.0 01-.207.008c-15.535-1.73-37.49-19.249-36.955-18.696 5.385 5.573 10.573 11.389 16.318 16.576 6.18 5.579 12.962 9.539 22.135 8.445 4.095-.489 8.625 1.414 12.763 2.809 7.506 2.529 9.183 7.891 4.763 14.404-1.74 2.564-4.782 4.732-5.368 7.477-.876 4.11-.107 8.571-.037 12.883l8.587-1.47a11.0493 11.0493.0 012.94-.332c7.631.861 14.884 2.522 19.228 9.8331 4.489 7.5549 8.62 15.358 13.611 22.5659 2.732 3.946 6.917 6.887 10.447 10.2811l5.245-8.1771a6.8053 6.8053.0 011.669-1.3009c.537 1.328 1.61 2.6929 1.523 3.979-.537 7.928 2.51 11.888 10.91 10.953.628-.07 2.134 2.28 2.147 3.516.016 1.587-1.068 3.184-1.678 4.777a50.3543 50.3543.0 004.942-2.24 31.08 31.08.0 003.9-2.958c5.664-4.624 10.638-11.188 17.121-13.464 10.383-3.645 15.085-11.449 20.105-19.709 1.064-1.75 2.391-3.34 3.597-5.004l-.78 4.35c-.022.13.123.309.226.435 4.567 5.544 3.403 11.583 1.627 17.729-.662 2.293-1.016 4.676-1.51 7.017-1.004-1.759-1.933-3.568-3.045-5.256-.532-.807-1.397-1.939-2.138-1.96a51.6262 51.6262.0 00-6.658.579c.908 1.379 1.717 2.837 2.742 4.122 4.849 6.0809 9.494 12.486 18.497 12.4689.475-.001.925.902 1.431 1.331 8.882 7.543 6.786 18.316 4.837 26.744-3.932 17-16.004 29.168-29.901 39.529-8.301 6.188-18.083 12.001-23.247 20.41-7.882 12.835-21.767 17.367-31.227 27.496-1.565 1.676-2.887 3.748-4.766 4.928-5.517 3.464-11.335 5.981-15.423 11.8511-4.705 6.756-4.916 8.115.338 14.973 2.551 3.33 5.29 9.459 3.886 12.3479-5.025 10.341.778 14.431 7.756 17.551 4.942 2.21 6.588 1.702 7.549-1.251 1.557-4.785 7.868-6.635 11.534-3.222 3.322 3.093 6.13 2.124 8.33-1.02 3.037-4.339 6.432-8.653 8.367-13.499 8.277-20.728 25.608-33.093 42.427-45.5 16.252-11.989 35.126-19.875 48.167-36.833 8.812-11.459 21.278-20.1181 27.781-33.71a43.3507 43.3507.0 013.484-5.24c.251 2.072.421 4.158.7781 6.211.278 1.595.41 3.429 1.306 4.641.863 1.167 2.622 1.671 3.987 2.466-.1131-1.676.212-3.554-.444-4.98-.939-2.042-2.866-3.626-3.82-5.664-.423-.903.1911-2.691.927-3.595a3.0809 3.0809.0 013.0141-.391 78.9325 78.9325.0 016.5159 6.953l9.227 11.071c1.62 1.871 3.83 3.307 5.151 5.343 1.392 2.145 1.631 5.072 3.123 7.109 1.699 2.32 4.227 4.032 6.394 6.009.164-1.807.397-3.611.474-5.421.078-1.849-.099-3.712.046-5.553a6.3277 6.3277.0 011.056-2.085 5.0317 5.0317.0 011.167 1.053c.569.996 1.004 2.068 1.494 3.109.171-1.133.035-2.455.586-3.355a15.9489 15.9489.0 013.177-3.375c1.761-1.557 4.072-2.692 5.344-4.557 2.216-3.249 3.967-6.108 8.052-2.198.581.556 2.134-.052 3.125.249 4.616 1.402 7.687-3.423 13.713-1.95 5.425 1.326 4.937 2.722 5.357 6.044.175 1.384.456 2.754.689 4.131l1.293-2.67a13.2193 13.2193.0 011.436.912c.676.555 1.294 1.181 1.937 1.776a15.5758 15.5758.0 001.363-2.546c3.5-10.93 6.414-22.093 10.694-32.705 1.622-4.021 8.347-10.169 9.369-9.572 7.006 4.095 13.919.602 20.713 1.245.852.081 1.713.065 2.57.094a7.0583 7.0583.0 00-.031-2.551z"/><path class="cls-7" d="M107.177 82.055c2.443 7.616 6.018 6.414 9.742 6.067l3.304-6.028c.725-1.32 4.166-1.993 6.124-1.65 10.894 1.908 15.946-3.709 14.044-14.821a306.8607 306.8607.0 01-4.061-32.7c-.338-5.455 1.077-10.819 1.702-16.34a21.342 21.342.0 01.162-2.17 6.0373 6.0373.0 00-.552 1.12c-1.03 3.956-1.595 8.102-3.156 11.833-2.01 4.801-3.731 10.624-7.482 13.622-9.813 3.105-9.717 5.403-12.739 9.328-5.168 8.573-9.852 20.85-7.844 29.237l.755 2.503zm17.835-11.218a21.1321 21.1321.0 002.411-6.55l4.06-20.902c.089-.434 1.378-.621 2.109-.923 1.398 9.061 3.486 18.089 3.932 27.197.263 5.374-.906 5.432-10.133 5.493h-6.674c1.463-1.42 3.277-2.627 4.296-4.314z"/><path class="cls-4" d="M410.042 214.954c-4.21-9.459-11.219-17.529-13.776-27.824a9.36 9.36.0 00-1.776-2.991q-5.2581-7.1481-10.59-14.24c-.285-.381-.655-.953-1.019-.98-3.492-.257-4.238-3.354-5.922-5.517-1.332-1.71-3.871-3.526-5.316-5.148-.317.227.342.9.589 1.251 2.48 3.838 7.217 6.285 4.349 12.717 3.697-3.043 5.201-.778 6.72 1.612 1.239 1.949 2.71 3.761 3.845 5.766q6.2 10.9519 12.208 22.011a21.4173 21.4173.0 011.327 3.885l-13.08 1.585a22.3123 22.3123.0 00-3.929-2.92c-2.62-1.229-6.992.294-7.753 2.406-.87 2.415-2.636 3.469-4.459 2.194a34.8625 34.8625.0 01-11.51-12.66c-.958-1.869-2.876-3.245-4.356-4.846l-5.651 5.312c-.565.562-.795 1.914-1.317 1.994-3.229.491-3.776 2.964-4.143 5.43a36.862 36.862.0 00-.051 5.379l-.777-.002v-4.799l-.841-.165-1.674 5.604-.735-4.941-1.363.172c0 2.814.627 5.822-.168 8.389-.879 2.836-2.496 6.553-4.81 7.572-3.349 1.474-4.5 3.663-5.158 6.549-.669 2.93-.87 5.965-1.363 8.94a1.7093 1.7093.0 01-.959 1.142c-5.192 1.578-9.458 6.407-15.5 4.121-.615 1.429-.835 2.704-1.574 3.496-1.406 1.505-3.283 3.997-4.651 3.809-2.677-.369-6.512-1.699-7.39-3.712-1.605-3.679-3.888-7.654-2.537-12.223.322-1.089-.287-2.59-.79-3.763-2.399-5.596 1.048-12.901 6.477-15.46a19.6392 19.6392.0 007.24-6.757c2.179-3.217 3.416-7.069 5.08-10.637.653-1.4 1.361-2.775 2.327-4.736-6.516-.145-11.829-1.586-17.491 2.074-3.788 2.448-7.18 4.445-8.354 8.849-1.184 4.442-2.204 8.944-2.982 13.473-.634 3.692-1.685 6.589-5.94 7.463-3.286.674-4.936 3.062-6.183 6.308a192.8206 192.8206.0 01-10.03 22.825c-2.736 5.049-7.195 9.132-10.471 13.928-5.176 7.576-13.486 12.673-16.935 21.611-.296.768-1.537 1.183-2.357 1.736-11.513 7.761-22.666 16.091-35.268 22.126a20.2706 20.2706.0 00-3.565 2.649c-4.53 3.596-9.299 6.94-13.512 10.878-6.727 6.288-13.499 12.619-19.438 19.622-3.663 4.32-5.872 9.89-8.633 14.954-2.856 5.238-9.72 7.243-10.233 14.237-4.069-2.606-6.888-5.652-11.408-5.252-1.137.101-2.554-.779-3.539-1.58a75.8556 75.8556.0 01-6.038-5.578c-2.267-2.295-4.913-4.164-5.409-7.956-.222-1.698-2.419-3.252-3.934-4.637-1.75-1.6-3.736-2.941-5.945-4.645 3.32-3.152 6.144-5.755 5.783-10.149-.069-.837 1.161-2.047 2.077-2.655 4.662-3.092 9.142-6.675 14.212-8.876 5.708-2.477 11.203-4.844 15.341-9.709q12.495-14.687 25.185-29.205a48.1059 48.1059.0 015.855-5.259c6.236-5.113 13.659-8.555 19.215-14.723 8.06-8.947 16.39-17.64 20.93-29.033a38.1423 38.1423.0 002.639-10.903c.272-3.398-.954-6.893-.913-10.339.082-6.889-3.576-11.478-8.625-15.355-1.175-.902-2.549-1.54-3.768-2.39-4.639-3.235-7.903-7.029-5.394-13.226a22.4812 22.4812.0 00.911-3.846c1.785-8.528 2.808-17.124 5.547-25.57 2.59-7.989 6.097-16.345 3.859-25.605h-3.962c.533 6.289-2.295 11.201-5.706 16.066-3.118 4.447-5.637 9.2489-6.139 14.9429a32.4742 32.4742.0 01-2.372 10.0871c-1.565 3.5619-3.361 7.67-6.307 9.8549-8.47 6.2831-17.585 11.696-26.411 17.504-1.442.9491-2.566 1.4171-3.507-.532a1.445 1.445.0 00-1.069-.744q-4.9119.5021-9.806 1.1691c-4.539.61-6.838-1.3-7.126-5.957a18.5564 18.5564.0 00-.424-4.443c-1.518-4.748-4.487-5.405-8.435-2.28a7.4512 7.4512.0 01-3.918 1.064c-3.624.26-5.139-2.433-6.665-5.06-1.906-3.28-3.721-6.625-5.816-9.782-2.005-3.022-4.621-5.664-6.428-8.786-2.76-4.769-6.195-8.462-11.545-10.301-3.948-1.357-6.91-3.844-7.925-8.223a22.928 22.928.0 00-1.859-4.062c-1.617-3.54-2.4-6.801-.564-10.866 2.834-6.276-1.27-12.401-8.204-13.178-4.27-.478-8.563-.894-12.855-1.01-12.029-.323-22.03-5.096-30.441-13.488-3.11-3.103-9.714-8.958-10.028-8.68 1.303 1.572 2.456 3.247 3.804 4.778l19.307 21.864c1.712 1.949 3.496 3.395 6.379 3.173 3.052-.235 6.136-.053 8.983-.053-2.117 2.261-5.473 4.208-5.466 6.144.02 5.739-1.494 11.821 1.772 17.2509.581.823 4.385 10.8261 4.935 12.693 2.147 5.953 3.707 6.561 8.747 2.831 6.15-4.551 13.073-5.657 20.292-4.768 5.01.617 9.666 2.665 12.084 7.669l8.587 18.395c2.272 5.214 4.691 10.307 9.687 13.421 5.205 3.244 10.742 1.9341 11.23-4.254.045-.574.771-.9519 1.186-1.442a1.3487 1.3487.0 01.241 1.119c.057 4.959 1.213 9.187 6.235 12.041 2.06 1.1711-.182 4.3631-1.746 5.114a6.0541 6.0541.0 01-6.191-1.9349 17.3448 17.3448.0 00-7.696-4.98c-5.374-1.45-10.994-2.036-16.541-2.756a3.4429 3.4429.0 00-2.834 1.481c-2.231 4.799-2.859 9.506 2.938 12.274 2.556 1.22 5.726 1.289 8.647 1.582 4.512.452 6.537 2.103 5.771 6.398-.89 4.988-1.619 10.543-4.331 14.559-6.645 9.84-14.262 19.041-21.741 28.294-4.665 5.772-9.901 11.079-14.671 16.771-3.395 4.052-5.958 8.901-9.731 12.52-12.255 11.755-23.383 24.505-34.236 37.509-4.741 5.681-10.169 11.019-12.03 18.577-2.611 10.601-9.722 16.324-20.112 18.733l8.642-11.0921-.858-.647c-3.465 3.955-6.82 8.0141-10.429 11.832-3.048 3.224-2.856 6.4-.61 10.129.758-.406 3.883 2.863 4.509 2.272 23.144 2.18 129.527-125.373 198.904-141.64-3.694 6.435-7.552 12.802-10.792 19.464-2.619 5.3851-6.547 8.9841-11.636 11.8721a63.8241 63.8241.0 00-10.45 7.539c-3.341 2.9289-6.195 6.41-9.311 9.6019-2.299 2.356-4.547 4.788-7.049 6.913-4.504 3.826-8.826 8.0961-13.927 10.9-2.855 1.569-5.949 2.559-8.31 5.03-1.245 1.303-2.863 2.241-4.242 3.427-6.23 5.361-12.879 10.333-18.488 16.284-3.557 3.773-5.644 8.967-8.216 13.62-1.686 3.049-1.129 9.095.726 10.827 5.687 5.31 5.742 6.154 1.192 12.795-.597.872-1.447 2.359-1.109 2.955 2.2 3.886 4.307 7.959 7.275 11.213 1.305 1.431 4.575 1.02 6.925 1.569 1.279.2991 2.472.9591 3.748 1.277 4.678 1.1651 9.254 1.35 12.956-1.493l11.038 5.036c115.882 19.245 116.632-117.85 128.137-127.41 97.346 177.7571 135.977-20.448 136.435-20.358.365-7.503-1.408-11.907.306-18.899.37-1.51-1.097-3.073-1.765-4.574zM187.566 433.4c-6.953 2.534-13.975 4.913-21.074 7.001a99.955 99.955.0 01-14.002 3.009c-3.814.546-4.506 3.47-4.816 7.367 5.285 1.221 30.384 9.53 34.44 7.659 80.936-37.34 33.447-47.298 3.391-43.443a13.1716 13.1716.0 00.19 1.754c1.682 6.194.351 8.015-5.912 8.035-.832.002-1.671-.137-2.492-.056a9.1374 9.1374.0 00-1.832.566c4.619.846 8.956 1.178 12.975-1.724a29.5215 29.5215.0 017.182-3.313c1.155-.424 2.539-.221 4.177-.325-2.818 3.73-5.031 6.934-7.55 9.877a12.162 12.162.0 01-4.676 3.593zM131.612 76.236c5.601.168 8.655-2.87 8.096-8.493-.764-7.694-2.147-15.325-3.154-22.997-.962-7.33-2.858-14.675.117-22.013a7.7858 7.7858.0 00.043-2.727c-.322-.05-1.756 3.607-2.314 5.435-2.045 6.706-4.197 13.317-11.432 16.51-1.432.632-2.493 2.139-3.74 3.191.191.222 6.704-1.861 9.17-2.834l-3.022 18.57c-.614 3.758-2.186 6.846-6.001 8.637a43.3619 43.3619.0 00-3.289-4.455 24.7393 24.7393.0 00-3.589-2.678c-1 1.39-2.717 2.705-2.872 4.184-.546 5.231-.862 10.584 3.556 15.487 5.219-5.217 11.624-6.022 18.43-5.818zm-3.122 67.593c-.485 5.07 1.493 9.046 4.181 12.69 1.429 1.938 3.214 2.645 6.006 2.023 13.935-3.103 21.167-14.834 17.43-28.549-.774-2.842-2.206-4.315-5.126-4.334a25.8211 25.8211.0 00-16.52 5.662c-4.085 3.215-6.828 7.233-5.97 12.507zm21.375-7.911c-.176 1.118-1.903 2.785-2.913 2.757s-2.645-1.786-2.76-2.912c-.116-1.859 1.484-3.817 3.027-3.817 1.935.088 2.994 2.148 2.645 3.972zm74.026 1.363c.414-6.818.577-13.651.797-20.479.007-.221-.413-.456-1.158-1.226a20.63 20.63.0 00-4.218 12.465l-.734-2.394-1.532-.221-1.291 17.712c4.511-1.495 8.013-3.846 8.135-5.857zM159.412 78.635c.26.202.467.569.749.631 2.162.477 4.486 1.531 6.444 1.068.979-.231 1.296-3.264 1.912-5.03.452-4.412-1.953-7.038-5.006-9.284-1.67-1.228-3.555-1.229-4.808.447-1.838 2.458-3.933 5.01-4.665 7.845C153.802 75.229 157.511 77.162 159.412 78.635zM70.796 103.674c.844.077 2.349-.194 2.513-.665 1.076-3.102 3.482-5.991 2.166-9.706l-18.818 8.608 4.579.592 9.561 1.171z"/><path class="cls-6" d="M424.595 414.34a46.4113 46.4113.0 01-1.387-9.958c.142-7.557 1.026-15.101 1.141-22.658.152-9.986-.546-19.997-.133-29.966.411-9.926-1.231-19.759-.292-29.735.824-8.752.148-17.646.14-26.477-.003-3.804-.961-7.404-1.703-11.1-1.218-6.065-1.818-12.259-3.438-18.33-1.314-4.924-1.53-10.135-2.348-15.2-.445-2.752-1.114-5.469-1.711-8.196l-1.715-7.645c-.315-1.617.016-3.512-.716-4.863a8.0431 8.0431.0 01-.2749-7.515c.595-2.923-.2941-9.044-3.7761-11.165.373.871 1.6571 4.571 2.0281 5.036 2.149 2.699.173 5.26-1.658 6.993-.983.93-2.763.26-4.523.459-1.739.196-3.457.576-5.185.875 11.586 4.728 12.979 4.865 11.954 12.792l-7.072-3.772-1.937 9c-1.81 2.747-7.199-1.27-9.487 2.984l5.748 7.652-3.81-1.13a12.661 12.661.0 01-2.471 2.269 10.5426 10.5426.0 01-2.973.539l-.0021.798 3.192 1.397-2.678 2.377a6.7419 6.7419.0 00-1.804-1.447 2.4981 2.4981.0 00-2.118.216 2.1291 2.1291.0 00-.113 2.02l7.656 12.56c.128.211.017.568.017 1.102l-3.524-2.528a13.1357 13.1357.0 00.291 2.9419 4.853 4.853.0 001.308 1.47c.456.4461.955.848 1.434 1.27l-.517.533q-2.8849-2.1129-5.77-4.225-.4579.5271-.917 1.055l8.8631 11.206-7.1131 1.005c.866-5.765-4.131-3.897-6.459-6.23l-.315 5.73c-1.713-.624-3.751-.72-4.416-1.726-2.195-3.32-5.281-3.534-8.148.026l9.687 10.146c-3.032.383.388 2.371.48 4.52l-11.9071-5.464-5.0239 3.328c-1.0621-2.302-1.747-4.023-2.639-5.629a18.0572 18.0572.0 00-2.093-2.57c-2.822 2.561-2.465-.942-3.257-1.854a11.8046 11.8046.0 01-1.439-3.27l-1.798.124c-.652 5.26-.142 10.63-.34 15.937l-.714 15.368-1.801-.304c.085 4.308-4.091 4.407-7.047 7.707l-2.785-14.263-1.691 1.56c-3.053-.555-5.197-1.091-7.373-1.313-5.696-.579-8.549-5.514-12.844-8.228a.9379.9379.0 01-.227-.887c1.913-2.812-.999-3.656-2.097-5.234-2.029-2.914-5.201-5.602-5.837-8.794a14.6809 14.6809.0 00-10.178-11.667 44.89 44.89.0 01-17.609-11.144c-4.828-4.96-5.137-5.027-10.148-.004-1.826 1.83-3.137 4.173-4.69 6.276a32.5317 32.5317.0 01-2.037 2.673c-4.932 5.4-6.494 11.684-5.051 18.794a9.9587 9.9587.0 01.141 1.9891c-.001.647-.09 1.295-.141 1.9419-.407.023-.331-.681-.738-.658-1.83-3.0639-1.193-6.168-1.745-9.1059-2.409 1.279-5.428 2.7439-7.944 3.991-2.285 1.133-4.678 2.053-6.944 3.22a40.0838 40.0838.0 00-3.664 2.4809c-4.884 3.25-9.861 6.369-14.641 9.7651-4.409 3.133-8.548 6.6449-12.931 9.818-1.847 1.337-4.44 1.8259-5.954 3.4079-4.404 4.603-8.438 9.561-12.597 14.397-.158.184-.114.54-.22 1.124l2.678-.502.32.815-5.949 2.289a3.863 3.863.0 003.244.731c3.804-.748 7.412-1.051 9.682 3.231l-2.222 1.006c-1.059-3.369-3.871-1.737-5.715-1.608-3.213.225-5.762 2.297-8.52 4.009-2.705 1.679-6.544 1.531-9.885 2.185l.255.726 18.672 5.432q-.1.669-.199 1.338c-2.818.7211-5.612 1.895-8.461 2.051-3.577.195-5.269 2.37-8.006 5.34 3.001.0 5.06.399 6.88-.089 3.115-.834 6.056-2.2919 9.117-3.3569 2.431-.8461 4.793-1.089 6.062 1.901-2.919 2.574-7.908-.159-10.384 4.798l6.671 1.153c-16.402 1.966-22.547 3.945-24.976 7.749l25.502-4.406c-.633 3.43.617 4.974 4.409 4.448-7.915 4.9419-22.774 8.601-32.227 8.233l3.611-2.925-.347-.692-8.033 2.754-.679-4.576c-7.31-1.227-13.325 6.784-19.788 8.834 2.412 2.3 6.326 2.294 8.445 3.693a40.46 40.46.0 0113.049 13.53c1.774 3.056 4.521 4.53 7.791 5.77 3.489 1.323 6.632 3.575 9.888 5.487 1.28.752 2.353 2.157 3.696 2.445 5.917 1.272 11.908 2.192 17.85 3.351 2.771.541 5.493 1.337 8.234 2.017-1.752 6.76-6.726 9.667-11.2 13.212l6.6 3.025c-8.25 9.004-18.386 14.424-31.638 14.885l2.513-2.65-13.951-2.665a7.0774 7.0774.0 00-3.38.374c-3.895 1.368-7.74 2.883-11.958 4.477 1.585 4.195 5.1 6.854 9.335 8.397 1.279.466 3.965-.284 4.651-1.35 1.831-2.845 3.291-1.849 4.981-.255 1.442 1.36 2.667 3.88 4.194 4.051 5.008.561 10.219 1.74 14.994-1.451 4.336-2.898 8.528-6.389 13.323-8.143 9.654-3.531 18.834-8.086 28.316-11.962 2.409-.985 4.767-2.496 7.263-2.79 7.94-.936 15.908-1.543 23.283-4.93.314-3.133-1.446-1.782-3.926-.646 2.067-2.653 3.31-4.433 4.743-6.043 2.065-2.322 2.687-4.166-.084-6.717-2.236-2.058-3.638-5.023-5.424-7.608 4.902-3.148 15.666-7.953 18.461-7.629a30.1028 30.1028.0 019.644 2.608c1.137.555 1.161 3.391 1.777 5.476 4.543-.851 9.244-1.437 12.404-5.581l-.697-.195c.021-.076.052-.153.078-.23-1.31-.388-3.974-1.191-5.522-1.748-4.419-1.589-3.882-5.953-4.4-9.205-.756-4.75-1.196-9.136-7.191-10.265q.097-.5379.194-1.076l9.129-2.138c-.17-1.076.166-3.766-1.021-5.154-1.308-1.531-1.298-2.313-.474-3.744 2.516-4.375 2.199-8.945 1.729-13.84-.379-3.947 1.103-8.072 1.759-12.118l1.121.118 1.886 7.378 1.529-2.727 6.391 15.128-.769.67-4.519-5.1789-2.224 16.1919c-.319 2.911 1.158 4.891 4.216 4.956 2.944.063 3.62 1.836 3.705 4.183.091 2.496-.036 5.0021.092 7.495.04.776.599 1.526 1.266 3.1051 2.23-5.723 3.871-10.67 6.069-15.356 1.929-4.113 3.849-7.941.151-12.014-.039-.043.29-.421.45-.641 3.805 1.988 5.191 4.913 3.846 9.213-1.145 3.661-2.753 7.178-4.097 10.606l-1.604-1.238c-.647 2.9549-2.731 6.756-1.605 8.665 1.683 2.854 2.529 6.193 4.729 8.822 1.148 1.371 1.035 3.77 2.134 5.216 2.19 2.8819 1.821 4.617-1.928 6.043 3.151 3.397 5.935 7.209 9.519 9.987 2.602 2.017 4.936 3.878 5.973 7.012 1.257 3.802 4.352 4.315 7.875 4.8039-.436 2.706 1.231 4.2261 3.816 4.539v7.676l-.686-.04v-6.642l-.816-.055-2.905 16.883 14.339-6.674.7049 5.906.922.692 1.3811-3.323 3.993 4.798-3.799 9.599.864.51 3.216-2.464-2.15 6.359 8.104-4.695 1.023 15.6571 5.365-6.464.801.576c-2.559 3.406-.267 9.24-6.084 11.432 3.2049-.3681 7.509-.53 8.556-2.4591 2.427-4.4729 7.6659-8.094 6.133-14.422l2.264 4.804c2.988-5.105 1.943-10.067 1.891-15.018a100.1637 100.1637.0 012.286 10.41c.204.983 1.14 1.814 1.74 2.715l.789-.541q-.7751-4.6279-1.55-9.256l.771-.156 1.838 5.644.938-2.108 2.653 3.624 3.602-6.495.649 2.606c1.092-4.387 3.685-7.152 7.187-9.712 3.341-2.442 5.927-5.919 8.845-8.941 1.32.418 2.942.468 3.45-.259 2.151-3.082 3.977-6.391 5.889-9.637.061-.104-.239-.42-.454-.774l-2.095 1.972-.839-.591 3.71-7.815 2.448 1.578c4.251-7.893 4.071-15.865 2.408-24.027zM201.53 379.334c-8.089 2.162-16.196 4.256-24.402 6.036 8.394-3.516 16.544-7.797 25.869-8.372l.445 1.094A7.4466 7.4466.0 01201.53 379.334zm111.975-9.917h13.118q.116.3341.233.669l-7.811 2.57 2.57 5.325c-3.961-1.138-5.972-4.615-8.109-8.565zm24.654 28.365c-1.433-.479-3.045-.688-4.26-1.496-2.195-1.46-3.969-3.38-7.08-1.766-.885.459-2.594-.671-4.313-1.19l6.731-8.205c6.197 1.785 7.108 7.171 9.587 11.366zm-3.465-16.718c3.792-2.26 9.316-2.664 16.488-1.427-2.963 4.792-9.888 5.511-16.489 1.427zm30.358-69.446c-.807 2.368-2.8 4.332-4.786 7.203-4.188-5.99-2.753-12.109-2.961-17.94l.429 3.224c2.504.299 5.541-.195 6.948 1.094 1.171 1.072 1.043 4.446.37 6.419zM6.976 386.589c1.97 2.805 3.589 6.581 7.892 2.672.295-.268 1.297.4 1.86.241 2.965-.838 6.223-1.273 8.761-2.846a78.4541 78.4541.0 0010.493-8.3811c2.802-2.4949 5.474-4.9689 6.687-8.9769.713-2.3551 3.552-4.087 5.498-6.037.799-.801 2.723-1.463 2.52-2.096-1.797-4.678 1.922-3.774 4.17-4.44a1.6012 1.6012.0 00.19-.07 8.5375 8.5375.0 001.921-1.1691.564.564.0 00-.136-.9949l-4.437-1.554c-.492-.252-.338-.955-.089-1.017l8.84-2.476a.44.44.0 00.313-.4451 6.1769 6.1769.0 011.422-4.957c5.518-7.4469 11.713-14.112 19.968-18.7059 2.376-1.323 4.123-3.746 6.248-5.56 2.516-2.149 4.844-4.809 7.759-6.14 5.987-2.733 11.754-5.519 15.845-10.927a6.4621 6.4621.0 013.013-2.17c3.86-1.372 6.889-3.876 10.198-6.225 10.243-7.272 20.996-13.831 31.607-20.578 2.64-1.679 5.703-2.738 8.201-4.584 3.707-2.74 7.896-5.37 10.421-9.048 4.284-6.241 11.127-8.053 16.966-11.557 2.036-1.222 4.385-.708 5.019 2.238a.4359.4359.0 00.73.22c5.115-5.184 7.7-11.317 9.854-17.498 1.183-3.395 1.146-7.347.982-11.03a9.6172 9.6172.0 00-2.841-5.902c-5.363-4.733-11.049-9.1-16.58-13.645-.966-.794-1.696-1.877-2.667-2.664-2.674-2.165-5.669-4.318-8.931-5.229a1.087 1.087.0 00-1.153.412l-.149.2a1.0969 1.0969.0 00-.008 1.299l1.99 2.745a.437.437.0 01-.166.662c-3.329 1.376-5.93-.412-7.928-2.003-3.08-2.454-5.143-1.218-7.361.742l-11.029 9.992c-3.404 3.099-7.59 3.675-11.929 3.603-2.417-.041-4.835-.53-7.242-.458-5.175.155-5.847 1.319-4.835 6.442a26.1808 26.1808.0 01-4.38 20.773c-2.039 2.919-4.332 5.659-6.432 8.537-2.313 3.169-4.68 6.314-6.763 9.632-2.647 4.215-4.493 8.769-7.786 12.8-2.194 2.686-5.123 5.449-6.544 9.489a16.5048 16.5048.0 01-9.242 9.544c-1.815.709-3.574 3.051-4.215 5.021-2.658 8.165-9.556 12.805-15.817 16.927-8.201 5.398-14.024 11.781-17.388 20.823a10.5819 10.5819.0 01-3.675 4.413 62.34 62.34.0 01-6.844 4 .429.429.0 01-.633-.454l.625-3.19c-.873.081-1.553-.054-1.747.193-3.027 3.856-6.002 7.738-6.082 12.9979-.058 3.8031-.141 7.6091-.388 11.403-.24 3.674-2.568 5.354-6.038 4.501a9.76 9.76.0 00-7.752 1.19 27.0443 27.0443.0 01-5.798 2.723c-9.539 3.014-10.97 10.285-5.277 16.185a3.2974 3.2974.0 01.288.408zm167.96-177.002a.442.442.0 01.266-.406c3.065-1.263 5.208 1.515 7.342 3.99 1.568 1.818 2.716 4.115 5.766 3.185.384-.117.962.203 1.256.016 3.555-2.264 3.571-2.216 6.12 1.002 2.148 2.711 4.362 5.385 6.728 7.904 2.048 2.18 1.378 4.263.624 6.718-1.976 6.441-6.765 8.767-12.849 9.85-2.044.364-3.992 1.679-5.806 2.838-2.273 1.452-4.445 3.063-6.632 4.649a1.098 1.098.0 01-1.145.088l-1.074-.55a1.097 1.097.0 01-.597-.976zM155.916 241.9h0a1.0969 1.0969.0 011.148.959l2.219 17.355c.345 2.567-.737 4.045-4.06 5.128a.4281.4281.0 01-.556-.436c.444-7.2691.134-14.602.208-21.921a1.1009 1.1009.0 011.042-1.086zM59.974 126.151c-2.559 6.88-1.301 13.553-.744 20.269l-3.494-6.826c0 2.198-.328 3.462.053 4.454 2.54 6.618 4.706 13.457 8.003 19.689 4.475 8.457 9.446 16.551 17.308 22.759 7.782 6.144 14.603 13.504 21.865 20.309a4.2948 4.2948.0 001.217.576c.214-.197.401-.285.417-.398.118-.815.2-1.636.295-2.454.7-6.02 1.202-6.371 7.248-5.498 1.308.189 2.685-.096 3.99.1 5.979.897 12.162 1.152 16.523 6.434 3.669 4.444 6.556 3.111 10.737-2.251-6.945-2.465-7.241-9.382-8.828-15.323a7.9186 7.9186.0 00-1.926 3.664c-.375 3.131-2.152 4.471-5.063 4.073a14.1163 14.1163.0 01-5.964-1.803c-4.467-3.069-6.708-7.828-8.782-12.703-2.559-6.014-5.356-11.929-8.157-17.835-2.397-5.054-6.941-7.705-12.057-8.374-6.877-.899-13.762-.468-19.93 3.726-7.187 4.888-7.375 4.723-10.136-3.629-.298-.903-.488-1.841-.803-3.054h5.333c.282-2.702.694-5.247.775-7.802.085-2.662-.014-5.114 2.276-7.255 1.03-.963 1.596-4.386 1.176-4.629-3.709-2.149-6.078-7.043-11.335-6.22zM95.61 185.924c-5.752-1.897-11.294-4.241-15.831-8.983 4.784 1.568 9.302 2.366 15.418 5.052C97.283 182.722 98.687 186.616 95.61 185.924zM75.065 159.94a17.2 17.2.0 0126.522 10.15c.29 1.256.624 2.502 1.035 4.141l-8.086 1.474a19.5511 19.5511.0 01-20.743-11.001c-.949-2.196-.994-3.238 1.272-4.764zm59.279-6.854a7.7863 7.7863.0 005.676 1.872c10.505-1.774 14.805-7.954 15.861-18.194-.109-6.576-2.356-9.728-7.023-8.834-4.268.817-8.791 1.888-12.427 4.113-9.42 5.764-8.387 15.338-2.088 21.043zm12.536-22.183c6.445.0 6.435 10 0 10-6.44499999999999.0-6.435-10 0-10zM45.451 121.328c5.216 3.566 8.446 8.621 11.275 14.292-.139-2.807-1.133-5.962-.172-8.32.93-2.283 3.871-3.747 6.594-6.16-2.796-.127-5.191-.61-7.459-.263-5.35.821-8.75-1.412-11.256-5.921a23.1342 23.1342.0 00-4.017-4.949 14.1961 14.1961.0 00-3.339-1.856l6.625 11.422a5.9577 5.9577.0 001.75 1.755zm60.076 245.226c2.255-2.377 4.778-5.014 4.168-8.596-.488-2.869-1.661-5.634-5.411-5.934 2.031 7.411.595 9.357 1.242 14.53z"/><path class="cls-6" d="M295.606 406.203l.008.002c4.088-2.804 8.04-.986 12.28.32a24.6862 24.6862.0 00-5.552-5.447c-2.063-1.592-3.997-1.385-5.276.922a24.7739 24.7739.0 00-2.08 3.777l.775.228c-.05.07-.105.13-.156.197z"/><path class="cls-6" d="M295.606 406.203l.156-.197-.775-.228-.078.23zM83.983 165.623a23.0475 23.0475.0 007.784 2.371c3.76.3 4.064-.395 3.497-5.089-1.896 2.336-4.086 2.918-6.398 1.319a12.8307 12.8307.0 01-2.17-2.686l3.489-2.095-.203-.752c-1.763.199-3.64.094-5.251.698-1.202.451-2.767 1.744-2.876 2.797a4.362 4.362.0 002.129 3.438z"/><path class="cls-8" d="M437.955 545.832c-1.073-1.258-1.893-2.742-3.018-3.9451-3.118-3.3339-5.846-7.39-9.629-9.661-5.735-3.4439-12.704-4.893-18.277-8.526-6.561-4.278-13.99-7.6519-18.544-14.737a44.384 44.384.0 00-8.038-8.691c-3.525-3.142-3.978-6.545-.293-9.577a51.71 51.71.0 018.401-5.313 29.3219 29.3219.0 0012.768-13.763c2.85-5.867 6.944-11.1789 10.839-16.479 7.363-10.019 13.747-20.37 13.144-33.4459-.251-5.4541-1.204-10.89-1.239-16.3371l-.106-66.9809c-.015-3.776-.987-7.5581-.895-11.323.217-8.949.807-17.888 1.239-26.682-3.245-.542-5.598-1.009-7.973-1.309-2.206-.279-4.434-.38-6.652-.56l-.114 1.22 5.266 5.656c-4.56 1.164-3.957 1.048-2.678 4.94.869 2.644.571 7.886-.882 8.613-2.958 1.48-2.288 3.402-2.131 5.142.38 4.212 2.512 8.675 1.627 12.502-1.577 6.818 1.102 13.173.493 19.847-.578 6.338.604 12.837 1.012 19.265l.433.034q.256-2.5331.511-5.067c.961 4.567.811 9.265 1.995 13.598 2.078 7.606-4.037 12.583-5.555 19.006-.41 1.734-1.249 2.539-.369 4.623a8.754 8.754.0 01-.185 6.925c-.683 1.168-3.916.952-6.026 1.143a49.2642 49.2642.0 01-4.987-.064c-6.308-.075-11.883-9.648-9.365-15.193-2.13-1.664-5.899-3.301-5.851-4.819.135-4.326-3.005-6.037-5.071-8.534-2.307-2.789-5.103-5.172-7.634-7.68l2.308-1.74c-.891-3.327-2.449-6.413-2.351-9.445.137-4.23-.955-6.726-5.54-7.317 4.738-.372 9.552.292 12.465-4.544-4.075-3.891-8.442-5.922-13.992-4.317a3.3987 3.3987.0 01-2.603-.331c-4.784-3.515-10.08-2.25-15.738-1.6189.422-2.507.037-5.4631 1.328-6.805 2.766-2.876 1.86-5.054-.23-7.22-2.422-2.51-4.556-5.86-9.121-3.7561-8.784 4.047-16.197 1.0231-21.1051-7.2479-4.165-7.019-9.3359-13.441-14.0069-20.051-4.36 8.121-4.132 10.682 1.409 17.583a4.329 4.329.0 01.578 2.895c-.866 8.188-12.247 13.604-19.901 10.579-5.417-2.14-8.774-5.242-10.4031-10.624 3.0441-2.436 2.362-5.912-1.8479-9.284l-1.2041 13.035c-5.015 1.333-6.443-.932-7.319-4.509a54.6135 54.6135.0 00-3.452-10.043c-2.5109-5.39-5.408-10.6-8.367-16.32l-1.881 3.053-.46-5.158-1.224-.039q-.473 5-.947 10l-1.7-.2q.3671-4.9511.734-9.901l-1.23-.189-2.006 12.643-1.103-.103q.348-5.511.697-11.022l-1.047-.069-1.94 3.939c-1.518-.796-2.948-2.202-3.9389-1.941-2.948.776-6.2531 1.594-8.463 3.502-5.785 4.995-10.737 10.977-16.649 15.795-4.416 3.599-5.1471 8.011-5.213 13.076l4.854-11.315v15.248l1.039-.006 2.882-4.067 3.078 12.425-25.138 2.262 7.4 3.598c4.72 2.186 9.27 4.7609 14.923 3.426 2.46-.581 5.172-.098 7.769-.098l-.012 2.4509c-3.705.0-7.413-.069-11.114.051a5.3338 5.3338.0 00-2.544 1.0921c-1.279.864-2.318 2.226-3.698 2.7659a37.3681 37.3681.0 01-6.068 1.343c9.962-.872 19.805-.355 29.66-.266q.033.904.066 1.807L207.159 367.2c1.461.763 2.284 1.584 3.006 1.504a84.3475 84.3475.0 0011.076-1.71c2.778-.694 4.618-.437 5.859 2.59l-8.161.768 5.054 2.676-3.995 2.55 6.117 1.5711c-2.77 1.313-7.36 1.976-8.437 4.281-3.399 7.272-9.212 4.939-14.549 5.06-1.788.041-3.985-.608-5.298.196-8.901 5.45-18.6 2.739-27.986 3.099a7.9106 7.9106.0 01-2.65-.613l-13.686-4.603-.716 1.29a42.8235 42.8235.0 0010.967 11.273c4.403 3.303 8.321 7.284 12.863 10.359a44.76 44.76.0 0012.286 6.137c7.636 2.212 15.551 3.446 23.294 5.318a4.5041 4.5041.0 012.698 2.8 13.5241 13.5241.0 01.12 4.209c2.873 2.303 4.914 3.83 6.764 5.56.239.223-.301 1.742-.857 2.246a20.9351 20.9351.0 01-3.261 1.998c-9.858 6.031-19.447 12.573-29.662 17.921-6.433 3.368-13.684 4.088-19.787-1.926-.448-.442-1.671-.088-2.532-.123-5.437-.217-11.336 4.957-16.333-1.647 1.054 5.046 7.626 9.615 12.989 10.081 3.259.284 6.472 1.093 9.731 1.365 5.675.474 10.986.118 16.141-3.374 5.409-3.664 11.514-6.395 17.535-9.032 4.968-2.176 10.51-3.106 15.352-5.492 10.757-5.301 22.427-7.4411 33.758-10.784a26.9153 26.9153.0 007.552-3.92c4.752-3.324 9.377-6.8429 13.899-10.4739 2.792-2.2421 4.916-5.771 8.027-7.046 3.973-1.628 7.941-2.6181 11.3-5.75 3.792-3.5361 12.081-1.462 12.3729 2.945.5791 8.743 7.3851 13.112 12.637 18.099 3.505 3.329 5.875 6.486 6.805 11.007.366 1.782.363 3.83 1.283 5.276 5.026 7.902 1.702 14.8389-2.111 21.808a45.1571 45.1571.0 00-3.512 6.956c-1.201 3.552-1.6619 7.359-2.921 10.886-1.37 3.8389-.9169 7.0929 1.63 10.1969 1.474 1.796 2.7479 3.7561 4.2449 5.531 5.5571 6.5881 10.599 13.756 16.9191 19.5151 6.449 5.877 14.251 10.249 21.323 15.466 10.142 7.481 19.966 15.408 30.3129 22.588 4.926 3.419 10.633 5.816 16.2041 8.161 2.971 1.25 6.4379 1.266 9.62 2.079 7.413 1.895 11.2431.5949 13.214-4.912.625-1.745 2.359-3.149 3.74-4.558 4.712-4.803 4.778-5.823.559-10.768zM215.451 395.849l.512.914-5.595 3.544-10.925-5.808c5.999.18 10.349-6.991 17.753-3.202l-7.445 6.67zm3.38 2.262c1.386-7.336 4.843-8.546 16.028-6.838zm128.585-4.78c-.231.179-.423.453-.65.486-4.35.634-6.06-2.206-7.676-6.171l8.487 1.427-2.417 2.303 2.255 1.954z"/><path class="cls-8" d="M47.676 352.31c4.103-1.913 7.837-4.664 11.578-7.281.974-.681 2.265-2.407 1.997-3.127-1.892-5.083 3.104-3.732 4.814-5.36.329-.313 1.549.023 1.637-.212 1.49-3.954 3.995-6.314 8.06-8.224 4.868-2.287 9.85-5.668 13.005-9.9 3.362-4.511 8.448-6.562 12.462-8.747 5.103-2.777 9.27-6.555 14.07-9.532l23.905-15.248c8.666-5.401 17.586-10.407 26.1-16.033a49.9793 49.9793.0 0011.044-9.766c5.092-6.213 11.733-9.385 19.147-11.005 5.638-1.232 14.99-15.455 13.057-20.89a6.4591 6.4591.0 00-.876-1.748c-2.32-3.046-4.424-6.311-7.082-9.033-6.134-6.282-11.527-14.057-22.222-12.387-1.29.201-2.772-.788-4.158-1.249-2.723-.905-5.157-4.554-8.316-.352-1.926 2.562-5.863 4.295-6.539 6.991-2.632 10.492-8.981 16.436-19.472 17.513-5.156.529-5.266 3.769-5.7 7.347-.144 1.184.039 3.053-.61 3.429-5.682 3.292-6.526 9.601-9.465 14.582-.556.942-1.001 2.408-1.809 2.669-4.584 1.485-5.123 5.947-7.135 9.285-.999 1.657-1.39 3.677-2.376 5.344-3.822 6.463-8.315 12.483-12.105 19.016-2.644 4.558-4.057 9.964-9.198 13.859-4.747 3.596-12.025 4.912-14.214 11.797-.153.48-1.55.446-2.137.931a32.5213 32.5213.0 00-3.003 3.045c-1.267 1.368-2.244 3.38-3.8 4.031-3.956 1.657-6.222 3.993-5.324 8.587l4.624.999c-4.463 4.984-8.812 8.374-15.372 8.39a21.9973 21.9973.0 00-8.899 2.309c-2.859 1.336-4.088 6.865-1.877 8.87 1.36 1.234 4.574 1.85 6.188 1.098z"/><path class="cls-8" d="M95.061 177.785c3.916-.532 5.275 2.855 5.647 4.99.395 2.275-1.494 4.998-2.612 7.42-.142.307-1.784.249-2.513-.098a87.01 87.01.0 01-9.838-5.083c-4.277-2.752-8.312-5.88-12.441-8.863.89 1.814 1.469 3.982 2.871 5.212 8.751 7.679 17.718 15.111 26.68 22.685.041-.78.106-1.593.122-2.407.144-7.216 2.65-8.745 9.255-5.842a30.8677 30.8677.0 006.482 1.972c5.596 1.09 11.455 1.391 15.418 6.464.387.496 1.675.289 2.545.409l.881-1.252c-1.314-1.214-2.462-2.734-3.987-3.56a14.6187 14.6187.0 00-5.79-1.815c-4.817-.319-8.574-2.2-10.692-6.572l-11.185-23.77c-4.462-9.127-15.73-14.112-25.479-11.498-8.561 2.296-10.485 4.913-9.295 12.68 7.591 4.021 14.385 10.227 23.933 8.929zm-7.893-17.643c3.703-.792 6.508-.18 7.659 3.419.15.469-1.873 2.36-2.345 2.178-2.447-.942-6.173-.918-5.314-5.596z"/><path class="cls-8" d="M71.129 168.856l-.164-.089.008.028.165.126z"/><path class="cls-8" d="M73.146 175.829l-.304-.378.128.457.333.243-.157-.322z"/><path class="cls-8" d="M49.948 361.312l-6.009-.963c-4.493 7.12-9.275 14.034-17.506 17.784-4.973 2.265-6.379 2.266-9.871-1.981-1.158-1.409-3.133-3.105-4.645-3.022a8.7829 8.7829.0 00-5.395 3.075c-1.564 1.807-3.556 4.014-.788 6.806 1.707 1.721 2.822 4.029 3.84 5.536 2.08-.292 3.803-.883 5.444-.709 11.715 1.239 18.312-7.113 24.226-14.548 3.219-4.046 5.568-8.8 10.703-11.977z"/><path class="cls-8" d="M409.617 256.266l6.345 12.935c.132.274-.305.793-.411 1.215-.231.921-.905 2.319-.541 2.698a80.5929 80.5929.0 006.307 5.391l-5.454-28.976-16.082-2.739q-.182.696-.365 1.393l12.923 7.05z"/><path class="cls-8" d="M355.996 323.145l-.407-6.984c-.64-6.567-3.829-12.838-1.783-19.763.563-1.906-.556-4.309-1.081-7.601-3.794 9.5639-3.717 30.2539 3.271 34.3479z"/><path class="cls-8" d="M281.623 297.856l2.654 30.35C289.466 318.101 286.736 311.954 281.623 297.856z"/><path class="cls-8" d="M70.973 168.795l-5.238-3.999-.808.806 7.916 9.848q-.935-3.328-1.87-6.656z"/><path class="cls-8" d="M38.111 352.749l-1.41-10.278c-2.603 4.856-2.202 8.235 1.41 10.278z"/><path class="cls-5" d="M440.943 550.159c-15.479 4.596-17.324-6.206-21.867-5.729-2.133 1.5-.186 3.367-3.587 5.616-1.993.783-3.623-1.087-5.177-1.561-1.901-.5789-3.78-1.584-5.702-1.67a26.0411 26.0411.0 01-14.347-4.73c-5.376-3.7411-11.345-6.545-15.594-11.8531a9.2756 9.2756.0 00-5.408-3.2949c-6.759-.8611-11.63-4.594-16.016-9.318a13.1446 13.1446.0 00-7.199-4.1241c-4.454-.94-8.605-2.803-11.428-6.6-.96-1.2909-1.329-3.022-2.35-5.468l14.975 6.5351c2.221-5.529 2.221-5.529 5.548-7.556l5.096-.809c9.164-1.5841 17.032.806 23.596 7.493 1.842 1.876 7.944 4.497 8.722 4.223-2.686-6.57-8.724-10.004-12.663-15.755 1.039-1.639 1.704-3.462 2.992-4.543a43.7465 43.7465.0 016.726-4.271c4.796-2.709 9.457-5.547 11.983-10.756l5.417-11.4491 7.006-8.9119-1.5849-2.488c-1.675 1.8829-2.999 3.574-4.529 5.053-4.195 4.053-9.68 6.96-11.261 13.7219l-.878-2.9979-3.521 6.591-2.673-3.058-.984.933-1.712-4.585-1.112.191.984 9.4c-2.453-3.946-1.529-8.788-4.42-12.56-.222 4.739 1.059 9.512-1.437 14.204l-2.472-4.771c-.526 3.089-.476 5.717-1.463 7.87-1.258 2.743-3.3551 5.101-5.6961 8.506L362.358 493c3.243-2.415 4.922-6.442 4.479-12.565l-5.32 6.433a41.9256 41.9256.0 00-1.466-15.116l-7.022 4.016 1.834-5.648-4.042 1.873 3.796-9.585-3.967-4.298-2.279 1.743L347 454.179l-12.479 5.934-1.071-.702q1.252-6.99 2.504-13.979l.58.027v6.038l1.044.025.335-6.685-5.219-6.2651-5.652-1.605c-1.087 5.892 2.639 9.946 4.298 14.569-.363.345-.975.643-1.046 1.039-1.086 6.064-4.554 10.929-7.56 16.115-1.998 3.447-1.622 7.704-.884 11.982l-2.762 1.617c-1.144 4.46-.467 8.131 2.526 11.418a40.51 40.51.0 014.016 5.718c4.121 6.509 8.758 12.612 14.685 17.567 3.173 2.653 6.726 4.851 10.113 7.247 5.159 3.651 10.151 7.5771 15.523 10.883a181.8656 181.8656.0 0127.292 20.885c4.333 3.959 9.288 7.672 14.986 8.553 5.091.787 10.057 1.888 15.068 2.967 4.539.977 7.935-1.123 10.244-5.184a26.114 26.114.0 014.9259-6.093c1.9591-1.819 2.737-3.097 2.477-6.0931zm-87.412-57.76-11.42 7.718C348.774 492.793 348.774 492.793 353.531 492.399zM175.023 233.545c-.924 5.437-.38 10.75.057 16.45 5.783-.402 8.984-4.369 12.327-7.294l11.98-2.975 5.655-11.51c-4.346-5.757-7.744-11.353-12.963-14.339l-5.809 2.446c-4.242-3.066-5.87-9.498-12.563-6.663.589 4.847 1.329 9.403 1.637 13.988a42.58 42.58.0 01-.32 9.897zM282.41 386.33l3.124 12.994c.704 3.013 2.224 5.113 5.52 5.6059a27.1772 27.1772.0 013.7 1.093l4.896-6.279 7.669 6.5361c.253 2.905.671 3.8519.884 6.3009l.588 1.16 2.543 5.114 2.528-5.269-8.786-18.098 1.44-6.675 2.076 1.578 5.168-14.735c-1.645-3.126-2.093-6.073-6.443-6.181l2.959 6.084-8.502 21.069c-2.019-4.695.81-9.644-2.036-12.839l-7.307-3.191 2.73-17.92c1.857 1.546 1.743 5.659 5.299 3.556l-6.337-14.927-1.782 1.14-1.979-6.65c-2.268 2.558-2.563 4.918-2.905 7.378-.986 7.089 2.114 14.708-3.071 20.893 1.503 2.688 3.214 4.857 2.051 7.699-4.555-.674-8.762.993-8.033 3.514zm-22.781 37.6c-2.011 2.639-3.108 8.226-1.616 8.413l12.761-9.326c3.336-2.258 13.514-8.452 11.816-16.6a21.3024 21.3024.0 00-12.685-3.292l-16.095 6.88c-.264 5.535 3.955 7.604 6.265 10.991l-.445 2.934zM81.245 173.476c6.909 4.569 14 2.234 21.098 1.125-.045-8.172-4.183-14.327-11.417-17.238-5.867-2.361-13.701-.42-18.3 4.675 1.003 5.134 4.305 8.585 8.619 11.437zm10.126-13.399c3.108 1.569 3.916 3.101 3.485 6.606-5.706 2.127-10.298.467-12.65-4.573C85.279 158.918 87.916 158.333 91.371 160.077zm49.768-6.373c8.953-1.893 13.735-5.996 14.32-16.604-.609-2.331-.872-4.844-1.968-6.917a4.6358 4.6358.0 00-3.948-1.931 71.4224 71.4224.0 00-11.951 3.925c-5.392 2.344-7.264 6.148-6.493 11.877.716 5.317 5.999 10.504 10.04 9.65zm5.367-22.388c4 0 5.672 4.843 4.672 7.843-.698 1.864-2 4-5 3C141.178 140.159 141.585 131.968 146.506 131.316zM329.563 394.455c3.512-.219 4.828 5.487 9.301 2.583-1.606-5.244-3.29-10.264-9.802-12.317l-6.401 8.059c2.158 2.883 4.439 2.173 6.902 1.674zM154 265.608c3.334.813 4.221-1.659 5.891-3.351l-3.364-26.346-1.304.026c-1.815 9.78.217 19.777-1.223 29.671zM345.675 383.905c2.343-.649 5.405-.779 5.798-5.01-5.718.241-11.334-1.675-16.831 1.654 2.068 2.269 8.123 4.163 11.033 3.356zm-23.513-5.838-2.266-4.954c2.707-1.6311 5.587-1.111 7.626-3.992H313.38c2.588 6.226 4.196 7.82 8.781 8.9469zM215.439 445.741l21.87-8.344C233.37 436.229 215.303 445.365 215.439 445.741zm-51.994 10.09-5.335 3.681c3.257 1.87 6.037 2.053 11.066.518-1.644-2.176-2.977-4.473-5.731-4.199zm73.957-108.714c1.635-.11 3.255-.452 4.849-.687l3.289 1.567.504-.585-2.433-3.332c-6.253-.58-8.463-.022-12.018 3.065 2.203.0 4.013.093 5.81-.028zM160.067 241.756c-1.101 12.896-.92 14.558 1.523 17.253 1.663-6.035-.542-11.611-1.523-17.253zm3.257.914a18.32 18.32.0 002.887 12.885C167.989 251.755 167.39 248.944 163.324 242.67zM399.98 526.378c1.225 4.252 4.839 2.919 8.068 4.505-.865-4.29-3.017-5.79-6.082-6.768zM336.698 358.697c4.894-.264 9.831-.292 14.15-3.335C345.868 355.299 341.001 355.767 336.698 358.697zm34.431 119.445-4.398 11.99C372.137 486.575 372.916 483.813 371.129 478.142zM51.078 346.21c-3.397-2.153-4.905-2.095-8.399.539C45.557 349.616 45.557 349.616 51.078 346.21zM420.27 436.593c-3.733 3.964-4.074 4.811-3.503 8.686C422.143 440.706 422.289 440.345 420.27 436.593z"/><path class="cls-6" d="M117.632 213.223a47.6623 47.6623.0 008.365-.331c2.795-.694 5.577-1.766 8.521-1.573 5.624.1 11.243 1.773 15.985-1.985 4.555-3.201 8.475-7.368 12.907-11.097 2.228-1.755 4.683-3.294 6.884-5.113 6.54-5.257 13.114-10.988 17.873-17.874a36.8815 36.8815.0 005.418-15.649 30.2165 30.2165.0 012.202-8.52c1.312-2.678 2.951-5.021 4.428-7.439 3.035-4.712 5.275-9.802 5.681-15.413a.6.6.0 011.188-.049c1.297 9.001-5.845 16.299-9.568 23.726-2.302 5.081-1.963 11.16-3.939 16.488-2.656 8.419-9.168 14.944-15.497 20.695-3.219 2.874-6.55 5.606-10.036 8.153-5.976 3.929-10.426 9.479-16.453 13.677a14.5971 14.5971.0 01-8.522 2.769c-4.41-.035-8.404-1.112-12.603-.208-4.078 1.525-8.646 1.635-12.885 1.437a.848.848.0 01.05-1.695z"/><path class="cls-6" d="M127.959 212.643c2.513-1.23 5.713-1.955 7.594-3.972a15.1371 15.1371.0 015.437-4.558c3.389-2.001 7.618-1.351 11.152-2.676 2.778-.843 5.537-3.489 8.578-2.752a.298.298.0 01.173.473 1.62 1.62.0 01-1.191.422c-2.537.545-4.502 2.636-6.94 3.506-2.979 1.267-6.276 1.226-8.892 2.031a14.9581 14.9581.0 00-6.019 4.077 9.62 9.62.0 01-5.12 3.3c-1.494.458-2.974.781-4.463 1.099a.504.504.0 01-.309-.951zm-8.516-18.247c3.31 1.594 7.329 2.566 10.899 1.397a12.7576 12.7576.0 003.463-5.558 22.2109 22.2109.0 00.617-2.263.149.149.0 01.293.037c-.077 3.285-1.22 6.786-3.927 8.851-3.933 1.336-8.248.218-11.601-2.019a.258.258.0 01.257-.445zm20.23 188.112c1.964.432 4.212-.681 6.266-1.781l6.23-3.691c1.918-1.254 4.333-2.258 5.983-3.756a17.8047 17.8047.0 003.698-5.7811c1.903-4.364 3.435-9.043 5.618-13.457a54.9237 54.9237.0 0113.297-17.6189c5.434-4.817 10.74-9.75 15.836-14.9281a41.9814 41.9814.0 015.541-4.9819c6.231-3.7521 11.91-8.289 17.816-12.555 5.928-4.274 11.835-8.633 18.269-12.177 6.427-3.2431 12.741-6.771 17.525-12.193a120.9484 120.9484.0 008.66-11.524l6.185-8.95c5.783-9.176 10.223-19.153 14.267-29.21 1.778-4.497 3.45-9.032 5.532-13.427a.472.472.0 01.892.296 87.75 87.75.0 01-4.564 13.871c-1.798 4.523-3.707 9.005-5.769 13.423a142.337 142.337.0 01-8.667 16.135c-1.188 1.84-4.899 7.122-6.223 9.011-4.146 5.955-8.373 12.296-14.271 16.792-5.77 4.6059-12.727 7.12-18.761 11.276-10.184 6.546-19.423 14.52-29.733 20.905a40.2641 40.2641.0 00-5.256 4.745q-5.1266 5.1975-10.509 10.133c-3.513 3.2829-7.308 6.3009-10.449 9.9519a53.9275 53.9275.0 00-7.849 11.892c-2.15 4.2821-3.67 8.848-5.667 13.367a19.5476 19.5476.0 01-4.158 6.3541c-1.959 1.756-4.19 2.583-6.32 3.958-3.185 1.819-6.238 3.979-9.758 5.255a7.4579 7.4579.0 01-4.049.346.8621.8621.0 01.388-1.68zM121.546 43.53c-2.207 2.238-4.627 4.103-6.301 6.757-1.694 2.553-2.904 5.501-4.803 8.103a.52.52.0 01-.922-.427 33.496 33.496.0 013.94-8.821c1.665-2.826 4.362-4.926 6.781-7.009a.957.957.0 011.305 1.398zm16.645-29.312c.429 5.229-1.355 10.339-1.558 15.478a72.5968 72.5968.0 001.17 15.256c.846 5.065 1.851 10.137 3.04 15.142.928 3.658 1.774 7.478 3.493 10.81.405.624.639 1.253 1.245 1.348a2.0947 2.0947.0 00.715-.27.538.538.0 01.7218.2406c.237.643-.492 1.009-1.039 1.32-1.332.576-2.636-.85-3.127-1.78-1.899-3.547-2.726-7.436-3.72-11.257a162.4261 162.4261.0 01-4.041-23.038 53.2785 53.2785.0 01-.146-7.871c.265-5.201 2.114-10.117 1.781-15.311a.734.734.0 011.465-.068z"/></svg>