<svg xmlns="http://www.w3.org/2000/svg" width="1440" height="213.6805" viewBox="0 0 1440 213.6805"><path d="M389.0677,0h58.3882a21,21,0,0,1,21,21v0a21,21,0,0,1-21,21H389.0676a21,21,0,0,1-21-21v0a21,21,0,0,1,21-21Z"/><path d="M617.37,127.3188h58.3877a21,21,0,0,1,21,21v0a21,21,0,0,1-21,21H617.37a21,21,0,0,1-21-21v0a21,21,0,0,1,21-21Z"/><path d="M991.8651,63.6594h58.3882a21,21,0,0,1,21,21v0a21,21,0,0,1-21,21H991.8651a21,21,0,0,1-21-21v0a21,21,0,0,1,21-21Z"/><path d="M0,42H184.4986A10.6593,10.6593,0,0,1,195.158,52.66h0a10.6594,10.6594,0,0,1-10.6594,10.66h-35.218a21,21,0,0,0-21,21v0a21,21,0,0,0,21,21H343.2469a11,11,0,0,1,11,11v0a11,11,0,0,1-11,11H245.3176a21,21,0,0,0-21,21v0a21,21,0,0,0,21,21h45.9851a10.6594,10.6594,0,0,1,10.6595,10.6593v0a10.66,10.66,0,0,1-10.6595,10.6594H110.6215a10.6593,10.6593,0,0,1-10.6593-10.6594v0a10.6593,10.6593,0,0,1,10.6593-10.6593h41.6917a21,21,0,0,0,21-21v0a21,21,0,0,0-21-21H0v42H13.3027a10.6594,10.6594,0,0,1,10.66,10.6593v0A10.66,10.66,0,0,1,13.3027,190.638H0v23.0425H1440V127.1913h-78.6641a21,21,0,0,0-21,21v0a21,21,0,0,0,21,21h40.449a10.6594,10.6594,0,1,1,0,21.3188H1165.1038a10.653,10.653,0,0,1-1.5651-21.1913H1259.13a21,21,0,0,0,21-21h0a21,21,0,0,0-21-21h-32.08a10.6593,10.6593,0,0,1-10.6593-10.6594v-.6812a10.6593,10.6593,0,0,1,10.6593-10.6594H1440v-42H1277.2661a10.6594,10.6594,0,0,1-10.6593-10.6594h0A10.6593,10.6593,0,0,1,1277.2661,42h75.6918a21,21,0,0,0,21-21v0a21,21,0,0,0-21-21H1167.9622a21,21,0,0,0-21,21v0a21,21,0,0,0,21,21h45.9852a10.6593,10.6593,0,0,1,10.6594,10.6594h0a10.6594,10.6594,0,0,1-10.6594,10.6594h-91.7113a21,21,0,0,0-21,21h0a21,21,0,0,0,21,21h41.4955a10.6594,10.6594,0,0,1,10.6594,10.6594v.6812a10.6524,10.6524,0,0,1-9.0944,10.5319H849.1833a10.9927,10.9927,0,0,1-9.4114-10.8725h0a11,11,0,0,1,11-11h15.001a21,21,0,0,0,21-21h0a21,21,0,0,0-21-21H681.7576a21,21,0,0,0-21,21h0a21,21,0,0,0,21,21H786.7719a11,11,0,0,1,11,11h0a11,11,0,0,1-11,11H750.9354a21,21,0,0,0-21,21h0a21,21,0,0,0,21,21H853.35a10.653,10.653,0,0,1-1.5651,21.1913H592.6875a21.1989,21.1989,0,0,0-2.2747.1279H454.6215a10.6593,10.6593,0,0,1-10.6593-10.6594v0a10.6593,10.6593,0,0,1,10.6593-10.6593h22.5649a21,21,0,0,0,21-21v0a21,21,0,0,0-21-21h-41.94a11,11,0,0,1-11-11v0a11,11,0,0,1,11-11h71.668a21,21,0,0,0,21-21v0a21,21,0,0,0-21-21H247.8174A10.66,10.66,0,0,1,237.158,52.66h0A10.6594,10.6594,0,0,1,247.8174,42h40.4491a21,21,0,0,0,21-21v0a21,21,0,0,0-21-21H0Z"/></svg>