<svg id="a7dc1a96-f80e-41d0-aba7-95e406ef966b" data-name="Capa 1" xmlns="http://www.w3.org/2000/svg" width="650.5154" height="169.3188" viewBox="0 0 650.5154 169.3188"><path d="M248.2151,42h40.449a21,21,0,0,0,21-21h0a21,21,0,0,0-21-21H21A21,21,0,0,0,0,21H0A21,21,0,0,0,21,42H184.8963a10.6594,10.6594,0,0,1,10.6594,10.6594h0a10.6594,10.6594,0,0,1-10.6594,10.6594H149.6782a21,21,0,0,0-21,21v0a21,21,0,0,0,21,21H371.6445a11,11,0,0,1,11,11v0a11,11,0,0,1-11,11h-40.37a21,21,0,0,0-21,21v0a21,21,0,0,0,21,21h146.31a21,21,0,0,0,21-21v0a21,21,0,0,0-21-21h-41.94a11,11,0,0,1-11-11v0a11,11,0,0,1,11-11h71.668a21,21,0,0,0,21-21v0a21,21,0,0,0-21-21H248.2151a10.6593,10.6593,0,0,1-10.6594-10.6594h0A10.6594,10.6594,0,0,1,248.2151,42Z"/><rect x="550.1277" y="63.6594" width="100.3877" height="42" rx="21"/></svg>