<svg id="aade2a4a-b5c8-4b0e-bbd8-c5f9ecdeed8d" data-name="Capa 1" xmlns="http://www.w3.org/2000/svg" width="780.9609" height="169.3188" viewBox="0 0 780.9609 169.3188"><rect x="356.7583" width="100.3882" height="42" rx="21"/><path d="M566.2927,105.3188H759.961a21,21,0,0,0,21-21v0a21,21,0,0,0-21-21H616.5085a10.6594,10.6594,0,0,1-10.6594-10.6594h0A10.6594,10.6594,0,0,1,616.5085,42H626.27a21,21,0,0,0,21-21h0a21,21,0,0,0-21-21H507.2045a21,21,0,0,0-21,21v0a21,21,0,0,0,21,21H553.19a10.6593,10.6593,0,0,1,10.6593,10.6594h0A10.6594,10.6594,0,0,1,553.19,63.3188H461.4785a21,21,0,0,0-21,21v0a21,21,0,0,0,21,21h41.4954a10.6594,10.6594,0,0,1,10.6594,10.6594v.6812a10.6594,10.6594,0,0,1-10.6594,10.6594h-312.96a11,11,0,0,1-11-11h0a11,11,0,0,1,11-11h15.001a21,21,0,0,0,21-21h0a21,21,0,0,0-21-21H21a21,21,0,0,0-21,21H0a21,21,0,0,0,21,21H126.0142a11,11,0,0,1,11,11h0a11,11,0,0,1-11,11H90.1777a21,21,0,0,0-21,21h0a21,21,0,0,0,21,21H598.3726a21,21,0,0,0,21-21v0a21,21,0,0,0-21-21h-32.08a10.6594,10.6594,0,0,1-10.6594-10.6594v-.6812A10.6594,10.6594,0,0,1,566.2927,105.3188Z"/></svg>