<svg xmlns="http://www.w3.org/2000/svg" viewBox="0 0 262.6948 359.1418"><path d="M67.3021,315.33c.9013-.3468,1.7924-.7216,2.687-1.0871h0l.0009,0c.9279-.3791,1.8514-.7629,2.77-1.1619,1.1448-.4913,2.2831-.9941,3.4071-1.5208.6759-.3165,1.3606-.6472,2.05-.9829-2.5827-2.577-1.57-6.7093-1.5041-10.2q.0071-.3674-.0038-.7284c-.0045-.1531-.0166-.3036-.0267-.4548-.0057-.082-.0082-.1651-.0157-.2465-.0173-.193-.0437-.3826-.0722-.5716-.0055-.0358-.0089-.0723-.0149-.1079-.0339-.2074-.0782-.411-.1278-.6128l-.0106-.0458c-.0534-.2111-.1185-.418-.1916-.622l-.0055-.0156a5.7737,5.7737,0,0,0-1.0216-1.7729l0,0v0c-.0984-.1168-.19-.2359-.3009-.3483-.4334.089-.8679.1667-1.3021.2465q-.9968.1831-1.9909.3279h0a39.38,39.38,0,0,1-4.38.4135.2124.2124,0,0,1-.0563-.4154c1.6094-.5364,3.2326-1.08,4.8561-1.6176h0c.4953-.164.985-.3319,1.4814-.4934-.1051-.1476-.2079-.3-.3074-.4667a2.323,2.323,0,0,1-.27-.6666c-.1633.005-.3277.0242-.4912.0365h0a33.6587,33.6587,0,0,0-3.6812.5914q-1.186.226-2.3776.4385c-.5377.1783-1.074.3606-1.6124.5371a54.0131,54.0131,0,0,1-5.298,1.5761c-.22.3741-.4264.758-.6151,1.1528-.3188,3.9235.3774,7.8148.5676,11.7252A11.8412,11.8412,0,0,1,67.3021,315.33Z"/><path d="M161.3929,301.9546a3.4739,3.4739,0,0,1-2.3412,2.4436,5.63,5.63,0,0,1-2.9879.3556,2.0446,2.0446,0,0,0,.1992-1.733.465.465,0,0,0-.89,0c-.6723,2.0189-3.1053,2.7485-4.9988,2.5477-.284-.03-.3829.4028-.1432.5284a4.7457,4.7457,0,0,0,3.9211.2138,5.3605,5.3605,0,0,0,1.1742-.72.4485.4485,0,0,0,.0641.04,7.7849,7.7849,0,0,0,2.3935.8816,3.7289,3.7289,0,0,0,1.158-.1031c.0053.26.02.5215.0279.7955.02.6727-.6713,1.1807-1.1485,1.5274a8.1031,8.1031,0,0,1-3.47,1.306c-.6229.1169-.4168.9925.1406,1.0383a7.1472,7.1472,0,0,0,4.8887-.9652,3.8538,3.8538,0,0,0,1.3738-1.9376,4.3766,4.3766,0,0,0-.2941-2.4774,5.3984,5.3984,0,0,0,1.4232-3.6744A.2509.2509,0,0,0,161.3929,301.9546Z"/><path d="M155.7718,315.5914l-.0526.0376a.2749.2749,0,0,0-.0721.3491,3.7113,3.7113,0,0,1-.75.8418,4.3908,4.3908,0,0,1-1.4312.8268,6.13,6.13,0,0,1-2.26.3463,15.9974,15.9974,0,0,0,.2138-1.7893c.088-.69.2583-1.55-.3762-2.0048-.205-.147-.4069.1278-.3157.3156.5,1.028-.4889,2.6793-1.177,3.39a2.4362,2.4362,0,0,1-2.281.65.5951.5951,0,0,0-.5751.9878,2.4453,2.4453,0,0,0,3.4971.0328,4.3666,4.3666,0,0,0,4.6268-.9117c.5185-.4684,2.0045-2.34,1.2606-3.0326A.2542.2542,0,0,0,155.7718,315.5914Z"/><path d="M148.3151,312.25a.2514.2514,0,0,0-.4656-.1261,1.9844,1.9844,0,0,1-1.8036,1.1424,2.9489,2.9489,0,0,0-.0359-1.2265c-.1445-.5546-.8791-.3792-.9344.1264a2.7767,2.7767,0,0,1-1.93,2.7132c-1.0131.3941-1.8644-.0966-2.8529-.171a.2846.2846,0,0,0-.2735.3588c.4973,1.4474,2.7808,1.6888,3.9872,1.0945a3.8368,3.8368,0,0,0,1.5851-1.6166A2.5447,2.5447,0,0,0,148.3151,312.25Z"/><path d="M143.389,308.8265c.428-.703-.6-1.24-1.0705-.6258-.6482.8476-1.8357.55-2.6328.14a.28.28,0,0,0-.3378.4377C140.4137,310.014,142.4249,310.41,143.389,308.8265Z"/><path d="M137.0565,317.9161a3.1666,3.1666,0,0,1-.7692,2.56c-.53.6266-1.2057,1.2464-2.0693.9444a.3335.3335,0,0,0-.3225.5542,2.2367,2.2367,0,0,0,2.9635-.2842,4.099,4.099,0,0,0,.7167-3.8447C137.4927,317.5707,137.0267,317.6094,137.0565,317.9161Z"/><path d="M118.4847,309.0837a.518.518,0,0,0-.9581-.26c-1.0385,1.719-2.4664,2.9213-4.5258,1.9732-.341-.157-.7383.2636-.4251.551C114.58,313.1863,118.6965,312.1962,118.4847,309.0837Z"/><path d="M106.3,312.4991a3.1425,3.1425,0,0,0,2.4841-3.0581.5067.5067,0,0,0-.9911-.1341c-.4536,1.9144-3.2567,2.4145-4.5934,1.1738-.2638-.2447-.7586.0914-.5208.4017A3.71,3.71,0,0,0,106.3,312.4991Z"/><path d="M111.3847,322.7032a3.6963,3.6963,0,0,0,3.0975-.8877,3.2364,3.2364,0,0,0,1.03-2.7041c-.02-.3474-.5858-.47-.6418-.0869a2.58,2.58,0,0,1-1.1862,1.7563,6.462,6.462,0,0,1-2.2991.6807A.6483.6483,0,0,0,111.3847,322.7032Z"/><path d="M136.86,324.9891a1.837,1.837,0,0,1-.7936,1.4768.4256.4256,0,0,0-.5.2673,6.1362,6.1362,0,0,1-2.546.28c-.3469-.0219-.39.4886-.0791.5852a7.984,7.984,0,0,0,2.2886.4475,3.3,3.3,0,0,1-1.6221,1.675,9.5049,9.5049,0,0,1-3.24.578c-.4972.07-.46.8627,0,.9639a6.2876,6.2876,0,0,0,4.6022-.4985,3.0882,3.0882,0,0,0,1.4221-2.9447c.0222-.01.046-.0146.0679-.0252a2.3016,2.3016,0,0,0,1.08-2.897A.3476.3476,0,0,0,136.86,324.9891Z"/><path d="M99.8882,318.3275a2.9343,2.9343,0,0,1-.7536,3.21,3.86,3.86,0,0,1-3.2245.96c-.3527-.0411-.3768.4264-.16.5908a3.3207,3.3207,0,0,0,4.4244-.5113,3.8219,3.8219,0,0,0,.1441-4.431C100.1723,317.9391,99.8027,318.0577,99.8882,318.3275Z"/><path d="M109.52,328.8448a2.6153,2.6153,0,0,0,1.8639-2.638c-.011-.4809-.7519-.6117-.859-.1163a2.2235,2.2235,0,0,1-3.5134,1.3623c-.2374-.1675-.5862.17-.4076.4076a2.643,2.643,0,0,0,2.093,1.0985,2.9814,2.9814,0,0,1-5.4535.6306.3089.3089,0,0,0-.562.2372,3.6046,3.6046,0,0,0,3.828,2.55A3.6581,3.6581,0,0,0,109.52,328.8448Z"/><path d="M94.1915,333.4712a3.2555,3.2555,0,0,1-1.5046,2.0314c-.5595.3646-2.7673.7509-3.0893-.1725a.3271.3271,0,0,0-.63.1739c.2031,1.4737,2.5125,1.6876,3.6192,1.4016a3.539,3.539,0,0,0,2.4449-3.3208A.4294.4294,0,0,0,94.1915,333.4712Z"/><path d="M94.7107,327.4208c.1385-.5766-.723-.9958-.9924-.4184-.6765,1.45-1.9406,1.54-3.2631.8944-.1353-.0661-.3486.0447-.2824.217C91.0235,330.3278,94.2332,329.408,94.7107,327.4208Z"/><path d="M80.9737,325.0869c.2772-.4117-.2891-1.0166-.7034-.7034a3.5536,3.5536,0,0,1-2.13.8073c-.5615.0138-2.4814-.4836-2.1468-1.4088.1071-.296-.3053-.4049-.4655-.1962-.7347.9574.4907,2.1267,1.3428,2.5938a3.6016,3.6016,0,0,1-1.4359,2.0034,2.3519,2.3519,0,0,1-1.47.3708,3.2306,3.2306,0,0,1-.507-.0719l-.0182-.0041a3.7491,3.7491,0,0,1-.4622-.1384c-.0174-.0065-.0351-.0121-.0525-.0188a4.2109,4.2109,0,0,1-.401-.18c-.0252-.0129-.0517-.0238-.0766-.0372a4.4289,4.4289,0,0,1-.4249-.2564c-.3029-.2081-.553.2239-.3609.468a3.337,3.337,0,0,0,.42.44c.0295.0258.0622.0456.0923.07a3.3555,3.3555,0,0,0,.3967.284c.0221.0132.0455.0233.068.036a3.4892,3.4892,0,0,0,.4781.2275l.0231.008a3.7359,3.7359,0,0,0,.554.16h0c2.0517.4277,4.4607-.798,4.5956-3.0024A3.23,3.23,0,0,0,80.9737,325.0869Z"/><path d="M82.2046,334.5024a3.3038,3.3038,0,0,1-3.3166.8627.2712.2712,0,0,0-.2618.45c1.2089,1.2473,3.38.6862,4.4482-.4425C83.622,334.7936,82.7254,333.9081,82.2046,334.5024Z"/><path d="M59.6794,329.6565c-1.0706,1.16-3.0131,1.7211-4.2952.4817-.2653-.2564-.6111.1189-.3941.3941a3.3607,3.3607,0,0,0,2.7122,1.5346,3.2821,3.2821,0,0,0,2.845-1.7409C60.8339,329.7867,60.1193,329.18,59.6794,329.6565Z"/><path d="M29.2457,336.1639a3.5865,3.5865,0,0,1-2.8128-.1134,2.0157,2.0157,0,0,1-.74-.62,3.2466,3.2466,0,0,0,1.2184-.8724c.353-.4184-.1127-1.1622-.6231-.8075a4.4637,4.4637,0,0,1-4.1922.7967c-.3467-.1064-.501.365-.2333.5534a3.9793,3.9793,0,0,0,2.7547.62,2.86,2.86,0,0,0,1.3216,1.628c1.18.7238,2.5366.2039,3.6252-.4293C29.9605,336.6887,29.6954,336.0015,29.2457,336.1639Z"/><path d="M48.88,342.0383a3.3488,3.3488,0,0,1-4.7657-.3465c-.2046-.2237-.6511.0092-.53.3086a3.4907,3.4907,0,0,0,.8767,1.2664c-2.4982.5743-5.1495-.3336-5.7652-3.1432-.062-.2831-.4842-.2086-.4908.0663-.09,3.7036,4.323,6.1264,7.1867,3.6888a3.4157,3.4157,0,0,0,4.2115-1.1173C49.9062,342.3391,49.3023,341.7294,48.88,342.0383Z"/><path d="M42.4312,333.8835c.7788.1026.8208-1.2153,0-1.2493-.9426-.0389-2.1219-.0871-2.74-.9046-.2049-.2709-.7327-.1271-.5973.2517C39.5929,333.3781,41.1242,333.7112,42.4312,333.8835Z"/><path d="M69.377,343.3389a4.7265,4.7265,0,0,1-4.542-.3174c-.3022-.2182-.582.2337-.3726.4829a3.7517,3.7517,0,0,0,5.4561.5362C70.3291,343.6807,69.8071,343.1453,69.377,343.3389Z"/><path d="M76.514,290.4965h0a.0964.0964,0,0,0,.0425.0418.0858.0858,0,0,0,.069.0052,23.26,23.26,0,0,1,4.5385-1.4105,3.98,3.98,0,0,0,2.6774-1.3933.1448.1448,0,0,0-.1747-.2265,14.2056,14.2056,0,0,1-3.7349,1.06,3.9118,3.9118,0,0,0-.4453.1207c-.0406.0134-.0808.0321-.1213.0468-.1073.039-.2147.0777-.3214.1244-.0464.02-.0922.0449-.1385.0665-.1007.0469-.2015.0931-.3013.1451-.0284.0148-.0561.0316-.0845.0468-.1167.0626-.2332.1261-.3484.1936-.0221.0129-.0437.0268-.0658.04-.5438.3228-1.0668.6844-1.5489.9856h0l-.0124.008a.1051.1051,0,0,0-.03.1463Z"/><path d="M69.8319,334.407a1.7087,1.7087,0,0,1-2.1516-.4856c-.2693-.3656-.859-.0487-.6223.3639a2.4267,2.4267,0,0,0,3.23.9019C70.8047,334.9235,70.3441,334.1244,69.8319,334.407Z"/><path d="M59.5279,309.5948a27.49,27.49,0,0,0,.7889,6.1935.116.116,0,0,0,.2267-.0307,27.4609,27.4609,0,0,0-.4115-6.2444C60.0615,309.1653,59.5308,309.2559,59.5279,309.5948Z"/><path d="M104.8669,281.37a24.43,24.43,0,0,0,7.3539-2.1455c.3908-.1826.105-.755-.2813-.6674a33.3647,33.3647,0,0,0-7.17,2.4547A.1934.1934,0,0,0,104.8669,281.37Z"/><path d="M160.02,270.3494a12.107,12.107,0,0,0-2.2041.59.1932.1932,0,0,0,.0511.3776,12.5329,12.5329,0,0,0,2.3625-.2076C160.73,271.0218,160.517,270.2625,160.02,270.3494Z"/><path d="M69.9789,268.3592c-1.51.2762-2.9769.439-4.5023.591a.0869.0869,0,0,0-.023.17,7.4325,7.4325,0,0,0,4.7247-.038A.3751.3751,0,0,0,69.9789,268.3592Z"/><path d="M38.2423,279.3143c-1.28.0828-2.5678.1136-3.85.075-.407-.0122-.381.5669,0,.6152a24.6657,24.6657,0,0,0,3.85.194C38.8136,280.1814,38.8089,279.2776,38.2423,279.3143Z"/><path d="M35.9794,281.0878c-.614.0874-1.21.1914-1.8141.3344a.27.27,0,0,0,.0715.5285c.624.0267,1.2337.0166,1.8576-.0134A.4306.4306,0,1,0,35.9794,281.0878Z"/><path d="M116.7818,265.2269a12.3648,12.3648,0,0,0-3.7963-.3163,14.0243,14.0243,0,0,1-5.19-1.2149c-.1217-.0518-.2278.1119-.1066.1827a13.1729,13.1729,0,0,0,3.9962,1.5789c1.62.3435,3.294.078,4.897.4923A.3751.3751,0,0,0,116.7818,265.2269Z"/><path d="M169.6149,265.8984c-3.4145-3.3161-8.09-4.9663-12.7982-6.1931L262.6948,0H254.46L149.32,257.8957l-.9791,2.4015-2.11,5.1766-2.0444,5.0147-9.7894,24.0121-1.2388,3.0386-18.4024,45.1389-.3811.9346-4.7461,11.6416a3.35,3.35,0,0,1-.0573-2.5738l3.1184-7.9781,1.318-3.3718,13.1059-33.53.6082-1.5562,4.2475-10.867.253-.6471,1.85-4.734.4229-1.0819,9.3616-23.951.2305-.59,2.5506-6.5254.2114-.5409L247.4223,0h-1.9816L145.0317,256.8877c-7.9589-1.8667-15.9772-3.5085-24.0436-4.8156-8.9633-1.4523-17.3733-.6826-26.2219.7783L164.2442,0h-7.9079L86.4741,254.249l-2.3693.4019L150.12,0h-1.9066L82.1105,254.9893l-18.412,3.1242C54.7009,259.64,45.2,260.47,36.8242,264.3162a91.4082,91.4082,0,0,0-11.26,6.7566l-13.35,8.6492C6.2592,283.5806-1.0835,286.8561.1336,295.0994a68.4313,68.4313,0,0,0,3.5977,12.4268,10.1615,10.1615,0,0,0,5.6426,6.381c.4782,2.2482-.2424,4.4658,1.01,6.6042a4.8664,4.8664,0,0,0,1.2611,1.3951c-.3966,2.7195-.96,6.0376-.2525,8.5356.7631,2.6969,3.339,4.4508,5.4838,6.1448a5.7392,5.7392,0,0,0,.9413,2.7678,3.5947,3.5947,0,0,0,3.8849,1.2492,8.0573,8.0573,0,0,0,3.2486,4.2712,6.0461,6.0461,0,0,0,3.9381.9343,33.2453,33.2453,0,0,1,3.7567,2.7273,15.5453,15.5453,0,0,0,6.833,2.4649,55.1574,55.1574,0,0,0,10.2257,1.0052c2.9387.9364,5.9122,2.37,8.9512,2.8423,2.5662.3991,5.5064-.6634,7.7624-1.988a16.0956,16.0956,0,0,0,1.541.6385,18.59,18.59,0,0,0,3.46.8742c2.2308.2856,4.9927-.95,6.9769-1.9813a36.8607,36.8607,0,0,0,19.89-3.5066c2.652.0069,5.1839.2661,7.8105-.7364a30.9046,30.9046,0,0,0,4.0124-1.9167l-2.2577,5.7762a5.2194,5.2194,0,0,0,2.9179,6.729l.08.0318a5.2013,5.2013,0,0,0,6.7495-2.8692l6.2051-15.22a26.1139,26.1139,0,0,1,4.8937-1.9764.5239.5239,0,0,0,.1895-.097c.7028.058,1.4077.096,2.1175.0866,2.6173-.0345,5.2584-1.2862,7.65-2.209,4.9889-1.925,10.3376-3.7547,14.8676-6.6422a8.3441,8.3441,0,0,0,4.1569-.7008,6.3217,6.3217,0,0,0,3.31-3.342,10.2084,10.2084,0,0,0,4.8932-3.5957,6.2073,6.2073,0,0,0,.9687-4.1435,28.4765,28.4765,0,0,0,2.905-8.4845c.3607-3.0825-1.2185-5.9755-3.165-8.2124a10.5737,10.5737,0,0,0,.1511-6.7183,13.3207,13.3207,0,0,0,1.5154-4.3033,38.33,38.33,0,0,0,3.7494-1.3648c6.6829-2.8612,5.6977-10.7032,3.1681-16.183A18.3474,18.3474,0,0,0,169.6149,265.8984ZM97.2432,255.1422a25.5255,25.5255,0,0,1,12.5525-1.9885c.0287,0,.0574.0005.0861,0l.0752.0074.0018-.0072c6.6631-.03,13.3027,1.3488,19.8179,2.5926,4.53.8649,9.0393,1.8325,13.5326,2.8706.3076.09.6245.1894.9366.2807l-1.7729,4.5359c-1.2276.036-2.4549.0841-3.6934.0963-.1627.0014-.2491-.2489-.0873-.3224a13.5589,13.5589,0,0,1,3.8717-1.044c-2.9066-1.2755-6.17-.9463-9.171-1.9068-2.9642-.9488-5.8058-2.3086-8.8485-3.0037-5.5314-1.2637-11.15-2.1416-16.78-2.8625-3.4845.1054-6.9762.86-10.488.9966C97.1245,255.3935,97.1212,255.1913,97.2432,255.1422ZM6.8532,309.38a20.8,20.8,0,0,1-1.8446-4.3916c-.53-1.5434-1.2538-3.3924-1.8693-5.3289l.04-.0157c-.0242-.0247-.0463-.0523-.07-.0774-.2072-.6574-.4-1.3238-.569-1.9923l.0161.0136a11.602,11.602,0,0,1-.2818-7.26.2027.2027,0,0,1,.3964.0538,20.2417,20.2417,0,0,0,2.1026,8.8414l.0066.013c4.4368,2.9531,9.929,4.7175,15.1792,3.5546,2.888-.64,5.68-1.9071,8.6931-1.8217a43.9144,43.9144,0,0,1,9.206,1.24,61.9944,61.9944,0,0,1,9.6974,3.5506c3.2352,1.3906,6.3767,1.39,9.7769,1.9759.4969.0856.9737.1933,1.44.3132a36.8068,36.8068,0,0,0-.7047-4.4335,48.8513,48.8513,0,0,1-1.0375-6.0373,3.8228,3.8228,0,0,0-1.05-1.8175c-.0485,0-.0964.0049-.1452.0039-.16-.0025-.32-.0133-.48-.0172a21.1121,21.1121,0,0,1,1.1573,9.0942.2027.2027,0,0,1-.3964.0535c-.4529-1.8321-.7706-3.6743-1.35-5.4774a27.8951,27.8951,0,0,1-1.0792-3.73c-.28-.0141-.56-.0326-.84-.05a16.8835,16.8835,0,0,0-.2019,1.9232q.0755,1.4123.1108,2.8243a.13.13,0,0,1-.2549.0345c-.1936-.9021-.2865-1.8848-.5559-2.764a16.617,16.617,0,0,1-.7345-2.1311c-1.6309-.1324-3.2594-.3025-4.8885-.4784-4.2556-.46-8.5487-.9151-12.8465-1.4231-2.65.2308-5.5575-.3718-8.1023-.5174-4.1643-.2382-8.3226-.6178-12.477-.9862-.3156-.0279-.3269-.5027,0-.5,2.1521.0193,4.3068.03,6.461.0619-4.5109-.7329-8.9875-1.5927-13.39-2.654a.0868.0868,0,0,1,.023-.17c13.8563.7339,27.76,3.0379,41.52,4.7953,3.9012.4984,7.5349.912,11.41-.1075,2.8659-.7539,5.7021-1.6187,8.5457-2.4545a23.8088,23.8088,0,0,1-3.1658-.4306,40.1265,40.1265,0,0,1-26.11-1.6332c-.2-.0824-.1247-.4054.092-.3335a44.9358,44.9358,0,0,0,23.6082,1.2958,15.1038,15.1038,0,0,1-2.0711-.9067c-2.4351-1.3053-4.4182-4.0456-7.0216-4.8628a39.5248,39.5248,0,0,0-8.1342-1.4531,36.631,36.631,0,0,0-10.2415.2566,47.63,47.63,0,0,1-7.0527,1.11,23.9394,23.9394,0,0,1-7.8882-1.0155,22.6444,22.6444,0,0,1-5.0409-2.5326q1.9785-1.2781,3.9557-2.5585c1.2331-1.1753,2.41-2.4673,4.2039-2.3459a.1545.1545,0,0,1,.0408.3021,5.2112,5.2112,0,0,0-1.6162.9659,23.8374,23.8374,0,0,0,2.7981.5c3.0142.2521,6.0446.43,9.0677.531,6.38.214,12.7723-.9646,19.1165.11a43.151,43.151,0,0,1,9.6085,2.77,18.4851,18.4851,0,0,0,9.0152,1.2309,35.5244,35.5244,0,0,1,4.4567-.01h0c.6243.0393,1.2457.0938,1.8611.175h0c.0385.0051.0776.007.116.0123a5.0471,5.0471,0,0,1,1.9085-.7205h0c.1191-.0171.2351-.04.36-.0464.0619-.0034.0724.0769.0291.1073-.1677.1182-.3381.24-.5063.3658h0a7.5557,7.5557,0,0,0-.5968.4865c.1467.0278.29.069.4357.1h0q.7413.156,1.468.3627c.0215.0062.0425.014.064.02.4581.1326.9115.28,1.359.4469.1321.05.26.11.3915.163.34.1358.6807.2717,1.0136.43.4723.2252.9381.47,1.394.7415,1.0327.0374,2.0642.058,3.084.0263,1.5206-.0473,2.7919-.7548,4.2323-.9814q3.2875-1.0527,6.5648-2.1724a9.965,9.965,0,0,1,1.02-.3474q1.8328-.6246,3.6659-1.2529c-.0085-.0247-.02-.0468-.0277-.0722-.1582-.0585-.3125-.1221-.4654-.1875-.381-.0039-.7683-.0156-1.1586-.0363a26.5806,26.5806,0,0,1-6.7528.9829c-.1608-.0047-.2509-.2442-.0873-.3222a20.5128,20.5128,0,0,1,3.2423-1.175,10.0347,10.0347,0,0,1-1.8086-.6267c-.1927-.0912-.3818-.1792-.5706-.2663a32.6912,32.6912,0,0,1-4.8572,1.4527.2316.2316,0,0,1-.1776-.4215,29.0279,29.0279,0,0,1,3.47-1.6919,9.2782,9.2782,0,0,0-3.648-.633c-.6694.024-1.3355.0517-2.0011.0726-.4262.0133-.8524.0194-1.2788.0213-.1033,0-.2066.0026-.31.0019-.4862-.0026-.973-.0149-1.4615-.0478a8.079,8.079,0,0,1-1.0874-.1551c-.1093-.0225-.2161-.0532-.3243-.08-.2505-.0615-.499-.1292-.7436-.21-.112-.037-.2234-.0762-.3343-.1167q-.375-.1373-.7425-.2977c-.0873-.0382-.1752-.0745-.2619-.1144q-.4842-.2232-.9579-.473h0c-.5719-.3034-1.133-.6294-1.6872-.9572-.3-.1773-.5982-.3545-.8949-.5282-.263-.1539-.5131-.2818-.7654-.4135h0a12.4735,12.4735,0,0,0-8.0146-1.25c-2.9362.324-5.904.385-8.8642.4428a22.9809,22.9809,0,0,1,4.4668.564.0772.0772,0,0,1-.02.151c-4.0748-.0022-8.0722,1.1619-12.1031.0177q-.7219-.205-1.4363-.4395a8.7315,8.7315,0,0,1-2.9049-.649c-3.3776-1.482-6.362-3.0933-10.1464-3.316a31.5716,31.5716,0,0,0-3.2378-.0254c-.9627.4473-1.92.9091-2.8685,1.4029-2.2258,1.1589-4.052,2.7539-6.4606,3.5877-.1448.05-.201-.15-.0964-.2284,2.6263-1.9655,4.6315-4.4566,7.58-5.9511a32.0165,32.0165,0,0,1,4.6633-1.9361c.5756-.2673,1.1539-.5277,1.74-.7712.9627-.4,1.9472-.7519,2.945-1.0716a11.4768,11.4768,0,0,1,4.1521.4029c3.2,1.0279,6.138,2.5066,9.505,3.0389a31.7693,31.7693,0,0,0,12.4869-.3378c2.845-.6964,5.4293-1.3463,8.3731-1.0122.6776.0768,1.3762.1791,2.0786.2958h0c.6024.1,1.2058.2273,1.8114.36.6531.1428,1.2933.31,1.9334.4938h0q.7816.2245,1.54.4864c.5984.2134,1.1933.4328,1.75.6909,1.2757.5914,2.5358,1.1981,3.8082,1.7673l.001,0h0a32.653,32.653,0,0,0,6.1774,2.1737c5.4411,1.2228,11.4591.0818,16.2321,3.2527a17.274,17.274,0,0,0,2.8734.1068c4.2025-1.2931,8.4358-2.4586,12.7262-3.3692,1.49-.3162,2.9853-.5894,4.4841-.83-1.542-.7-3.1737-1.3939-4.8155-1.9817-2.3218.0312-4.5678.31-6.9469.56-.0794.0083-.0856-.1089-.0178-.1321,1.3135-.4492,2.6721-.9473,4.055-1.3323-.2778-.0729-.5561-.1477-.8313-.21-3.2227-.7326-6.2494-.01-9.4863-.1693a27.329,27.329,0,0,1-8.0133-1.4268,51.7329,51.7329,0,0,0-8.2565-2.0013,47.1842,47.1842,0,0,1-7.36-2.5888c-.1071-.04-.214-.0806-.3215-.12-.4613-.1664-.9252-.325-1.3959-.4623q-2.1572-.6294-4.357-1.1082l-.0052-.0012h0c-.6839-.1478-1.3714-.2773-2.0607-.397h0l-.0008,0c-.6089-.1059-1.2205-.1946-1.8334-.2757l-.0008,0h0c-.3809-.05-.76-.1121-1.1427-.1522-1.52-.16-3.0349-.2466-4.5486-.2934-2.0325.34-4.0917.5846-6.0737.9289a45.57,45.57,0,0,1-9.2509,1.0918c-.0529-.0018-.0846-.0825-.0291-.1075,3.1662-1.4256,6.6481-1.9278,10.0468-2.5215a77.8107,77.8107,0,0,1,8.0824-1.2478l5.6858-.9638c.1929-.0327.386-.0677.5788-.1006.5438.0216,1.0882.0575,1.6326.088h0c2.6085.1462,5.2061.3863,7.7165.6926.6176.0754,1.2381.1493,1.8428.2316,5.8572.7969,11.5092,3.4307,17.22,4.95,6.5893,1.7533,13.3259,3.6007,20.1993,3.469a11.17,11.17,0,0,1,5.9369,1.656c.5509.286,1.1451.56,1.7447.8448L133.34,286.8c-.2942-.5053-.5926-1.0186-.8754-1.56a6.3178,6.3178,0,0,1-.6993-4.4262c.5076-1.5156,1.55-2.8581.9245-4.5568a3.0537,3.0537,0,0,1-.2337-1.8344c.0038-.0627.0187-.1215.0274-.1825-1.7746-.0148-3.8651-.0256-4.4083.0441a3.8289,3.8289,0,0,0-.226.6244,3.9337,3.9337,0,0,0-.0816.5158c.0243.1.0514.1976.07.302l.0106.0068a.2213.2213,0,0,1,.0357.3479,8.6083,8.6083,0,0,1,.0547.9929,27.0913,27.0913,0,0,1,.4555,7.763c-.0049.1181-.1848.152-.2124.0287a67.6316,67.6316,0,0,1-1.7415-7.9745,2.0528,2.0528,0,0,0-.3051-.7644,1.8589,1.8589,0,0,0-.6786-.5009c-.0664.4108-.2.8057-.2539,1.2222-.0372.2895-.518.4288-.5663.0766a4.4332,4.4332,0,0,0-.6-1.3085,5.65,5.65,0,0,1-.2172-.5332c-1.12.2971-2.24.596-3.3584.9039a41.12,41.12,0,0,0-6.8011,2.919,28.9543,28.9543,0,0,0,2.1215,10.495c1.3768,3.0036.7381,5.8366.3133,8.9994q-5.4468,1.48-10.8844,3.09c.2526-3.3017-.88-5.5768-2.2288-8.4917a6.8666,6.8666,0,0,1-.8235-4.717c.3848-1.4549,1.1167-2.9223.8476-4.4793a6.9243,6.9243,0,0,1-.1623-1.5127c-.2451-.0092-.4919-.0169-.7438-.0158a27.9422,27.9422,0,0,0-3.3323.2293q-4.1536,1.3271-8.2911,2.68c-1.1871.72-2.3949,1.4284-3.6079,2.06a7.018,7.018,0,0,1,.4954.9887,5.3136,5.3136,0,0,1-.0532,2.6885,6.0055,6.0055,0,0,0,.5295,4.208c1.54,3.4558,1.5446,6.8733,1.1463,10.47a33.97,33.97,0,0,1,9.5635-2.4062c.3507-.0276.3548.4554.0767.5664-4.54,1.8126-9.2062,3.1542-13.6791,5.1666-2.1663.9746-4.2985,2.0231-6.4317,3.0675h0q-1.2208.5976-2.4444,1.1883c-.9191.4418-1.84.8782-2.768,1.3-.5259.2393-1.0661.4854-1.61.7321-.135.0613-.2715.1228-.4075.1843q-.9024.4077-1.8308.8172-.73.32-1.4747.6357c-.7.2953-1.4112.5809-2.1272.8589-4.9787,1.9332-10.2964,3.3286-15.3173,2.4362-.1062-.0189-.0962-.1785,0-.2039,3.0811-.8142,6.1912-1.3516,9.2651-2.1254a17.57,17.57,0,0,0-6.0782-2.5863c-2.8418-.7469-5.7276-.1573-8.5246-.8542a43.1207,43.1207,0,0,1-6.7-2.6771c-3.5931-1.5577-6.0648-1.5011-9.6876-.1536-4.854,1.8057-10.8652.659-15.8239-.268A20.5256,20.5256,0,0,1,6.8532,309.38Zm99.3917,36.5509a16.1073,16.1073,0,0,1-4.91,1.3523c.6686-.386,1.3281-.7838,1.9681-1.2038a.3847.3847,0,0,0-.3881-.6638,51.9948,51.9948,0,0,1-7.0128,2.7279,11.7784,11.7784,0,0,0,.7692-2.0356,3.9453,3.9453,0,0,0,4.0873-3.1837.3958.3958,0,0,0-.72-.3037,4.4083,4.4083,0,0,1-5.8194,2.0835c-.2434-.12-.5495.2122-.3086.4a4.76,4.76,0,0,0,2.17.9487c-1.2517,3.0911-4.5536,3.746-6.74,1.0281-.2993-.3721-.9273.0276-.7871.4582a3.8074,3.8074,0,0,0,1.5761,2.0459,82.7333,82.7333,0,0,1-16.2974,1.35.27.27,0,0,0-.0715.5286c.669.195,1.3444.36,2.0235.5047a9.3676,9.3676,0,0,1-5.2559.1219c-2.0042-.65-4.736-1.8061-6.8643-1.46-.8286.1347-.5139,1.26.1818,1.3435a4.534,4.534,0,0,1,.6475.1361,13.4721,13.4721,0,0,1-7.0685.4676c-1.28-.3154-2.5365-.6427-3.8044-.9093.6946-.1124,1.3889-.2537,2.0827-.43.4941-.1257.4028-.9629-.1226-.9061-5.84.6321-11.81-.5154-17.4954-1.7985-2.3943-.54-4.42-2.2763-6.55-3.3435q.5155-.1876,1.0193-.411c.4442-.1966.1184-.8585-.3185-.7553-3.4955.8256-7.1847-1.02-9.3444-3.7574a12.1628,12.1628,0,0,0,1.9292-.9036.4731.4731,0,0,0-.3629-.8608c-1.946.402-4.6419.62-5.7538-1.281a31.831,31.831,0,0,1-2.01-5.5166,2.9149,2.9149,0,0,0,3.7464-1.299.415.415,0,0,0-.6492-.5008,2.6891,2.6891,0,0,1-2.4346.3881c-.5925-.14-2.1243-.8466-2.0734-1.609.0309-.4624-.6259-.4962-.7645-.1035-.3379.9569.5158,2.067,1.4005,2.7011.1418,1.1166.4112,2.2074.6357,3.3067-1.401-1.6175-2.9587-3.412-3.191-5.2624-.2781-2.2165-.33-4.4541-.5394-6.6835a20.7794,20.7794,0,0,0,2.6453,1.0256c.5384.1814.8081-.5913.37-.8782-1.6336-1.071-3.82-2.4933-4.5772-4.3765-.5188-1.29-.3347-2.6659-.5746-3.9876a38.1406,38.1406,0,0,0,3.8868,1.104c.0005,2.22,2.48,4.6565,4.7028,3.5119.41-.2113.11-.7788-.2962-.7025-1.4854.2791-1.8807-1.19-2.3435-2.3593,2.1917.4434,4.4026.8192,6.5229,1.2824.0033.0167.0031.0323.0073.0493a4.1432,4.1432,0,0,0,1.3956,2.19,3.6464,3.6464,0,0,0,.5476.366,5.0083,5.0083,0,0,0,.9791.9046c-.17.326-.2347.7055-.4339,1.0288-.2632.4266-.8259.3527-1.2493.3722a.1894.1894,0,0,0-.1808.2374.9009.9009,0,0,0,.6974.6268,1.6553,1.6553,0,0,0,1.1527-.1533,2.4517,2.4517,0,0,0,1.1929-1.5136,4.47,4.47,0,0,0,2.9131-.21c.3249-.1208.2981-.6418-.0856-.6324a4.6575,4.6575,0,0,1-2.573-.9816,2.8409,2.8409,0,0,1-.4158-.3453c1.2414.218,2.512.3395,3.738.5533,1.4654.2555,2.9176.581,4.3632.9351a4.3988,4.3988,0,0,1-.998,1.5072c-.8237.7926-1.8388.48-2.8025.763a.2146.2146,0,0,0-.0933.3534c.7549.9525,2.6125.6994,3.5725.2226.0621-.0309.123-.0719.1849-.1071a2.8968,2.8968,0,0,0,5.1-1.4568c1.3428.3521,2.7492.7205,4.1777,1.0014-.4147,1.4589-1.8531,2.1718-3.4679,2.3505-.2312.0256-.3859.3561-.1309.4836a3.3536,3.3536,0,0,0,2.9772-.0794c1.0012,1.7349,3.4687,1.0111,4.8534.0512a.3138.3138,0,0,0-.2406-.571,3.7158,3.7158,0,0,1-3.3836-.4412,4.446,4.446,0,0,0,.7223-1.1676,2.1981,2.1981,0,0,0,.1184-.3788,13.228,13.228,0,0,0,7.7278-.8215,26.5425,26.5425,0,0,0,2.8038-.4051c-.2728.6134-.5844,1.1842-1.3268,1.1923a.4039.4039,0,0,0,0,.8073,2.0651,2.0651,0,0,0,1.6283-.6,4.2234,4.2234,0,0,0,1.0588,1.5917,3.5821,3.5821,0,0,0,3.844.5683c.34-.1286.3184-.6875-.0907-.67a3.24,3.24,0,0,1-3.3044-3.1348.8113.8113,0,0,0-.048-.1633,47.047,47.047,0,0,0,5.0484-1.6524,6.7146,6.7146,0,0,0,2.0317.3918h0c.0608.0025.1219.0169.1826.0178-.0717.0829-.1687.1547-.248.2341v0a4.3682,4.3682,0,0,1-.4286.4045,7.43,7.43,0,0,1-2.9767,1.0319.2372.2372,0,0,0-.0563.43,3.5942,3.5942,0,0,0,3.0008-.0891h0a5.6753,5.6753,0,0,0,.5856-.3011c.0368-.0214.0746-.04.1111-.0618a6.3015,6.3015,0,0,0,.5385-.37c.0329-.025.0661-.0487.0986-.0743a6.64,6.64,0,0,0,.5151-.45l.0479-.0469a6.362,6.362,0,0,0,.8137-.9537,8.5348,8.5348,0,0,0,1.0789-.3724c.0082.0194.0225.0364.0313.0556h0a2.4579,2.4579,0,0,0,.5845.795c.0117.0108.0256.0182.0375.0287a2.6056,2.6056,0,0,0,.357.2691,2.3418,2.3418,0,0,0,.4439.2136,3.324,3.324,0,0,0,3.59-.8712c.2263-.2225-.0151-.519-.28-.4818a15.349,15.349,0,0,1-2.0485.0971,1.3179,1.3179,0,0,1-1.368-.7936,11.0972,11.0972,0,0,0,1.9417-1.5131c.9191-.25,1.83-.53,2.7366-.8263.1-.0327.2-.0641.2992-.0974q1.39-.462,2.7625-1l.0008,0v0c.4337-.17.8675-.34,1.299-.5224.244.8072.5182,1.59-.3263,2.1907a2.4019,2.4019,0,0,1-1.5387.39,11.8172,11.8172,0,0,1-1.3821-.1756.303.303,0,0,0-.1609.5838c.2134.0881.4291.1692.6455.2455l.0121.0041a4.2415,4.2415,0,0,0,3.5819-.0369,2.3685,2.3685,0,0,0,1.139-2.3671,6.0455,6.0455,0,0,0,4.0329.055.6227.6227,0,0,0-.1648-1.2178,19.9232,19.9232,0,0,1-2.6372-.104,3.9677,3.9677,0,0,1-1.23-.4444q.5988-.2817,1.1949-.58c1.1892-.5958,2.3492-1.2116,3.5077-1.818a1.0275,1.0275,0,0,0,.4589.7633c2.2753,1.6367,5.1712.4235,6.3971-1.812.1955.0592.3874.1125.5633.156a6.04,6.04,0,0,0,5.8834-2.3436c.146-.21-.14-.4856-.3483-.3484a5.2675,5.2675,0,0,1-3.3219,1.016,6.5317,6.5317,0,0,1-1.6518-.36,5.6886,5.6886,0,0,1-.7158-.3658c.12-.0415.2365-.0881.3577-.1281a59.2965,59.2965,0,0,0,5.8207-2.1634c1.0436.8412,2.5668,1.6691,3.8111,1.4638a4.1217,4.1217,0,0,0,2.6542-1.8186c.0735-.0086.151-.0162.2135-.0285a5.8253,5.8253,0,0,0,1.351-.5122,4.59,4.59,0,0,0,.7817-.4857,2.2837,2.2837,0,0,1,.2428.0222,2.0611,2.0611,0,0,1,.0275.9052c-.1035.5864-.8863,1.7063-1.5705,1.0763a.2606.2606,0,0,0-.4075.3146c.659,1.1738,2.2953.7391,3.0253-.1152a3.4772,3.4772,0,0,0,.7419-2.0548,2.3825,2.3825,0,0,0,.9307-.4375.5445.5445,0,0,0,.2475-.0431c1.6811.44,3.15-.7063,4.192-2.0681a3.7414,3.7414,0,0,1-.5332,1.77c-.5607,1.0556-2.0941,2.5689-3.42,1.9773a.2751.2751,0,0,0-.3319.43c1.3662,1.602,3.8091.1012,4.8814-1.1118a4.9479,4.9479,0,0,0,.778-1.2679,4.023,4.023,0,0,0,3.3895-1.2313,3.4371,3.4371,0,0,0,.39-.4228,2.3606,2.3606,0,0,0,2.3-.4533,5.2285,5.2285,0,0,0,.8-.2718A3.6315,3.6315,0,0,0,127,303.0211l-.8452,2.1623a3.8827,3.8827,0,0,1-.37.165c-1.4139.5325-2.6483-.194-4.0259-.2575a.3532.3532,0,0,0-.303.5279,4.3,4.3,0,0,0,3.93,1.5312l-13.49,34.5139a5.587,5.587,0,0,0-.8927.35,4.4415,4.4415,0,0,1-.6265.107c-1.0726.0965-3.6292.0107-3.6192-1.6044a.2172.2172,0,0,0-.4246-.0575c-.5017,1.4829,1.0522,2.4353,2.2268,2.8906a5.1693,5.1693,0,0,0,2.61.172l-.0641.1637C109.4714,344.3834,107.8632,345.1284,106.2449,345.9308Zm37.8778-55.0889a22.1907,22.1907,0,0,1,5.1346-.3591.4925.4925,0,0,1,.13.9629c-1.9706.4777-3.9723.783-5.9692,1.1235ZM124.54,338.8753l.2733-.67q.6763.05,1.35.1216C125.612,338.4911,125.0751,338.6813,124.54,338.8753Zm42.15-35.0265a12.4332,12.4332,0,0,1,.7375,2.5123,1.8788,1.8788,0,0,1-.4125.8211,1.4036,1.4036,0,0,1-1.4779.374.3378.3378,0,0,0-.2592.6148,2.46,2.46,0,0,0,2.2725.2019c.0307-.0141.06-.034.09-.05a26.07,26.07,0,0,1-1.1523,7.5735c-.17-.698-.3736-1.3814-.577-2.0334a3.0734,3.0734,0,0,0,.52-2.6225c-.0612-.4563-.82-.6807-.8967-.1212a2.3206,2.3206,0,0,1-1.2994,1.9818,8.0446,8.0446,0,0,1-2.6371.2044.2325.2325,0,0,0-.1165.43,3.6285,3.6285,0,0,0,3.5985.6883c.0458-.02.0791-.0452.1222-.0661a12.5993,12.5993,0,0,1-.9748,6.879,10.304,10.304,0,0,1-2.9216,3.1538,5.3006,5.3006,0,0,0-.0982-1.4548,5.4383,5.4383,0,0,0,1.6085-2.1865c.52-1.2155-.1309-2.2217.1133-3.4623.0739-.3753-.4884-.6745-.6587-.2777a13.2278,13.2278,0,0,0-.5215,1.928,5.6822,5.6822,0,0,1-1.2355,2.0253c-1.1639,1.4515-3.4207,1.33-5.076,1.3609-.2917.0057-.4643.457-.16.5912a6.7927,6.7927,0,0,0,4.55.7144c-.454,4.8608-6.9153,4.2665-10.8162,4.56a3.3217,3.3217,0,0,0,.7325-3.1313,2.953,2.953,0,0,0,.8965-2.3336.3091.3091,0,0,0-.6042-.0818c-.7235,1.928-3.9332,2.5705-5.5926,1.5158a.2523.2523,0,0,0-.3671.2823c.2983,1.4723,2.5566,1.66,3.7386,1.5434a3.1253,3.1253,0,0,0,.43-.0851c-.0137.0943-.0271.19-.043.3022a2.2777,2.2777,0,0,1-1.43,1.6951,4.3677,4.3677,0,0,1-3.8616-.1426c-.1989-.1125-.489.1276-.3353.3353a3.9544,3.9544,0,0,0,4.48,1.3944,3.8646,3.8646,0,0,0,1.4146-.7548c.9015.2854,1.8361.5628,2.7851.7733-4.437,1.4892-8.7062,3.5834-13.086,5.2206-2.7236,1.0179-5.3388,2.13-8.2907,2.1855a40.6646,40.6646,0,0,0-4.5665.0756l12.1361-29.7683a3.85,3.85,0,0,0,2.26-3.0421.404.404,0,0,0-.7784-.2146,3.4041,3.4041,0,0,1-.4761.79l1.4087-3.4553a3.2732,3.2732,0,0,0,.2962-.4173,3.0417,3.0417,0,0,0,.3608.0789,2.1167,2.1167,0,0,0,.6124.128,2.0217,2.0217,0,0,0,1.2977-.41c.0328-.0147.0644-.031.0964-.0467-.1279.7793-.5037,1.4366-1.4734,1.4164a.2847.2847,0,0,0-.0754.5569c1.952.4481,2.9293-1.4389,2.8739-3.1105a4.88,4.88,0,0,0,.8388-2.2214,1.1476,1.1476,0,0,1,.4039-.2739c.4342-.1637.9555.1029,1.3931.1755a3.5961,3.5961,0,0,0,1.3308-.0382,4.9629,4.9629,0,0,1-.3872.7536,4.5029,4.5029,0,0,1-1.2207,1.2374.3139.3139,0,0,0,.2406.571,5.0647,5.0647,0,0,0,2.2265-1.0541c.39-.1672.78-.3321,1.1691-.5053.6121-.2726,1.3081-.4849,1.4708.3876a.6875.6875,0,0,0,.1463.3151,4.1565,4.1565,0,0,1-.7772,1.1068,4.865,4.865,0,0,1-4.0155,1.3364.3282.3282,0,0,0-.2517.5972,4.191,4.191,0,0,0,5.2211-.2108,3.8109,3.8109,0,0,0,1.2631-1.972c1.74-.1031,3.5909-.2431,4.9467-1.4588a6.4439,6.4439,0,0,0,1.4529-1.9937,4.4982,4.4982,0,0,1,.9688-.2427c.752-.0957,1.5221.0246,2.28-.039a4.6293,4.6293,0,0,0,1.2715-.2933,3.54,3.54,0,0,1-1.1218,1.1716c-.886.5481-1.9923.3833-2.9458.74a.2624.2624,0,0,0-.0621.4743,4.5332,4.5332,0,0,0,3.7679.5885,4.0537,4.0537,0,0,0,1.9012-1.4993c.0563.663.12,1.3295.1232,2.0289a16.7315,16.7315,0,0,1-.6918,4.5055,3.0552,3.0552,0,0,1-.2392.3008,2.85,2.85,0,0,1-2.1794.919c-.28-.0112-.301.3767-.0626.4625a3.8393,3.8393,0,0,0,2.95-.1334A3.2714,3.2714,0,0,0,166.69,303.8488Zm4.53-25.6125c-.1493-1.6266-.2395-3.4251-1.2191-4.8059a14.1706,14.1706,0,0,0-1.5837-1.8783c-.0172.01-.0322.0222-.05.031a13.2609,13.2609,0,0,0,.1686,1.4431,20.249,20.249,0,0,1,.0658,12.2771c-.03.0885-.1766.0788-.17-.0229.2632-3.96-.7446-7.27-1.7407-10.8068-.5888-1.31-1.2971-2.5752-1.975-3.8314-.6209.05-1.2406.0981-1.8616.1531a2.1115,2.1115,0,0,1,.019.2654c-.0352,3.1408,2.4671,5.2776,1.6107,8.6046-.644,2.5031-2.5616,6.1228-.7762,8.4375a39.4605,39.4605,0,0,0,6.3992-1.23c.5528-.1671.7923.5768.37.8783-3.31,2.3647-7.6354,2.2964-11.7635,2.417q-1.1141.1516-2.2264.2843a.8093.8093,0,0,1,.029-.1831,23.2507,23.2507,0,0,0-2.5345.2924.25.25,0,0,1-.1329-.4818,22.5932,22.5932,0,0,1,3.1154-.9325c.0162-.0633.0274-.1292.041-.1937a1.5583,1.5583,0,0,1,.04-.2663c.0089-.032.016-.0642.0248-.0963.2844-2.0525-.4864-4.6424.0039-6.6156a9.88,9.88,0,0,0-.4869-6.9089,10.3866,10.3866,0,0,1-1.1338-3.0626,5.8836,5.8836,0,0,0-.132-.5746q-1.3972.0926-2.7951.1736c.1144,1.184-.3336,2.3659-.3391,3.5535a.1442.1442,0,0,1-.2882,0,10.1926,10.1926,0,0,0-.5227-2.1091l1.2428-3.0485c.6547-.0384,1.3078-.0785,1.9637-.114a4.863,4.863,0,0,0-1.41-1.2445l1.3056-3.2023c1.2611.9768,2.8879,1.2621,4.3187,1.9581a21.675,21.675,0,0,1,2.4487,1.2634c.7009.0466,1.4026.0838,2.1076.0671a17.0822,17.0822,0,0,1,2.12.0374c1.4065-.1564,2.69-.0014,3.43.8876a11.8854,11.8854,0,0,1,3.1034,8.5841A.3942.3942,0,0,1,171.22,278.2363Z"/></svg>