<svg id="b68eb59e-412f-434d-a7f9-2bc0c50a9a61" data-name="Capa 1" xmlns="http://www.w3.org/2000/svg" width="215.2244" height="167.5515" viewBox="0 0 215.2244 167.5515"><defs><style>.ef9163e4-95a7-453c-8b00-fe8e848f9047{fill:#000100;}</style></defs><path class="ef9163e4-95a7-453c-8b00-fe8e848f9047" d="M215.1931,101.7969a2.0787,2.0787,0,0,0-.1217-.4184l-.0367-.1375-11.1877-19.49a2.2491,2.2491,0,0,0-1.9178-1.1256l-9.0475-.1068,6.3464-78.1041a1.8953,1.8953,0,0,0-.0069-.3615l-.0167-.1681a2.1437,2.1437,0,0,0-.2276-.6831l-.1137-.19a2.2013,2.2013,0,0,0-.3072-.3728l-.3676-.3182-.07-.0241a2.2268,2.2268,0,0,0-.5-.2087l-.1962-.0455a2.1331,2.1331,0,0,0-.5882-.0363l-.1873.017a2.2325,2.2325,0,0,0-.6213.19L96.9792,47.6877a2.2343,2.2343,0,0,0-1.1229,1.221l-13.8626,36.33L9.6992,22.2454A2.2978,2.2978,0,0,0,6.809,22.2a2.235,2.235,0,0,0-.53,2.8411L42.07,88.0691l-5.7278-.695a2.24,2.24,0,0,0-2.1339.9856L.3491,139.3468l-.0757.1312a2.2957,2.2957,0,0,0-.2079.5462l-.0368.1926a2.2652,2.2652,0,0,0-.014.6153l.0271.1715a2.1988,2.1988,0,0,0,.1944.5576l.182.2871a2.354,2.354,0,0,0,.3409.38l.15.1226a2.1775,2.1775,0,0,0,.4153.2407l.1913.0814a2.278,2.278,0,0,0,.624.119l110.7041,4.7913,19.0616,19.3083.3126.2627a1.3383,1.3383,0,0,0,.2835.1549l.2215.1a2.2119,2.2119,0,0,0,.77.1427l.225-.0009.05-.0167a1.9222,1.9222,0,0,0,.1943-.0341l.4105-.1348a2.2242,2.2242,0,0,0,.2582-.13,2.2823,2.2823,0,0,0,.2-.1348,2.4459,2.4459,0,0,0,.2608-.2276c.0412-.0429.0806-.0857.1191-.1321l5.3707-7.8644,4.1373,3.77a2.2669,2.2669,0,0,0,1.78.5671,2.2366,2.2366,0,0,0,1.5948-.9838l42.6676-64.2307,21.6515,6.3553.1943.0411a2.1889,2.1889,0,0,0,.39.0359l.2687-.0237a2.2881,2.2881,0,0,0,.512-.1242c.0447-.0166.0876-.0341.13-.0525a1.7336,1.7336,0,0,0,.2145-.1033l.1934-.1234.0691-.07a1.9872,1.9872,0,0,0,.2722-.2546,2.1407,2.1407,0,0,0,.18-.2311l.1742-.2758a1.4444,1.4444,0,0,0,.1041-.287,2.0618,2.0618,0,0,0,.0726-.2749,2.24,2.24,0,0,0,.0359-.51A1.96,1.96,0,0,0,215.1931,101.7969Zm-26.1189-18.12a.8754.8754,0,0,0-.1289-.0677l12.4351.1474,8.7486,15.24ZM208.29,99.8748l-17.6577-5.1834-.961-8.364ZM194.0772,4.6268,125.4853,95.9776,107.62,82.6722a.8867.8867,0,0,0-.1317-.0743c-.0183-.0092-.0342-.0218-.0529-.03a.8921.8921,0,0,0-.2486-.0651c-.02-.0023-.04,0-.06-.001a.8929.8929,0,0,0-.2055.0135c-.0137.0025-.0272-.0005-.0409.0026L84.3813,87.78,98.66,50.3612ZM129.303,121.101,109.9327,86.63l15.1945,11.3163.0005,0,.0013.0008,17.5564,13.0753-13.0525,9.5647A.8809.8809,0,0,0,129.303,121.101ZM135.77,136.27l-28.54-17.9043-.0024-.0014-5.8262-3.6551L107.47,85.9068ZM105.9169,84.584l-6.1329,29.11L67.65,93.5342ZM65.3051,92.2418,46.771,89.9934,11.6037,28.0655,81.0343,88.563Zm-.2588,1.7748,39.3184,24.6663L4.1854,139.2381l32.33-48.6823Zm41.5161,26.0451,29.7331,18.6531-15.4337,6.0762-6.6517-.288-.0362-.0368a.894.894,0,0,0-1.2518-.019L9.5305,139.9711ZM120.9747,146.59c.0132.0009.0254.0009.0385.0009a.895.895,0,0,0,.3283-.0622l15.7654-6.2064-4.1882,23.1315L116.06,146.3769Zm18.1828-7.5317c.002-.0107-.0013-.0215,0-.0324.0021-.015.0089-.0286.01-.0437a.8828.8828,0,0,0-.0091-.1912c-.002-.016.0005-.0318-.0022-.0476a.8937.8937,0,0,0-.0922-.262c-.0036-.0069-.0038-.0149-.0076-.0217l-9.1662-16.3123a.88.88,0,0,0,.8013-.1139l52.4041-38.4007,4.0306,1.2639-51.9992,76.4184Zm48.7748-52.1587.9494,8.2614-42.8226,64.4627-4.6986-4.2814Zm-4.99-5.1539c-.0129-.001-.0243.0062-.037.006a.8889.8889,0,0,0-.2214.0353.7727.7727,0,0,0-.146.0554.881.881,0,0,0-.1357.0766l-38.2039,27.9953L126.9233,97.0484,195.85,5.2516l-6.2224,76.573Z"/></svg>