<svg xmlns="http://www.w3.org/2000/svg" width="27.995" height="56" viewBox="0 0 27.995 56"><path fill="#D0766420" d="M27.995,16.98v-2.7a19.9353,19.9353,0,0,1-6-14.28h-2A21.97,21.97,0,0,0,27.995,16.98Z"/><path fill="#D0766420" d="M27.995,0h-2a15.9849,15.9849,0,0,0,2,7.75Z"/><path fill="#D0766420" d="M14.0594,1.84q.0614.8964.1761,1.7777c-.4026.2278-.7929.4742-1.1828.721q-.4321.2742-.8538.5647c-.2956.2026-.5918.4042-.8791.6176-.2956.2194-.5792.452-.8655.6821A28.1553,28.1553,0,0,0,7.333,9.1238c-.0664.0726-.136.1421-.2015.2155-.3.3352-.5859.683-.87,1.0324-.1311.1623-.265.3225-.3923.4874a28.0342,28.0342,0,0,0-1.7949,2.605q-.1458.24-.2866.4825-.3155.5421-.6075,1.0989c-.1205.2318-.2358.4666-.35.7021a27.7976,27.7976,0,0,0-1.1689,2.7457c-.1185.3268-.2213.6614-.3278.9942-.0957.3-.1987.5962-.2845.9C.8738,21.01.715,21.64.585,22.28l0,0A27.946,27.946,0,0,0,.8684,34.8785c.0583.23.1068.4646.171.693.1082.3855.2364.7624.36,1.141.08.2436.1542.4892.2406.7306a27.7992,27.7992,0,0,0,1.2414,2.9091c.0916.186.1827.3722.2784.5557q.3062.5872.64,1.1574.1308.2246.2654.4462a28.0563,28.0563,0,0,0,1.89,2.7365c.04.051.0814.1.1215.1509a28.1667,28.1667,0,0,0,4.6362,4.5962c.1767.1394.3491.2841.529.4192.3809.285.773.5555,1.1684.8212.1522.1026.3049.2045.4591.3041.4462.2872.8972.5675,1.36.83q-.1091.8653-.169,1.7451c-.0086.1225-.0063.2476-.013.3707-.0252.47-.0479.9417-.0479,1.4186,0,.0324.0023.0642.0025.0965H15.995a25.98,25.98,0,0,1,12-21.91V30a2,2,0,0,1,0-4V21.91A25.96,25.96,0,0,1,15.995,0h-2C13.9948.6139,14.02,1.2275,14.0594,1.84ZM27.595,24.02a4,4,0,0,0,0,7.96,28.6988,28.6988,0,0,0-3.86,2.79,8,8,0,0,1,0-13.55A28.0876,28.0876,0,0,0,27.595,24.02Zm-5.37-4.19a9.99,9.99,0,0,0,0,16.34,27.07,27.07,0,0,0-2.63,3.03,13.98,13.98,0,0,1,0-22.4A27.07,27.07,0,0,0,22.225,19.83Zm-3.78-4.67a15.98,15.98,0,0,0,0,25.68,27.5261,27.5261,0,0,0-1.93,3.54,19.98,19.98,0,0,1,0-32.76A28.0933,28.0933,0,0,0,18.445,15.16Zm-2.71-5.43a21.98,21.98,0,0,0,0,36.54,26.7645,26.7645,0,0,0-1.15,4.01,25.99,25.99,0,0,1,0-44.55A27.3334,27.3334,0,0,0,15.735,9.73Z"/><path fill="#D0766420" d="M27.995,56V48.25a15.956,15.956,0,0,0-2,7.75Z"/><path fill="#D0766420" d="M19.995,56h2a19.9353,19.9353,0,0,1,6-14.28V39.03A21.9346,21.9346,0,0,0,19.995,56Z"/></svg>